<svg width="24" height="24" viewBox="0 0 24 24" fill="none" xmlns="http://www.w3.org/2000/svg">
<path d="M4.70994 3.29019C4.6167 3.19695 4.50601 3.12299 4.38419 3.07253C4.26237 3.02207 4.1318 2.99609 3.99994 2.99609C3.86808 2.99609 3.73751 3.02207 3.61569 3.07253C3.49387 3.12299 3.38318 3.19695 3.28994 3.29019C3.10164 3.47849 2.99585 3.73388 2.99585 4.00019C2.99585 4.26649 3.10164 4.52188 3.28994 4.71019L8.91994 10.3402C8.56375 11.0028 8.43053 11.7626 8.54003 12.5068C8.64953 13.2511 8.99593 13.9403 9.52788 14.4722C10.0598 15.0042 10.749 15.3506 11.4933 15.4601C12.2376 15.5696 12.9973 15.4364 13.6599 15.0802L19.2899 20.7102C19.3829 20.8039 19.4935 20.8783 19.6154 20.9291C19.7372 20.9798 19.8679 21.006 19.9999 21.006C20.132 21.006 20.2627 20.9798 20.3845 20.9291C20.5064 20.8783 20.617 20.8039 20.7099 20.7102C20.8037 20.6172 20.8781 20.5066 20.9288 20.3848C20.9796 20.2629 21.0057 20.1322 21.0057 20.0002C21.0057 19.8682 20.9796 19.7375 20.9288 19.6156C20.8781 19.4937 20.8037 19.3831 20.7099 19.2902L4.70994 3.29019ZM11.9999 13.5002C11.6021 13.5002 11.2206 13.3422 10.9393 13.0608C10.658 12.7795 10.4999 12.398 10.4999 12.0002V11.9302L12.0599 13.4902L11.9999 13.5002Z" fill="#00C688"/>
<path d="M12.2199 17.0001C7.91995 17.1001 5.09995 13.4101 4.21995 12.0001C4.84642 11.0008 5.59931 10.0866 6.45995 9.28012L4.99995 7.87012C3.87127 8.93359 2.90435 10.1566 2.12995 11.5001C2.04218 11.6521 1.99597 11.8246 1.99597 12.0001C1.99597 12.1757 2.04218 12.3481 2.12995 12.5001C2.75995 13.5901 6.12995 19.0001 12.0199 19.0001H12.2699C13.3775 18.9673 14.4707 18.7405 15.4999 18.3301L13.9199 16.7501C13.3643 16.8963 12.7941 16.9801 12.2199 17.0001Z" fill="#00C688"/>
<path d="M21.87 11.5004C21.23 10.3904 17.7 4.82036 11.73 5.00036C10.6225 5.03321 9.52924 5.25998 8.5 5.67036L10.08 7.25036C10.6356 7.10419 11.2058 7.02034 11.78 7.00036C16.07 6.89036 18.89 10.5904 19.78 12.0004C19.1381 13.0027 18.3682 13.917 17.49 14.7204L19 16.1304C20.1428 15.0697 21.1234 13.8466 21.91 12.5004C21.9918 12.3449 22.0311 12.1705 22.0241 11.995C22.0171 11.8194 21.9639 11.6488 21.87 11.5004Z" fill="#00C688"/>
</svg>
