<svg width="12" height="6" viewBox="0 0 12 6" fill="none" xmlns="http://www.w3.org/2000/svg">
<path d="M10.8738 1.37302C11.1251 1.37302 11.2481 1.15402 11.2481 0.941781C11.2481 0.72201 11.1198 0.509766 10.8738 0.509766H9.44281C9.16305 0.509766 9.00707 0.741488 9.00707 0.997267V4.514C9.00707 4.82751 9.18556 5.0015 9.42706 5.0015C9.66708 5.0015 9.84635 4.82751 9.84635 4.514V3.54877H10.7119C10.9804 3.54877 11.1146 3.329 11.1146 3.11078C11.1146 2.89706 10.9804 2.68474 10.7119 2.68474H9.84635V1.37302H10.8738ZM6.03706 0.509766H4.99004C4.70578 0.509766 4.50401 0.704781 4.50401 0.99424V4.51702C4.50401 4.87625 4.79425 4.98877 5.00199 4.98877H6.10077C7.40124 4.98877 8.25999 4.13304 8.25999 2.81224C8.25929 1.41578 7.45082 0.509766 6.03706 0.509766ZM6.08734 4.12032H5.44906V1.3783H6.02433C6.89511 1.3783 7.27381 1.96257 7.27381 2.76879C7.27381 3.52332 6.90179 4.12032 6.08734 4.12032ZM2.25182 0.509766H1.21458C0.921321 0.509766 0.757812 0.703229 0.757812 0.997267V4.514C0.757812 4.82751 0.945301 5.0015 1.19728 5.0015C1.44925 5.0015 1.63674 4.82751 1.63674 4.514V3.48723H2.28698C3.08947 3.48723 3.75173 2.91871 3.75173 2.00448C3.75181 1.10979 3.11283 0.509766 2.25182 0.509766ZM2.23459 2.66232H1.63682V1.33554H2.23459C2.6036 1.33554 2.83834 1.62352 2.83834 1.99928C2.83757 2.37433 2.6036 2.66232 2.23459 2.66232Z" fill="white"/>
</svg>
