<svg width="24" height="24" viewBox="0 0 24 24" fill="none" xmlns="http://www.w3.org/2000/svg">
<path d="M13 8C13.7956 8 14.5587 8.31607 15.1213 8.87868C15.6839 9.44129 16 10.2044 16 11C16 11.2652 16.1054 11.5196 16.2929 11.7071C16.4804 11.8946 16.7348 12 17 12C17.2652 12 17.5196 11.8946 17.7071 11.7071C17.8946 11.5196 18 11.2652 18 11C18 9.67392 17.4732 8.40215 16.5355 7.46447C15.5979 6.52678 14.3261 6 13 6C12.7348 6 12.4804 6.10536 12.2929 6.29289C12.1054 6.48043 12 6.73478 12 7C12 7.26522 12.1054 7.51957 12.2929 7.70711C12.4804 7.89464 12.7348 8 13 8Z" fill="#F8EBDF"/>
<path d="M13 4C14.8565 4 16.637 4.7375 17.9497 6.05025C19.2625 7.36301 20 9.14348 20 11C20 11.2652 20.1054 11.5196 20.2929 11.7071C20.4804 11.8946 20.7348 12 21 12C21.2652 12 21.5196 11.8946 21.7071 11.7071C21.8946 11.5196 22 11.2652 22 11C22 8.61305 21.0518 6.32387 19.364 4.63604C17.6761 2.94821 15.3869 2 13 2C12.7348 2 12.4804 2.10536 12.2929 2.29289C12.1054 2.48043 12 2.73478 12 3C12 3.26522 12.1054 3.51957 12.2929 3.70711C12.4804 3.89464 12.7348 4 13 4Z" fill="#F8EBDF"/>
<path d="M21.75 15.91C21.695 15.7495 21.6 15.6056 21.4741 15.4919C21.3481 15.3781 21.1953 15.2984 21.03 15.26L15.03 13.89C14.8671 13.8531 14.6976 13.8575 14.5369 13.9029C14.3762 13.9484 14.2294 14.0333 14.11 14.15C13.97 14.28 13.96 14.29 13.31 15.53C11.1532 14.5362 9.42499 12.8009 8.44 10.64C9.71 10 9.72 10 9.85 9.85C9.96671 9.73056 10.0516 9.58379 10.0971 9.42308C10.1425 9.26238 10.1469 9.09286 10.11 8.93L8.74 3C8.70165 2.8347 8.62186 2.68187 8.50814 2.55591C8.39443 2.42995 8.25053 2.335 8.09 2.28C7.85647 2.19659 7.61531 2.1363 7.37 2.1C7.11725 2.0414 6.85933 2.0079 6.6 2C5.38 2 4.20998 2.48464 3.34731 3.34731C2.48464 4.20998 2 5.38 2 6.6C2.00529 10.6827 3.62949 14.5967 6.5164 17.4836C9.40331 20.3705 13.3173 21.9947 17.4 22C18.0041 22 18.6022 21.881 19.1603 21.6498C19.7184 21.4187 20.2255 21.0798 20.6527 20.6527C21.0798 20.2255 21.4187 19.7184 21.6498 19.1603C21.881 18.6022 22 18.0041 22 17.4C22.0003 17.1455 21.9802 16.8913 21.94 16.64C21.898 16.3916 21.8344 16.1474 21.75 15.91ZM17.4 20C13.8469 19.9974 10.4401 18.5847 7.92769 16.0723C5.41528 13.5599 4.00265 10.1531 4 6.6C4.00263 5.91125 4.27741 5.25146 4.76443 4.76443C5.25146 4.27741 5.91125 4.00263 6.6 4H6.93L8 8.64L7.46 8.92C6.6 9.37 5.92 9.73 6.28 10.51C6.86622 12.1696 7.81477 13.6777 9.05674 14.9249C10.2987 16.172 11.8029 17.1269 13.46 17.72C14.3 18.06 14.63 17.43 15.08 16.56L15.37 16.01L20 17.07V17.4C19.9974 18.0888 19.7226 18.7485 19.2356 19.2356C18.7485 19.7226 18.0888 19.9974 17.4 20Z" fill="#F8EBDF"/>
</svg>
