<svg width="64" height="64" viewBox="0 0 64 64" fill="none" xmlns="http://www.w3.org/2000/svg">
<path d="M32 0C14.3541 0 0 14.3555 0 32C0 49.6445 14.3541 64 32 64C49.6459 64 64 49.6445 64 32C64 14.3555 49.6459 0 32 0ZM44.7214 33.1211L26.0548 45.1211C25.836 45.263 25.5834 45.3334 25.3334 45.3334C25.1146 45.3334 24.8932 45.2786 24.6954 45.1706C24.2656 44.9362 24 44.4883 24 44V20C24 19.5117 24.2656 19.0637 24.6954 18.8294C25.1173 18.5976 25.6459 18.6119 26.0548 18.8789L44.7214 30.8789C45.1016 31.1236 45.3334 31.5469 45.3334 32C45.3334 32.4531 45.1016 32.8762 44.7214 33.1211Z" fill="#00C688"/>
</svg>
