<svg width="10" height="9" viewBox="0 0 10 9" fill="none" xmlns="http://www.w3.org/2000/svg">
<path d="M7.70019 1.39018L3.92019 6.39018L2.29019 4.28018C2.12708 4.07066 1.88742 3.93451 1.62393 3.90169C1.36044 3.86887 1.09471 3.94207 0.885189 4.10518C0.675668 4.26828 0.539523 4.50794 0.506704 4.77143C0.473885 5.03492 0.547081 5.30066 0.710189 5.51018L3.14019 8.62018C3.23436 8.73936 3.35445 8.83552 3.49133 8.90136C3.62821 8.9672 3.7783 9.00099 3.93019 9.00018C4.08291 8.99981 4.23351 8.96447 4.37045 8.89686C4.50739 8.82926 4.62703 8.73119 4.72019 8.61018L9.29019 2.61018C9.45197 2.398 9.52284 2.13025 9.48721 1.86583C9.45158 1.6014 9.31236 1.36196 9.10019 1.20018C8.88802 1.03839 8.62027 0.967524 8.35584 1.00316C8.09141 1.03879 7.85197 1.178 7.69019 1.39018H7.70019Z" fill="#2B2B2C"/>
</svg>
