<svg width="24" height="24" viewBox="0 0 24 24" fill="none" xmlns="http://www.w3.org/2000/svg">
<path fill-rule="evenodd" clip-rule="evenodd" d="M11.5528 1.10557C11.8343 0.964809 12.1657 0.964809 12.4472 1.10557L22.4472 6.10557C22.786 6.27496 23 6.62123 23 7C23 7.37877 22.786 7.72504 22.4472 7.89443L12.4472 12.8944C12.1657 13.0352 11.8343 13.0352 11.5528 12.8944L1.55279 7.89443C1.214 7.72504 1 7.37877 1 7C1 6.62123 1.214 6.27496 1.55279 6.10557L11.5528 1.10557ZM4.23607 7L12 10.882L19.7639 7L12 3.11803L4.23607 7Z" fill="#EEEFEF"/>
<path d="M1.10579 16.5528C1.35278 16.0588 1.95345 15.8586 2.44743 16.1055L12.0002 20.8819L21.553 16.1055C22.047 15.8586 22.6477 16.0588 22.8946 16.5528C23.1416 17.0467 22.9414 17.6474 22.4474 17.8944L12.4474 22.8944C12.1659 23.0352 11.8345 23.0352 11.553 22.8944L1.55301 17.8944C1.05903 17.6474 0.858803 17.0467 1.10579 16.5528Z" fill="#EEEFEF"/>
<path d="M2.44743 11.1055C1.95345 10.8586 1.35278 11.0588 1.10579 11.5528C0.858803 12.0467 1.05903 12.6474 1.55301 12.8944L11.553 17.8944C11.8345 18.0352 12.1659 18.0352 12.4474 17.8944L22.4474 12.8944C22.9414 12.6474 23.1416 12.0467 22.8946 11.5528C22.6477 11.0588 22.047 10.8586 21.553 11.1055L12.0002 15.8819L2.44743 11.1055Z" fill="#EEEFEF"/>
</svg>
