<svg width="24" height="24" viewBox="0 0 24 24" fill="none" xmlns="http://www.w3.org/2000/svg">
<path d="M20.5196 15.2099L18.7196 13.3999V8.93989C18.7435 7.28372 18.1674 5.6748 17.0977 4.41023C16.028 3.14566 14.5368 2.31083 12.8996 2.05989C11.9494 1.93476 10.9834 2.01371 10.0662 2.29147C9.14893 2.56923 8.30146 3.03942 7.58031 3.67066C6.85916 4.30189 6.28093 5.07967 5.88419 5.95209C5.48745 6.82451 5.28133 7.7715 5.27958 8.72989V13.3999L3.47958 15.2099C3.25349 15.4398 3.10017 15.7312 3.03879 16.0477C2.9774 16.3642 3.01068 16.6918 3.13446 16.9895C3.25824 17.2872 3.46704 17.5419 3.73474 17.7216C4.00244 17.9013 4.31717 17.9981 4.63958 17.9999H7.99958V18.3399C8.04629 19.3551 8.49354 20.3104 9.24331 20.9964C9.99308 21.6825 10.9842 22.0433 11.9996 21.9999C13.0149 22.0433 14.0061 21.6825 14.7559 20.9964C15.5056 20.3104 15.9529 19.3551 15.9996 18.3399V17.9999H19.3596C19.682 17.9981 19.9967 17.9013 20.2644 17.7216C20.5321 17.5419 20.7409 17.2872 20.8647 16.9895C20.9885 16.6918 21.0218 16.3642 20.9604 16.0477C20.899 15.7312 20.7457 15.4398 20.5196 15.2099ZM13.9996 18.3399C13.9441 18.8209 13.7052 19.262 13.3327 19.5712C12.9601 19.8804 12.4826 20.034 11.9996 19.9999C11.5166 20.034 11.0391 19.8804 10.6665 19.5712C10.2939 19.262 10.055 18.8209 9.99958 18.3399V17.9999H13.9996V18.3399ZM5.50958 15.9999L6.68958 14.8199C6.87675 14.6338 7.02525 14.4126 7.12651 14.1689C7.22777 13.9251 7.27979 13.6638 7.27958 13.3999V8.72989C7.28013 8.05529 7.42497 7.38862 7.70438 6.7746C7.98379 6.16059 8.39131 5.61345 8.89958 5.16989C9.401 4.71558 9.99516 4.37564 10.6409 4.17363C11.2867 3.97161 11.9686 3.91233 12.6396 3.99989C13.7961 4.18767 14.8458 4.78691 15.5955 5.68727C16.3452 6.58764 16.7444 7.72853 16.7196 8.89989V13.3999C16.7181 13.6631 16.7685 13.924 16.868 14.1677C16.9676 14.4114 17.1142 14.633 17.2996 14.8199L18.4896 15.9999H5.50958Z" fill="#00C688"/>
</svg>
