<svg width="24" height="24" viewBox="0 0 24 24" fill="none" xmlns="http://www.w3.org/2000/svg">
<path fill-rule="evenodd" clip-rule="evenodd" d="M6.5 1H20C20.5523 1 21 1.44772 21 2V17V22C21 22.5523 20.5523 23 20 23H6.5C5.57174 23 4.6815 22.6313 4.02513 21.9749C3.36875 21.3185 3 20.4283 3 19.5V4.5C3 3.57174 3.36875 2.6815 4.02513 2.02513C4.6815 1.36875 5.57174 1 6.5 1ZM5.43934 3.43934C5.72064 3.15804 6.10218 3 6.5 3H19V16H6.5C5.97616 16 5.46443 16.1174 5 16.3377V4.5C5 4.10218 5.15804 3.72064 5.43934 3.43934ZM6.5 18C6.10218 18 5.72064 18.158 5.43934 18.4393C5.15804 18.7206 5 19.1022 5 19.5C5 19.8978 5.15804 20.2794 5.43934 20.5607C5.72064 20.842 6.10218 21 6.5 21H19V18H6.5Z" fill="#EEEFEF"/>
</svg>
