<svg width="24" height="24" viewBox="0 0 24 24" fill="none" xmlns="http://www.w3.org/2000/svg">
<path fill-rule="evenodd" clip-rule="evenodd" d="M15.663 3.77354C13.8902 2.98364 11.9096 2.78796 10.0166 3.21567C8.12351 3.64338 6.41942 4.67157 5.15845 6.1469C3.89749 7.62223 3.14721 9.46565 3.01951 11.4022C2.89181 13.3388 3.39354 15.2648 4.44987 16.8929C5.50619 18.521 7.06051 19.7641 8.88102 20.4367C10.7015 21.1092 12.6907 21.1753 14.5518 20.625C16.413 20.0748 18.0464 18.9376 19.2084 17.3832C20.3705 15.8287 20.9989 13.9403 21 11.9995V11.0801C21 10.5278 21.4477 10.0801 22 10.0801C22.5523 10.0801 23 10.5278 23 11.0801V12.0001C22.9986 14.3722 22.2306 16.6808 20.8103 18.5807C19.39 20.4806 17.3936 21.8704 15.1189 22.543C12.8442 23.2155 10.413 23.1348 8.18792 22.3127C5.96285 21.4907 4.06312 19.9714 2.77206 17.9815C1.48099 15.9915 0.86777 13.6376 1.02384 11.2706C1.17992 8.9037 2.09693 6.65064 3.63811 4.84746C5.17929 3.04428 7.26206 1.7876 9.57581 1.26484C11.8896 0.742082 14.3103 0.981252 16.477 1.94668C16.9815 2.17146 17.2082 2.76264 16.9834 3.26711C16.7587 3.77158 16.1675 3.99832 15.663 3.77354Z" fill="#EEEFEF"/>
<path fill-rule="evenodd" clip-rule="evenodd" d="M22.7068 3.29265C23.0975 3.68298 23.0978 4.31614 22.7075 4.70686L12.7075 14.7169C12.52 14.9046 12.2656 15.01 12.0003 15.0101C11.735 15.0102 11.4805 14.9048 11.2929 14.7172L8.2929 11.7172C7.90238 11.3267 7.90238 10.6935 8.2929 10.303C8.68342 9.91248 9.31659 9.91248 9.70711 10.303L11.9997 12.5955L21.2925 3.29336C21.6829 2.90264 22.316 2.90232 22.7068 3.29265Z" fill="#EEEFEF"/>
</svg>
