<svg width="24" height="24" viewBox="0 0 24 24" fill="none" xmlns="http://www.w3.org/2000/svg">
<path fill-rule="evenodd" clip-rule="evenodd" d="M7.67383 3.12085C7.67383 2.56856 7.22611 2.12085 6.67383 2.12085C6.12154 2.12085 5.67383 2.56856 5.67383 3.12085V6.12085H2.67383C2.12154 6.12085 1.67383 6.56856 1.67383 7.12085C1.67383 7.67313 2.12154 8.12085 2.67383 8.12085H5.67383V15.4737C5.67383 16.1757 5.95271 16.849 6.44913 17.3455C6.94555 17.8419 7.61884 18.1208 8.32089 18.1208H15.6738V21.1208C15.6738 21.6731 16.1215 22.1208 16.6738 22.1208C17.2261 22.1208 17.6738 21.6731 17.6738 21.1208V18.1208H20.6738C21.2261 18.1208 21.6738 17.673 21.6738 17.1208C21.6738 16.5685 21.2261 16.1208 20.6738 16.1208H17.6738V8.76791C17.6738 8.06587 17.3949 7.39257 16.8985 6.89616C16.4021 6.39974 15.7288 6.12085 15.0268 6.12085H7.67383V3.12085ZM7.67383 8.12085V15.4737C7.67383 15.6453 7.742 15.8099 7.86335 15.9312C7.98469 16.0526 8.14928 16.1208 8.32089 16.1208H15.6738V8.76791C15.6738 8.5963 15.6057 8.43172 15.4843 8.31037C15.363 8.18902 15.1984 8.12085 15.0268 8.12085H7.67383Z" fill="#141414"/>
</svg>
