<svg width="24" height="24" viewBox="0 0 24 24" fill="none" xmlns="http://www.w3.org/2000/svg">
<path d="M4 19C4 19.5523 4.44772 20 5 20H19C19.5523 20 20 19.5523 20 19V17C20 16.4477 19.5523 16 19 16C18.4477 16 18 16.4477 18 17V18H6V17C6 16.4477 5.55228 16 5 16C4.44772 16 4 16.4477 4 17V19Z" fill="#58BD88"/>
<path d="M12 15C11.7927 15.0016 11.59 14.9387 11.42 14.82L7.42 12C7.20441 11.8471 7.05814 11.615 7.01317 11.3545C6.9682 11.0941 7.02818 10.8264 7.18 10.61C7.25579 10.5018 7.35224 10.4098 7.46381 10.3391C7.57537 10.2684 7.69982 10.2206 7.82998 10.1982C7.96015 10.1759 8.09344 10.1796 8.22217 10.2091C8.3509 10.2386 8.47252 10.2933 8.58 10.37L11 12V4C11 3.73478 11.1054 3.48043 11.2929 3.29289C11.4804 3.10536 11.7348 3 12 3C12.2652 3 12.5196 3.10536 12.7071 3.29289C12.8946 3.48043 13 3.73478 13 4V12L15.4 10.2C15.6122 10.0409 15.8789 9.97254 16.1414 10.0101C16.404 10.0476 16.6409 10.1878 16.8 10.4C16.9591 10.6122 17.0275 10.8789 16.99 11.1414C16.9524 11.404 16.8122 11.6409 16.6 11.8L12.6 14.8C12.4269 14.9298 12.2164 15 12 15Z" fill="#58BD88"/>
</svg>
