<svg width="24" height="24" viewBox="0 0 24 24" fill="none" xmlns="http://www.w3.org/2000/svg">
<path fill-rule="evenodd" clip-rule="evenodd" d="M1.87868 3.87891C2.44129 3.3163 3.20435 3.00023 4 3.00023H11C11.5523 3.00023 12 3.44794 12 4.00023C12 4.55251 11.5523 5.00023 11 5.00023H4C3.73478 5.00023 3.48043 5.10558 3.29289 5.29312C3.10536 5.48066 3 5.73501 3 6.00023V20.0002C3 20.2654 3.10536 20.5198 3.29289 20.7073C3.48043 20.8949 3.73478 21.0002 4 21.0002H18C18.2652 21.0002 18.5196 20.8949 18.7071 20.7073C18.8946 20.5198 19 20.2654 19 20.0002V13.0002C19 12.4479 19.4477 12.0002 20 12.0002C20.5523 12.0002 21 12.4479 21 13.0002V20.0002C21 20.7959 20.6839 21.5589 20.1213 22.1215C19.5587 22.6842 18.7957 23.0002 18 23.0002H4C3.20435 23.0002 2.44129 22.6842 1.87868 22.1215C1.31607 21.5589 1 20.7959 1 20.0002V6.00023C1 5.20458 1.31607 4.44152 1.87868 3.87891Z" fill="#EEEFEF"/>
<path fill-rule="evenodd" clip-rule="evenodd" d="M20 2.87891C19.7026 2.87891 19.4174 2.99705 19.2071 3.20733L9.90296 12.5115L9.37437 14.6259L11.4888 14.0973L20.7929 4.79312C21.0032 4.58283 21.1213 4.29762 21.1213 4.00023C21.1213 3.70283 21.0032 3.41762 20.7929 3.20733C20.5826 2.99705 20.2974 2.87891 20 2.87891ZM17.7929 1.79312C18.3783 1.20776 19.1722 0.878906 20 0.878906C20.8278 0.878906 21.6217 1.20776 22.2071 1.79312C22.7925 2.37848 23.1213 3.1724 23.1213 4.00023C23.1213 4.82805 22.7925 5.62197 22.2071 6.20733L12.7071 15.7073C12.5789 15.8355 12.4184 15.9264 12.2425 15.9704L8.24254 16.9704C7.90176 17.0556 7.54127 16.9557 7.29289 16.7073C7.04451 16.459 6.94466 16.0985 7.02986 15.7577L8.02986 11.7577C8.07382 11.5819 8.16473 11.4213 8.29289 11.2931L17.7929 1.79312Z" fill="#EEEFEF"/>
</svg>
