<svg width="24" height="24" viewBox="0 0 24 24" fill="none" xmlns="http://www.w3.org/2000/svg">
<path d="M21.8701 11.5004C21.2301 10.3904 17.7101 4.82036 11.7301 5.00036C6.20007 5.14036 3.00007 10.0004 2.13007 11.5004C2.0423 11.6524 1.99609 11.8248 1.99609 12.0004C1.99609 12.1759 2.0423 12.3483 2.13007 12.5004C2.76007 13.5904 6.13007 19.0004 12.0201 19.0004H12.2701C17.8001 18.8604 21.0101 14.0004 21.8701 12.5004C21.9578 12.3483 22.004 12.1759 22.004 12.0004C22.004 11.8248 21.9578 11.6524 21.8701 11.5004ZM12.2201 17.0004C7.91007 17.1004 5.10007 13.4104 4.22007 12.0004C5.22007 10.3904 7.83007 7.10036 11.8301 7.00036C16.1201 6.89036 18.9401 10.5904 19.8301 12.0004C18.8001 13.6104 16.2201 16.9004 12.2201 17.0004Z" fill="#F8EBDF"/>
<path d="M12.0001 8.50036C11.3078 8.50036 10.6311 8.70563 10.0556 9.09022C9.48 9.4748 9.0314 10.0214 8.76649 10.661C8.50158 11.3005 8.43227 12.0042 8.56732 12.6832C8.70237 13.3621 9.03571 13.9857 9.52519 14.4752C10.0147 14.9647 10.6383 15.2981 11.3173 15.4331C11.9962 15.5682 12.6999 15.4988 13.3395 15.2339C13.979 14.969 14.5256 14.5204 14.9102 13.9449C15.2948 13.3693 15.5001 12.6926 15.5001 12.0004C15.5001 11.0721 15.1313 10.1819 14.4749 9.52549C13.8186 8.86911 12.9283 8.50036 12.0001 8.50036ZM12.0001 13.5004C11.7034 13.5004 11.4134 13.4124 11.1667 13.2476C10.92 13.0827 10.7278 12.8485 10.6142 12.5744C10.5007 12.3003 10.471 11.9987 10.5289 11.7077C10.5868 11.4168 10.7296 11.1495 10.9394 10.9397C11.1492 10.7299 11.4165 10.5871 11.7074 10.5292C11.9984 10.4713 12.3 10.501 12.5741 10.6145C12.8482 10.7281 13.0825 10.9203 13.2473 11.167C13.4121 11.4137 13.5001 11.7037 13.5001 12.0004C13.5001 12.3982 13.342 12.7797 13.0607 13.061C12.7794 13.3423 12.3979 13.5004 12.0001 13.5004Z" fill="#F8EBDF"/>
</svg>
