<svg width="24" height="24" viewBox="0 0 24 24" fill="none" xmlns="http://www.w3.org/2000/svg">
<path fill-rule="evenodd" clip-rule="evenodd" d="M1 12C1 5.92487 5.92487 1 12 1C18.0751 1 23 5.92487 23 12C23 18.0751 18.0751 23 12 23C5.92487 23 1 18.0751 1 12ZM7.05009 11C7.2743 8.23681 8.1991 5.58442 9.72571 3.28983C6.16881 4.21597 3.46801 7.26324 3.05493 11H7.05009ZM7.05009 13C7.2743 15.7632 8.1991 18.4156 9.72571 20.7102C6.1688 19.784 3.46801 16.7368 3.05493 13H7.05009ZM14.9424 11C14.6912 8.28683 13.6697 5.70193 12 3.5508C10.3303 5.70193 9.30879 8.28683 9.05759 11H14.9424ZM14.9424 13C14.6912 15.7132 13.6697 18.2981 12 20.4492C10.3303 18.2981 9.30879 15.7132 9.05759 13H14.9424ZM16.9499 13C16.7257 15.7632 15.8009 18.4156 14.2743 20.7102C17.8312 19.784 20.532 16.7368 20.9451 13H16.9499ZM16.9499 11C16.7257 8.23681 15.8009 5.58442 14.2743 3.28983C17.8312 4.21597 20.532 7.26324 20.9451 11H16.9499Z" fill="#EEEFEF"/>
</svg>
