<svg width="24" height="24" viewBox="0 0 24 24" fill="none" xmlns="http://www.w3.org/2000/svg">
<path fill-rule="evenodd" clip-rule="evenodd" d="M6.96802 13H17.032C17.4706 13 17.8491 13 18.1624 13.0214C18.4922 13.0439 18.8221 13.0934 19.1481 13.2284C19.8831 13.5328 20.4672 14.1169 20.7716 14.852C20.9066 15.1779 20.9561 15.5078 20.9787 15.8376C21 16.1509 21 16.5294 21 16.968V17.032C21 17.4706 21 17.8491 20.9787 18.1624C20.9561 18.4922 20.9066 18.8221 20.7716 19.1481C20.4672 19.8831 19.8831 20.4672 19.1481 20.7716C18.8221 20.9066 18.4922 20.9561 18.1624 20.9787C17.8491 21 17.4706 21 17.032 21H6.96801C6.52936 21 6.15088 21 5.83762 20.9787C5.50779 20.9561 5.17788 20.9066 4.85195 20.7716C4.11687 20.4672 3.53284 19.8831 3.22836 19.1481C3.09336 18.8221 3.04386 18.4922 3.02135 18.1624C2.99998 17.8491 2.99999 17.4706 3 17.032V16.968C2.99999 16.5294 2.99998 16.1509 3.02135 15.8376C3.04386 15.5078 3.09336 15.1779 3.22836 14.852C3.53284 14.1169 4.11687 13.5328 4.85195 13.2284C5.17788 13.0934 5.50779 13.0439 5.83762 13.0214C6.15088 13 6.52937 13 6.96802 13ZM5.97376 15.0167C5.74576 15.0323 5.65893 15.0589 5.61732 15.0761C5.37229 15.1776 5.17762 15.3723 5.07612 15.6173C5.05888 15.6589 5.03227 15.7458 5.01671 15.9738C5.00054 16.2107 5 16.5204 5 17C5 17.4796 5.00054 17.7893 5.01671 18.0262C5.03227 18.2542 5.05888 18.3411 5.07612 18.3827C5.17762 18.6277 5.37229 18.8224 5.61732 18.9239C5.65893 18.9411 5.74576 18.9677 5.97376 18.9833C6.21074 18.9995 6.52038 19 7 19H17C17.4796 19 17.7893 18.9995 18.0262 18.9833C18.2542 18.9677 18.3411 18.9411 18.3827 18.9239C18.6277 18.8224 18.8224 18.6277 18.9239 18.3827C18.9411 18.3411 18.9677 18.2542 18.9833 18.0262C18.9995 17.7893 19 17.4796 19 17C19 16.5204 18.9995 16.2107 18.9833 15.9738C18.9677 15.7458 18.9411 15.6589 18.9239 15.6173C18.8224 15.3723 18.6277 15.1776 18.3827 15.0761C18.3411 15.0589 18.2542 15.0323 18.0262 15.0167C17.7893 15.0005 17.4796 15 17 15H7C6.52038 15 6.21074 15.0005 5.97376 15.0167Z" fill="#EEEFEF"/>
<path fill-rule="evenodd" clip-rule="evenodd" d="M6.96802 3H17.032C17.4706 2.99999 17.8491 2.99998 18.1624 3.02135C18.4922 3.04386 18.8221 3.09336 19.1481 3.22836C19.8831 3.53284 20.4672 4.11687 20.7716 4.85195C20.9066 5.17788 20.9561 5.50779 20.9787 5.83762C21 6.15088 21 6.52936 21 6.96801V7.03199C21 7.47064 21 7.84913 20.9787 8.16238C20.9561 8.49221 20.9066 8.82212 20.7716 9.14805C20.4672 9.88314 19.8831 10.4672 19.1481 10.7716C18.8221 10.9066 18.4922 10.9561 18.1624 10.9787C17.8491 11 17.4706 11 17.032 11H6.96801C6.52936 11 6.15088 11 5.83762 10.9787C5.50779 10.9561 5.17788 10.9066 4.85195 10.7716C4.11687 10.4672 3.53284 9.88314 3.22836 9.14805C3.09336 8.82212 3.04386 8.49221 3.02135 8.16238C2.99998 7.84913 2.99999 7.47064 3 7.03198V6.96802C2.99999 6.52937 2.99998 6.15088 3.02135 5.83762C3.04386 5.50779 3.09336 5.17788 3.22836 4.85195C3.53284 4.11687 4.11687 3.53284 4.85195 3.22836C5.17788 3.09336 5.50779 3.04386 5.83762 3.02135C6.15088 2.99998 6.52937 2.99999 6.96802 3ZM5.97376 5.01671C5.74576 5.03227 5.65893 5.05888 5.61732 5.07612C5.37229 5.17762 5.17762 5.37229 5.07612 5.61732C5.05888 5.65893 5.03227 5.74576 5.01671 5.97376C5.00054 6.21074 5 6.52038 5 7C5 7.47963 5.00054 7.78926 5.01671 8.02624C5.03227 8.25424 5.05888 8.34107 5.07612 8.38268C5.17762 8.62771 5.37229 8.82239 5.61732 8.92388C5.65893 8.94112 5.74576 8.96773 5.97376 8.98329C6.21074 8.99946 6.52038 9 7 9H17C17.4796 9 17.7893 8.99946 18.0262 8.98329C18.2542 8.96773 18.3411 8.94112 18.3827 8.92388C18.6277 8.82239 18.8224 8.62771 18.9239 8.38268C18.9411 8.34107 18.9677 8.25424 18.9833 8.02624C18.9995 7.78926 19 7.47963 19 7C19 6.52038 18.9995 6.21074 18.9833 5.97376C18.9677 5.74576 18.9411 5.65893 18.9239 5.61732C18.8224 5.37229 18.6277 5.17762 18.3827 5.07612C18.3411 5.05888 18.2542 5.03227 18.0262 5.01671C17.7893 5.00054 17.4796 5 17 5H7C6.52038 5 6.21074 5.00054 5.97376 5.01671Z" fill="#EEEFEF"/>
</svg>
