<svg width="24" height="24" viewBox="0 0 24 24" fill="none" xmlns="http://www.w3.org/2000/svg">
<path fill-rule="evenodd" clip-rule="evenodd" d="M17.032 3H16.968C16.5294 2.99999 16.1509 2.99998 15.8376 3.02135C15.5078 3.04386 15.1779 3.09336 14.852 3.22836C14.1169 3.53285 13.5328 4.11687 13.2284 4.85195C13.0934 5.17788 13.0439 5.50779 13.0214 5.83762C13 6.15087 13 6.52934 13 6.96797V9.03199C13 9.47062 13 9.84914 13.0214 10.1624C13.0439 10.4922 13.0934 10.8221 13.2284 11.1481C13.5328 11.8831 14.1169 12.4672 14.852 12.7716C15.1779 12.9066 15.5078 12.9561 15.8376 12.9787C16.1509 13 16.5293 13 16.968 13H17.032C17.4706 13 17.8491 13 18.1624 12.9787C18.4922 12.9561 18.8221 12.9066 19.1481 12.7716C19.8831 12.4672 20.4672 11.8831 20.7716 11.1481C20.9066 10.8221 20.9561 10.4922 20.9787 10.1624C21 9.84913 21 9.47064 21 9.03199V6.96801C21 6.52936 21 6.15088 20.9787 5.83762C20.9561 5.50779 20.9066 5.17788 20.7716 4.85195C20.4672 4.11687 19.8831 3.53285 19.1481 3.22836C18.8221 3.09336 18.4922 3.04386 18.1624 3.02135C17.8491 2.99998 17.4706 2.99999 17.032 3ZM15.6173 5.07612C15.6589 5.05889 15.7458 5.03227 15.9738 5.01671C16.2107 5.00054 16.5204 5 17 5C17.4796 5 17.7893 5.00054 18.0262 5.01671C18.2542 5.03227 18.3411 5.05889 18.3827 5.07612C18.6277 5.17762 18.8224 5.37229 18.9239 5.61732C18.9411 5.65893 18.9677 5.74576 18.9833 5.97376C18.9995 6.21074 19 6.52038 19 7V9C19 9.47963 18.9995 9.78926 18.9833 10.0262C18.9677 10.2542 18.9411 10.3411 18.9239 10.3827C18.8224 10.6277 18.6277 10.8224 18.3827 10.9239C18.3411 10.9411 18.2542 10.9677 18.0262 10.9833C17.7893 10.9995 17.4796 11 17 11C16.5204 11 16.2107 10.9995 15.9738 10.9833C15.7458 10.9677 15.6589 10.9411 15.6173 10.9239C15.3723 10.8224 15.1776 10.6277 15.0761 10.3827C15.0589 10.3411 15.0323 10.2542 15.0167 10.0262C15.0005 9.78926 15 9.47963 15 9V7C15 6.52038 15.0005 6.21074 15.0167 5.97376C15.0323 5.74576 15.0589 5.65893 15.0761 5.61732C15.1776 5.37229 15.3723 5.17762 15.6173 5.07612Z" fill="#58BD88"/>
<path fill-rule="evenodd" clip-rule="evenodd" d="M7.03199 11H6.96802C6.52937 11 6.15088 11 5.83762 11.0214C5.50779 11.0439 5.17788 11.0934 4.85195 11.2284C4.11687 11.5328 3.53285 12.1169 3.22836 12.852C3.09336 13.1779 3.04386 13.5078 3.02135 13.8376C2.99998 14.1509 2.99999 14.5293 3 14.968V17.032C2.99999 17.4706 2.99998 17.8491 3.02135 18.1624C3.04386 18.4922 3.09336 18.8221 3.22836 19.1481C3.53285 19.8831 4.11687 20.4672 4.85195 20.7716C5.17788 20.9066 5.50779 20.9561 5.83762 20.9787C6.15088 21 6.52936 21 6.96801 21H7.03199C7.47064 21 7.84913 21 8.16238 20.9787C8.49221 20.9561 8.82212 20.9066 9.14805 20.7716C9.88314 20.4672 10.4672 19.8831 10.7716 19.1481C10.9066 18.8221 10.9561 18.4922 10.9787 18.1624C11 17.8491 11 17.4707 11 17.032V14.968C11 14.5294 11 14.1509 10.9787 13.8376C10.9561 13.5078 10.9066 13.1779 10.7716 12.852C10.4672 12.1169 9.88314 11.5328 9.14805 11.2284C8.82212 11.0934 8.49221 11.0439 8.16238 11.0214C7.84913 11 7.47064 11 7.03199 11ZM5.61732 13.0761C5.65893 13.0589 5.74576 13.0323 5.97376 13.0167C6.21074 13.0005 6.52038 13 7 13C7.47963 13 7.78926 13.0005 8.02624 13.0167C8.25424 13.0323 8.34107 13.0589 8.38269 13.0761C8.62771 13.1776 8.82239 13.3723 8.92388 13.6173C8.94112 13.6589 8.96774 13.7458 8.98329 13.9738C8.99946 14.2107 9 14.5204 9 15V17C9 17.4796 8.99946 17.7893 8.98329 18.0262C8.96774 18.2542 8.94112 18.3411 8.92388 18.3827C8.82239 18.6277 8.62771 18.8224 8.38269 18.9239C8.34107 18.9411 8.25424 18.9677 8.02624 18.9833C7.78926 18.9995 7.47963 19 7 19C6.52038 19 6.21074 18.9995 5.97376 18.9833C5.74576 18.9677 5.65893 18.9411 5.61732 18.9239C5.37229 18.8224 5.17762 18.6277 5.07612 18.3827C5.05889 18.3411 5.03227 18.2542 5.01671 18.0262C5.00054 17.7893 5 17.4796 5 17V15C5 14.5204 5.00054 14.2107 5.01671 13.9738C5.03227 13.7458 5.05889 13.6589 5.07612 13.6173C5.17762 13.3723 5.37229 13.1776 5.61732 13.0761Z" fill="#58BD88"/>
<path fill-rule="evenodd" clip-rule="evenodd" d="M6 3C4.34315 3 3 4.34315 3 6C3 7.65685 4.34315 9 6 9H8C9.65685 9 11 7.65685 11 6C11 4.34315 9.65685 3 8 3H6ZM5 6C5 5.44772 5.44772 5 6 5H8C8.55228 5 9 5.44772 9 6C9 6.55228 8.55228 7 8 7H6C5.44772 7 5 6.55228 5 6Z" fill="#58BD88"/>
<path fill-rule="evenodd" clip-rule="evenodd" d="M16 15C14.3431 15 13 16.3431 13 18C13 19.6569 14.3431 21 16 21H18C19.6569 21 21 19.6569 21 18C21 16.3431 19.6569 15 18 15H16ZM15 18C15 17.4477 15.4477 17 16 17H18C18.5523 17 19 17.4477 19 18C19 18.5523 18.5523 19 18 19H16C15.4477 19 15 18.5523 15 18Z" fill="#58BD88"/>
</svg>
