<svg width="24" height="24" viewBox="0 0 24 24" fill="none" xmlns="http://www.w3.org/2000/svg">
<path d="M16.9938 1.06663C15.4206 1.05296 13.905 1.65773 12.7734 2.75068L12.7631 2.7608L11.0431 4.4708C10.6514 4.86018 10.6496 5.49335 11.0389 5.88501C11.4283 6.27667 12.0615 6.27851 12.4531 5.88913L14.1677 4.1845C14.9216 3.45887 15.9299 3.05746 16.9764 3.06656C18.0252 3.07567 19.0285 3.49635 19.7701 4.23798C20.5117 4.97961 20.9324 5.98286 20.9415 7.03165C20.9506 8.0777 20.5496 9.08557 19.8245 9.83934L16.831 12.8329C16.4255 13.2385 15.9374 13.5523 15.3999 13.7528C14.8625 13.9533 14.2883 14.0358 13.7162 13.9949C13.1441 13.9539 12.5875 13.7903 12.0841 13.5153C11.5808 13.2403 11.1424 12.8603 10.7989 12.401C10.4681 11.9587 9.84138 11.8684 9.39913 12.1992C8.95688 12.53 8.86653 13.1567 9.19734 13.5989C9.71268 14.2879 10.3702 14.858 11.1252 15.2705C11.8802 15.683 12.7152 15.9283 13.5733 15.9897C14.4315 16.0512 15.2928 15.9274 16.099 15.6267C16.9051 15.326 17.6371 14.8554 18.2453 14.2469L21.2452 11.2471L21.2574 11.2347C22.3503 10.1031 22.9551 8.58745 22.9414 7.01427C22.9278 5.44109 22.2968 3.93621 21.1843 2.82377C20.0719 1.71132 18.567 1.0803 16.9938 1.06663Z" fill="#141414"/>
<path d="M10.423 8.0102C9.56486 7.94874 8.70351 8.07256 7.8974 8.37326C7.09134 8.67395 6.35925 9.14458 5.75101 9.753L2.75114 12.7529L2.73896 12.7653C1.64601 13.8969 1.04124 15.4125 1.05491 16.9857C1.06858 18.5589 1.6996 20.0637 2.81205 21.1762C3.9245 22.2886 5.42937 22.9196 7.00255 22.9333C8.57573 22.947 10.0913 22.3422 11.223 21.2493L11.2354 21.2371L12.9454 19.5271C13.3359 19.1366 13.3359 18.5034 12.9454 18.1129C12.5548 17.7223 11.9217 17.7223 11.5311 18.1129L9.82761 19.8164C9.07384 20.5414 8.06598 20.9425 7.01993 20.9334C5.97114 20.9243 4.96789 20.5036 4.22626 19.762C3.48463 19.0203 3.06395 18.0171 3.05484 16.9683C3.04575 15.9222 3.4468 14.9144 4.17184 14.1606L7.16548 11.167C7.57099 10.7613 8.059 10.4476 8.59641 10.2471C9.13381 10.0467 9.70805 9.96412 10.2802 10.0051C10.8523 10.0461 11.4089 10.2096 11.9122 10.4846C12.4156 10.7596 12.8539 11.1397 13.1975 11.599C13.5283 12.0412 14.155 12.1316 14.5972 11.8007C15.0395 11.4699 15.1298 10.8433 14.799 10.401C14.2837 9.71205 13.6262 9.14198 12.8712 8.72948C12.1161 8.31697 11.2812 8.07166 10.423 8.0102Z" fill="#141414"/>
</svg>
