<svg width="24" height="24" viewBox="0 0 24 24" fill="none" xmlns="http://www.w3.org/2000/svg">
<path d="M17 8.00035H16V6.11035C16 5.04949 15.5786 4.03207 14.8284 3.28192C14.0783 2.53178 13.0609 2.11035 12 2.11035C10.9391 2.11035 9.92172 2.53178 9.17157 3.28192C8.42143 4.03207 8 5.04949 8 6.11035V8.00035H7C6.20435 8.00035 5.44129 8.31642 4.87868 8.87903C4.31607 9.44164 4 10.2047 4 11.0004V19.0004C4 19.796 4.31607 20.5591 4.87868 21.1217C5.44129 21.6843 6.20435 22.0004 7 22.0004H17C17.7956 22.0004 18.5587 21.6843 19.1213 21.1217C19.6839 20.5591 20 19.796 20 19.0004V11.0004C20 10.2047 19.6839 9.44164 19.1213 8.87903C18.5587 8.31642 17.7956 8.00035 17 8.00035ZM10 6.11035C9.98655 5.56565 10.1894 5.0378 10.5643 4.64235C10.9391 4.2469 11.4554 4.01606 12 4.00035C12.5446 4.01606 13.0609 4.2469 13.4357 4.64235C13.8106 5.0378 14.0135 5.56565 14 6.11035V8.00035H10V6.11035ZM18 19.0004C18 19.2656 17.8946 19.5199 17.7071 19.7075C17.5196 19.895 17.2652 20.0004 17 20.0004H7C6.73478 20.0004 6.48043 19.895 6.29289 19.7075C6.10536 19.5199 6 19.2656 6 19.0004V11.0004C6 10.7351 6.10536 10.4808 6.29289 10.2932C6.48043 10.1057 6.73478 10.0004 7 10.0004H17C17.2652 10.0004 17.5196 10.1057 17.7071 10.2932C17.8946 10.4808 18 10.7351 18 11.0004V19.0004Z" fill="#8A8A8A"/>
<path d="M12 12.0004C11.4067 12.0004 10.8266 12.1763 10.3333 12.5059C9.83994 12.8356 9.45542 13.3041 9.22836 13.8523C9.0013 14.4005 8.94189 15.0037 9.05764 15.5856C9.1734 16.1676 9.45912 16.7021 9.87868 17.1217C10.2982 17.5412 10.8328 17.827 11.4147 17.9427C11.9967 18.0585 12.5999 17.9991 13.1481 17.772C13.6962 17.5449 14.1648 17.1604 14.4944 16.6671C14.8241 16.1737 15 15.5937 15 15.0004C15 14.2047 14.6839 13.4416 14.1213 12.879C13.5587 12.3164 12.7956 12.0004 12 12.0004ZM12 16.0004C11.8022 16.0004 11.6089 15.9417 11.4444 15.8318C11.28 15.7219 11.1518 15.5658 11.0761 15.383C11.0004 15.2003 10.9806 14.9992 11.0192 14.8053C11.0578 14.6113 11.153 14.4331 11.2929 14.2932C11.4327 14.1534 11.6109 14.0582 11.8049 14.0196C11.9989 13.981 12.2 14.0008 12.3827 14.0765C12.5654 14.1522 12.7216 14.2803 12.8315 14.4448C12.9414 14.6092 13 14.8026 13 15.0004C13 15.2656 12.8946 15.5199 12.7071 15.7075C12.5196 15.895 12.2652 16.0004 12 16.0004Z" fill="#8A8A8A"/>
</svg>
