<svg width="24" height="24" viewBox="0 0 24 24" fill="none" xmlns="http://www.w3.org/2000/svg">
<path d="M20 6.00138H15V4.33138C14.9765 3.6912 14.7002 3.08644 14.2316 2.64967C13.7629 2.2129 13.1402 1.97977 12.5 2.00138H11.5C10.8598 1.97977 10.2371 2.2129 9.76843 2.64967C9.2998 3.08644 9.02346 3.6912 9 4.33138V6.00138H4C3.73478 6.00138 3.48043 6.10674 3.29289 6.29427C3.10536 6.48181 3 6.73616 3 7.00138C3 7.26659 3.10536 7.52095 3.29289 7.70849C3.48043 7.89602 3.73478 8.00138 4 8.00138H5V19.0014C5 19.797 5.31607 20.5601 5.87868 21.1227C6.44129 21.6853 7.20435 22.0014 8 22.0014H16C16.7956 22.0014 17.5587 21.6853 18.1213 21.1227C18.6839 20.5601 19 19.797 19 19.0014V8.00138H20C20.2652 8.00138 20.5196 7.89602 20.7071 7.70849C20.8946 7.52095 21 7.26659 21 7.00138C21 6.73616 20.8946 6.48181 20.7071 6.29427C20.5196 6.10674 20.2652 6.00138 20 6.00138ZM11 4.33138C11 4.17138 11.21 4.00138 11.5 4.00138H12.5C12.79 4.00138 13 4.17138 13 4.33138V6.00138H11V4.33138ZM17 19.0014C17 19.2666 16.8946 19.521 16.7071 19.7085C16.5196 19.896 16.2652 20.0014 16 20.0014H8C7.73478 20.0014 7.48043 19.896 7.29289 19.7085C7.10536 19.521 7 19.2666 7 19.0014V8.00138H17V19.0014Z" fill="#DA3443"/>
</svg>
