<svg width="24" height="24" viewBox="0 0 24 24" fill="none" xmlns="http://www.w3.org/2000/svg">
<path d="M20.0984 6.96167C19.5022 7.2267 18.8624 7.40643 18.1902 7.48668C18.8766 7.07439 19.402 6.42044 19.651 5.64361C19.0072 6.02541 18.2965 6.30265 17.5393 6.45294C16.9329 5.80407 16.0704 5.3999 15.1138 5.3999C13.2785 5.3999 11.7904 6.89263 11.7904 8.73265C11.7904 8.99361 11.8197 9.24849 11.8764 9.49222C9.11485 9.35309 6.66607 8.02589 5.02715 6.00916C4.74065 6.50066 4.57767 7.07335 4.57767 7.68468C4.57767 8.8413 5.16482 9.86184 6.05566 10.4589C5.51103 10.4406 4.9988 10.2904 4.55036 10.0405V10.0822C4.55036 11.6968 5.6963 13.0443 7.21576 13.351C6.93737 13.4261 6.64381 13.4677 6.34011 13.4677C6.12552 13.4677 5.91799 13.4464 5.71451 13.4058C6.13764 14.731 7.36458 15.6946 8.81827 15.7211C7.68143 16.6147 6.248 17.1458 4.69107 17.1458C4.42282 17.1458 4.15859 17.1295 3.89844 17.1001C5.36933 18.0475 7.11557 18.5999 8.99239 18.5999C15.1057 18.5999 18.4474 13.5206 18.4474 9.11549L18.4362 8.68392C19.0892 8.21678 19.654 7.62985 20.0984 6.96167Z" fill="#141414"/>
</svg>
