<svg width="24" height="24" viewBox="0 0 24 24" fill="none" xmlns="http://www.w3.org/2000/svg">
<path d="M7.95832 4.71433C7.80054 4.18506 7.24358 3.88391 6.71431 4.0417C5.89714 4.28531 5.20523 4.82856 4.72663 5.54646C4.249 6.2629 4 7.12607 4 8.00002C4 8.87397 4.249 9.73714 4.72663 10.4536C5.20523 11.1715 5.89714 11.7147 6.71431 11.9583C7.24358 12.1161 7.80054 11.815 7.95832 11.2857C8.1161 10.7564 7.81496 10.1995 7.28569 10.0417C6.95863 9.9442 6.63637 9.71264 6.39073 9.34417C6.14411 8.97425 6 8.5013 6 8.00002C6 7.49874 6.14411 7.02579 6.39073 6.65586C6.63637 6.2874 6.95863 6.05584 7.28569 5.95834C7.81496 5.80056 8.1161 5.2436 7.95832 4.71433Z" fill="#EEEFEF"/>
<path d="M17.2857 4.0417C16.7564 3.88391 16.1995 4.18506 16.0417 4.71433C15.8839 5.2436 16.185 5.80056 16.7143 5.95834C17.0414 6.05584 17.3636 6.2874 17.6093 6.65586C17.8559 7.02579 18 7.49874 18 8.00002C18 8.5013 17.8559 8.97425 17.6093 9.34417C17.3636 9.71264 17.0414 9.9442 16.7143 10.0417C16.185 10.1995 15.8839 10.7564 16.0417 11.2857C16.1995 11.815 16.7564 12.1161 17.2857 11.9583C18.1029 11.7147 18.7948 11.1715 19.2734 10.4536C19.751 9.73714 20 8.87397 20 8.00002C20 7.12607 19.751 6.2629 19.2734 5.54646C18.7948 4.82856 18.1029 4.28531 17.2857 4.0417Z" fill="#EEEFEF"/>
<path fill-rule="evenodd" clip-rule="evenodd" d="M8 8.00002C8 5.79088 9.79086 4.00002 12 4.00002C14.2091 4.00002 16 5.79088 16 8.00002C16 10.2092 14.2091 12 12 12C9.79086 12 8 10.2092 8 8.00002ZM12 6.00002C10.8954 6.00002 10 6.89545 10 8.00002C10 9.10459 10.8954 10 12 10C13.1046 10 14 9.10459 14 8.00002C14 6.89545 13.1046 6.00002 12 6.00002Z" fill="#EEEFEF"/>
<path d="M6.13539 14.3074C6.87542 13.4851 7.9031 13 9 13H15C16.0969 13 17.1246 13.4851 17.8646 14.3074C18.6015 15.1261 19 16.2161 19 17.3334V19C19 19.5523 18.5523 20 18 20C17.4477 20 17 19.5523 17 19V17.3334C17 16.6825 16.7663 16.0768 16.378 15.6453C15.9928 15.2173 15.4944 15 15 15H9C8.5056 15 8.00716 15.2173 7.62197 15.6453C7.23366 16.0768 7 16.6825 7 17.3334V19C7 19.5523 6.55228 20 6 20C5.44771 20 5 19.5523 5 19V17.3334C5 16.2161 5.39848 15.1261 6.13539 14.3074Z" fill="#EEEFEF"/>
<path d="M2.13539 14.3075C2.59638 13.7952 3.16901 13.4139 3.80045 13.1991C4.43907 12.9819 5 13.5469 5 14.2215C5 14.6515 4.63561 14.988 4.24736 15.1729C4.02124 15.2805 3.80835 15.4383 3.62197 15.6454C3.23366 16.0768 3 16.6826 3 17.3334V19.0001C3 19.5524 2.55228 20.0001 2 20.0001C1.44772 20.0001 1 19.5524 1 19.0001V17.3334C1 16.2162 1.39848 15.1262 2.13539 14.3075Z" fill="#EEEFEF"/>
<path d="M20.1995 13.1991C20.831 13.4139 21.4036 13.7952 21.8646 14.3075C22.6015 15.1262 23 16.2162 23 17.3334V19.0001C23 19.5524 22.5523 20.0001 22 20.0001C21.4477 20.0001 21 19.5524 21 19.0001V17.3334C21 16.6826 20.7663 16.0768 20.378 15.6454C20.1917 15.4383 19.9788 15.2805 19.7526 15.1729C19.3644 14.988 19 14.6515 19 14.2215C19 13.5469 19.5609 12.9819 20.1995 13.1991Z" fill="#EEEFEF"/>
</svg>
