<svg width="24" height="24" viewBox="0 0 24 24" fill="none" xmlns="http://www.w3.org/2000/svg">
<path fill-rule="evenodd" clip-rule="evenodd" d="M6.13539 14.3071C6.87542 13.4849 7.9031 12.9998 9 12.9998H15C16.0969 12.9998 17.1246 13.4849 17.8646 14.3071C18.6015 15.1259 19 16.2159 19 17.3331V18.9998C19 19.5521 18.5523 19.9998 18 19.9998C17.4477 19.9998 17 19.5521 17 18.9998V17.3331C17 16.6823 16.7663 16.0765 16.378 15.6451C15.9928 15.2171 15.4944 14.9998 15 14.9998H9C8.5056 14.9998 8.00716 15.2171 7.62197 15.6451C7.23366 16.0765 7 16.6823 7 17.3331V18.9998C7 19.5521 6.55228 19.9998 6 19.9998C5.44772 19.9998 5 19.5521 5 18.9998V17.3331C5 16.2159 5.39848 15.1259 6.13539 14.3071Z" fill="#EEEFEF"/>
<path fill-rule="evenodd" clip-rule="evenodd" d="M12 5.99977C10.8954 5.99977 10 6.89521 10 7.99977C10 9.10434 10.8954 9.99977 12 9.99977C13.1046 9.99977 14 9.10434 14 7.99977C14 6.89521 13.1046 5.99977 12 5.99977ZM8 7.99977C8 5.79064 9.79086 3.99977 12 3.99977C14.2091 3.99977 16 5.79064 16 7.99977C16 10.2089 14.2091 11.9998 12 11.9998C9.79086 11.9998 8 10.2089 8 7.99977Z" fill="#EEEFEF"/>
<path fill-rule="evenodd" clip-rule="evenodd" d="M19.0503 13.6865C19.2234 13.162 19.7888 12.8771 20.3133 13.0501C21.1467 13.325 21.8311 13.9265 22.2959 14.6926C22.7604 15.4582 22.9995 16.3735 23 17.2956V18.9998C23 19.5521 22.5523 19.9998 22 19.9998C21.4477 19.9998 21 19.5521 21 18.9998V17.2964M19.0503 13.6865C18.8773 14.211 19.1622 14.7764 19.6867 14.9494L19.0503 13.6865ZM19.6867 14.9494C19.9975 15.052 20.3268 15.3028 20.586 15.73L19.6867 14.9494ZM20.586 15.73C20.8454 16.1576 20.9996 16.7089 21 17.2964L20.586 15.73Z" fill="#EEEFEF"/>
<path fill-rule="evenodd" clip-rule="evenodd" d="M4.94966 13.6865C4.77663 13.162 4.21119 12.8771 3.68671 13.0501C2.85333 13.325 2.16894 13.9265 1.70414 14.6926C1.23965 15.4582 1.00054 16.3735 1 17.2956V18.9998C1 19.5521 1.44772 19.9998 2 19.9998C2.55228 19.9998 3 19.5521 3 18.9998V17.2964M4.94966 13.6865C5.12268 14.211 4.83777 14.7764 4.31329 14.9494L4.94966 13.6865ZM4.31329 14.9494C4.00249 15.052 3.67322 15.3028 3.41404 15.73L4.31329 14.9494ZM3.41404 15.73C3.15463 16.1576 3.00044 16.7089 3 17.2964L3.41404 15.73Z" fill="#EEEFEF"/>
<path fill-rule="evenodd" clip-rule="evenodd" d="M16.0417 4.71408C16.1995 4.18482 16.7564 3.88367 17.2857 4.04145C18.1029 4.28506 18.7948 4.82832 19.2734 5.54622C19.751 6.26266 20 7.12582 20 7.99977C20 8.87373 19.751 9.73689 19.2734 10.4533C18.7948 11.1712 18.1029 11.7145 17.2857 11.9581C16.7564 12.1159 16.1995 11.8147 16.0417 11.2855C15.8839 10.7562 16.185 10.1992 16.7143 10.0415C17.0414 9.94395 17.3636 9.71239 17.6093 9.34393C17.8559 8.97401 18 8.50105 18 7.99977C18 7.49849 17.8559 7.02554 17.6093 6.65562C17.3636 6.28716 17.0414 6.0556 16.7143 5.9581C16.185 5.80031 15.8839 5.24335 16.0417 4.71408Z" fill="#EEEFEF"/>
<path fill-rule="evenodd" clip-rule="evenodd" d="M7.95832 4.71408C7.80054 4.18482 7.24358 3.88367 6.71431 4.04145C5.89714 4.28506 5.20523 4.82832 4.72663 5.54622C4.249 6.26266 4 7.12582 4 7.99977C4 8.87373 4.249 9.73689 4.72663 10.4533C5.20523 11.1712 5.89714 11.7145 6.71431 11.9581C7.24358 12.1159 7.80054 11.8147 7.95832 11.2855C8.1161 10.7562 7.81496 10.1992 7.28569 10.0415C6.95863 9.94395 6.63637 9.71239 6.39073 9.34393C6.14411 8.97401 6 8.50105 6 7.99977C6 7.49849 6.14411 7.02554 6.39073 6.65562C6.63637 6.28716 6.95863 6.0556 7.28569 5.9581C7.81496 5.80031 8.1161 5.24335 7.95832 4.71408Z" fill="#EEEFEF"/>
</svg>
