<svg width="24" height="24" viewBox="0 0 24 24" fill="none" xmlns="http://www.w3.org/2000/svg">
<path fill-rule="evenodd" clip-rule="evenodd" d="M10.4943 8.13074C10.1847 7.9547 9.80493 7.95655 9.49712 8.13561C9.1893 8.31466 8.99993 8.6439 8.99993 9V15.54C8.99993 15.8961 9.1893 16.2253 9.49712 16.4044C9.80493 16.5834 10.1847 16.5853 10.4943 16.4093L16.2443 13.1393C16.5569 12.9615 16.7499 12.6296 16.7499 12.27C16.7499 11.9104 16.5569 11.5785 16.2443 11.4007L10.4943 8.13074ZM13.7271 12.27L10.9999 13.8209V10.7191L13.7271 12.27Z" fill="#EEEFEF"/>
<path fill-rule="evenodd" clip-rule="evenodd" d="M12.0802 3.0001L12.0004 3L11.9206 3.00011C11.869 3.00023 11.7934 3.00046 11.6968 3.00091C11.5036 3.00182 11.2261 3.00363 10.8879 3.00724C10.2119 3.01448 9.29153 3.02895 8.3158 3.05794C7.34168 3.08689 6.3044 3.13054 5.39713 3.19671C4.51783 3.26085 3.67579 3.35123 3.14214 3.49395L3.12827 3.49777C2.48818 3.67886 1.90722 4.02566 1.44406 4.50315C0.9809 4.98063 0.651949 5.57189 0.490431 6.21719C0.48502 6.23881 0.480334 6.2606 0.476379 6.28253C0.151071 8.08643 -0.00822416 9.91636 0.000490099 11.7493C-0.0107603 13.5961 0.17216 15.98 0.5 17.7975C0.505858 17.83 0.51332 17.8622 0.522359 17.8939C0.700426 18.5192 1.03675 19.0879 1.49883 19.5452C1.96091 20.0026 2.53312 20.333 3.1602 20.5046L3.16576 20.5061C3.6994 20.6488 4.54145 20.7392 5.42075 20.8033C6.32801 20.8695 7.36529 20.9131 8.33941 20.9421C9.31514 20.9711 10.2356 20.9855 10.9115 20.9928C11.2497 20.9964 11.5272 20.9982 11.7204 20.9991C11.8171 20.9995 11.8926 20.9998 11.9442 20.9999L12.0246 21L12.104 20.9999C12.1556 20.9998 12.2312 20.9995 12.3278 20.9991C12.521 20.9982 12.7985 20.9964 13.1367 20.9928C13.8127 20.9855 14.7331 20.9711 15.7088 20.9421C16.6829 20.9131 17.7202 20.8695 18.6275 20.8033C19.5068 20.7392 20.3488 20.6488 20.8825 20.5061L20.8964 20.5022C21.5364 20.3211 22.1174 19.9743 22.5806 19.4969C23.0437 19.0194 23.3727 18.4281 23.5342 17.7828C23.5396 17.7612 23.5443 17.7394 23.5483 17.7174C23.8711 15.9269 24.0068 13.5707 24.0005 11.7513C24.0118 9.90432 23.8525 8.06021 23.5246 6.24249L23.5106 6.17719C23.3491 5.53189 23.0201 4.94063 22.557 4.46315C22.0938 3.98566 21.5128 3.63886 20.8727 3.45777C20.8611 3.45448 20.8494 3.45141 20.8377 3.44854C20.312 3.32017 19.4772 3.23798 18.5976 3.1794C17.6921 3.11909 16.6562 3.07928 15.6826 3.05287C14.7076 3.02641 13.7878 3.01321 13.1121 3.00661C12.7741 3.00331 12.4968 3.00166 12.3038 3.00083C12.2072 3.00042 12.1317 3.00021 12.0802 3.0001ZM11.925 5.00011L12.0005 5L12.0762 5.0001L12.2952 5.00081C12.4851 5.00162 12.7587 5.00325 13.0926 5.00651C13.7607 5.01304 14.6684 5.02609 15.6284 5.05213C16.5898 5.07822 17.5964 5.11716 18.4647 5.17498C19.3431 5.23348 20.0055 5.3072 20.3454 5.38717C20.6401 5.47373 20.9074 5.63509 21.1214 5.85566C21.3325 6.07333 21.4844 6.3412 21.5629 6.63377C21.8648 8.32008 22.0112 10.0306 22.0005 11.7437L22.0005 11.7536C22.0066 13.4409 21.8837 15.6653 21.5865 17.3263C21.508 17.6188 21.3561 17.8867 21.145 18.1043C20.9285 18.3275 20.6575 18.49 20.3588 18.5758C20.03 18.6624 19.3701 18.7438 18.482 18.8086C17.6155 18.8718 16.6103 18.9144 15.6494 18.9429C14.6901 18.9714 13.7831 18.9857 13.1153 18.9929C12.7816 18.9964 12.5082 18.9982 12.3184 18.9991C12.2235 18.9996 12.1496 18.9998 12.0996 18.9999H11.9486C11.8986 18.9998 11.8247 18.9996 11.7298 18.9991C11.5401 18.9982 11.2666 18.9964 10.9329 18.9929C10.2652 18.9857 9.35809 18.9714 8.39882 18.9429C7.43795 18.9144 6.43272 18.8718 5.56624 18.8086C4.67431 18.7435 4.01258 18.6617 3.68526 18.5747C3.39106 18.4937 3.12261 18.3384 2.9057 18.1237C2.69865 17.9188 2.54522 17.6664 2.45859 17.3887C2.15882 15.7081 1.98983 13.4635 2.00055 11.7563L2.00049 11.7451C1.99209 10.0448 2.13858 8.34737 2.43811 6.67375C2.5166 6.38119 2.66851 6.11333 2.87964 5.89566C3.09608 5.67253 3.36716 5.51 3.66586 5.42419C3.99463 5.33761 4.65452 5.25619 5.54263 5.19141C6.40911 5.12821 7.41433 5.08561 8.37521 5.05706C9.33448 5.02855 10.2416 5.01427 10.9093 5.00713C11.243 5.00356 11.5165 5.00178 11.7062 5.00089C11.8011 5.00044 11.875 5.00022 11.925 5.00011Z" fill="#EEEFEF"/>
</svg>
