<svg width="24" height="24" viewBox="0 0 24 24" fill="none" xmlns="http://www.w3.org/2000/svg">
<path d="M3 1.44C3 0.644623 3.64462 0 4.44 0H15L21 5.03999V22.56C21 23.3554 20.3554 24 19.56 24H4.44C3.64462 24 3 23.3554 3 22.56V1.44Z" fill="#42A5F5"/>
<path d="M15 0V3.59998C15 4.39537 15.6446 5.03999 16.44 5.03999H21" fill="#1E88E5"/>
<path d="M7.04318 16.9425H5.63281V11.7439H6.95318C8.28854 11.7439 9.56394 12.1714 9.56394 14.3175C9.56394 16.4318 8.34104 16.9425 7.04318 16.9425ZM7.13318 12.6439H6.87818V16.0425H7.13318C7.8157 16.0425 8.27316 15.675 8.27316 14.3168C8.27355 12.9296 7.78607 12.6439 7.13318 12.6439Z" fill="white"/>
<path d="M11.9998 17.0701C10.6344 17.0701 9.91406 16.028 9.91406 14.3401C9.91406 12.6897 10.6344 11.6094 11.9998 11.6094C13.3652 11.6094 14.0852 12.6522 14.0852 14.3401C14.0852 15.9898 13.3652 17.0701 11.9998 17.0701ZM11.9998 12.5165C11.422 12.5165 11.1898 13.0643 11.1898 14.3397C11.1898 15.6143 11.4298 16.1622 11.9998 16.1622C12.5923 16.1622 12.8099 15.5997 12.8099 14.3397C12.8099 13.0644 12.577 12.5165 11.9998 12.5165Z" fill="white"/>
<path d="M18.0013 12.9065C17.7163 12.674 17.4159 12.5311 17.0188 12.5311C16.3067 12.5311 15.7959 13.064 15.7959 14.3319C15.7959 15.5772 16.2763 16.1094 16.9892 16.1094C17.4988 16.1094 17.8221 15.899 18.1142 15.6744L18.6767 16.3943C18.2942 16.7618 17.7313 17.0697 16.9063 17.0697C15.4738 17.0697 14.498 16.1168 14.498 14.3314C14.498 12.5907 15.5409 11.6082 16.9288 11.6082C17.6788 11.6082 18.1734 11.8335 18.6084 12.186L18.0013 12.9065Z" fill="white"/>
</svg>
