<svg width="24" height="24" viewBox="0 0 24 24" fill="none" xmlns="http://www.w3.org/2000/svg">
<path d="M3 1.44C3 0.644623 3.64462 0 4.44 0H15L21 5.03999V22.56C21 23.3554 20.3554 24 19.56 24H4.44C3.64462 24 3 23.3554 3 22.56V1.44Z" fill="#58BD88"/>
<path d="M15 0V3.59998C15 4.39537 15.6446 5.03999 16.44 5.03999H21" fill="#009466"/>
<path d="M8.66983 12.0864V15.6587C8.66983 15.8892 8.63142 16.1005 8.5546 16.2925C8.48257 16.4798 8.37454 16.6406 8.2305 16.7751C8.08645 16.9047 7.9112 17.0079 7.70473 17.0848C7.50307 17.1568 7.2726 17.1928 7.01332 17.1928C6.76364 17.1928 6.54278 17.1592 6.35072 17.092C6.16346 17.0247 6.00021 16.9287 5.86097 16.8039C5.72653 16.679 5.61609 16.5302 5.52966 16.3573C5.44324 16.1845 5.38322 15.9924 5.34961 15.7812L6.37232 15.5795C6.45395 16.0164 6.66281 16.2349 6.99892 16.2349C7.15737 16.2349 7.29181 16.1845 7.40224 16.0837C7.51748 15.9828 7.57509 15.8244 7.57509 15.6083V12.9651H6.04822V12.0864H8.66983Z" fill="white"/>
<path d="M9.74724 17.1136V12.0864H12.124C12.3592 12.0864 12.5705 12.1272 12.7578 12.2089C12.945 12.2857 13.1035 12.3937 13.2331 12.533C13.3676 12.6722 13.4708 12.8427 13.5428 13.0443C13.6148 13.2412 13.6508 13.4572 13.6508 13.6925C13.6508 13.9326 13.6148 14.1511 13.5428 14.3479C13.4708 14.5448 13.3676 14.7128 13.2331 14.8521C13.1035 14.9913 12.945 15.1018 12.7578 15.1834C12.5705 15.2602 12.3592 15.2986 12.124 15.2986H10.842V17.1136H9.74724ZM10.842 14.3479H11.9943C12.1576 14.3479 12.2848 14.3071 12.376 14.2255C12.4721 14.1391 12.5201 14.0142 12.5201 13.851V13.5341C12.5201 13.3708 12.4721 13.2484 12.376 13.1668C12.2848 13.0803 12.1576 13.0371 11.9943 13.0371H10.842V14.3479Z" fill="white"/>
<path d="M17.6643 16.3141H17.6283C17.5898 16.5686 17.4602 16.7799 17.2393 16.9479C17.0185 17.116 16.7184 17.2 16.3391 17.2C16.051 17.2 15.7821 17.1448 15.5324 17.0343C15.2827 16.9239 15.0643 16.7607 14.877 16.5446C14.6898 16.3285 14.5433 16.0596 14.4377 15.7379C14.332 15.4163 14.2792 15.0441 14.2792 14.6216C14.2792 14.1991 14.3344 13.8246 14.4449 13.4981C14.5553 13.1716 14.709 12.8979 14.9058 12.677C15.1075 12.4561 15.3476 12.2881 15.626 12.1729C15.9045 12.0576 16.2142 12 16.5551 12C17.0065 12 17.3954 12.0984 17.7219 12.2953C18.0484 12.4874 18.3053 12.7778 18.4925 13.1668L17.5995 13.6781C17.5226 13.4813 17.4026 13.3156 17.2393 13.1812C17.0761 13.0419 16.848 12.9723 16.5551 12.9723C16.2142 12.9723 15.9429 13.0707 15.7413 13.2676C15.5396 13.4645 15.4388 13.7741 15.4388 14.1967V15.0033C15.4388 15.4211 15.5396 15.7307 15.7413 15.9324C15.9429 16.1293 16.2142 16.2277 16.5551 16.2277C16.6896 16.2277 16.8168 16.2133 16.9368 16.1845C17.0569 16.1509 17.1625 16.1029 17.2537 16.0404C17.345 15.9732 17.4146 15.894 17.4626 15.8028C17.5154 15.7115 17.5418 15.6035 17.5418 15.4787V15.2266H16.6055V14.3119H18.5862V17.1136H17.6643V16.3141Z" fill="white"/>
</svg>
