<svg width="24" height="24" viewBox="0 0 24 24" fill="none" xmlns="http://www.w3.org/2000/svg">
<path d="M3 1.44C3 0.644623 3.64462 0 4.44 0H15L21 5.03999V22.56C21 23.3554 20.3554 24 19.56 24H4.44C3.64462 24 3 23.3554 3 22.56V1.44Z" fill="#EF5350"/>
<path d="M15 0V3.59998C15 4.39537 15.6446 5.03999 16.44 5.03999H21" fill="#D32F2F"/>
<path d="M7.51489 15.4732H6.9524V17.1986H5.70703V12H7.34989C8.76777 12 9.57775 12.555 9.57775 13.6954C9.5774 14.9186 8.74491 15.4732 7.51489 15.4732ZM7.36493 12.885H6.95245V14.5729H7.40995C7.97244 14.5729 8.29493 14.3025 8.29493 13.695C8.29493 13.1479 7.98744 12.885 7.36493 12.885Z" fill="white"/>
<path d="M11.5432 17.1986H10.1328V12H11.4532C12.7889 12 14.0636 12.4275 14.0636 14.5736C14.0636 16.6879 12.8407 17.1986 11.5432 17.1986ZM11.6328 12.9H11.3778V16.2986H11.6328C12.3154 16.2986 12.7728 15.9311 12.7728 14.5729C12.7736 13.1858 12.2857 12.9 11.6328 12.9Z" fill="white"/>
<path d="M16.2295 12.885V14.2507H18.0448V15.1432H16.2295V17.1986H14.9766V12H18.4048L18.2773 12.885H16.2295Z" fill="white"/>
</svg>
