<svg width="24" height="24" viewBox="0 0 24 24" fill="none" xmlns="http://www.w3.org/2000/svg">
<path d="M3 1.44C3 0.644623 3.64462 0 4.44 0H15L21 5.03999V22.56C21 23.3554 20.3554 24 19.56 24H4.44C3.64462 24 3 23.3554 3 22.56V1.44Z" fill="#DBB471"/>
<path d="M15 0V3.59998C15 4.39537 15.6446 5.03999 16.44 5.03999H21" fill="#B88128"/>
<path d="M5.07812 17.1136V12.0864H7.45486C7.69013 12.0864 7.90139 12.1272 8.08865 12.2089C8.27591 12.2857 8.43436 12.3937 8.564 12.533C8.69844 12.6722 8.80167 12.8427 8.87369 13.0443C8.94571 13.2412 8.98173 13.4572 8.98173 13.6925C8.98173 13.9326 8.94571 14.1511 8.87369 14.3479C8.80167 14.5448 8.69844 14.7128 8.564 14.8521C8.43436 14.9913 8.27591 15.1018 8.08865 15.1834C7.90139 15.2602 7.69013 15.2986 7.45486 15.2986H6.17286V17.1136H5.07812ZM6.17286 14.3479H7.32522C7.48847 14.3479 7.61571 14.3071 7.70693 14.2255C7.80296 14.1391 7.85098 14.0142 7.85098 13.851V13.5341C7.85098 13.3708 7.80296 13.2484 7.70693 13.1668C7.61571 13.0803 7.48847 13.0371 7.32522 13.0371H6.17286V14.3479Z" fill="white"/>
<path d="M11.3387 14.7368L10.8561 13.7285H10.8345V17.1136H9.80458V12.0864H11.0001L12.3758 14.4632L12.8583 15.4715H12.8799V12.0864H13.9098V17.1136H12.7143L11.3387 14.7368Z" fill="white"/>
<path d="M18.2069 16.3141H18.1709C18.1325 16.5686 18.0029 16.7799 17.782 16.9479C17.5611 17.116 17.261 17.2 16.8817 17.2C16.5936 17.2 16.3247 17.1448 16.0751 17.0343C15.8254 16.9239 15.6069 16.7607 15.4197 16.5446C15.2324 16.3285 15.086 16.0596 14.9803 15.7379C14.8747 15.4163 14.8219 15.0441 14.8219 14.6216C14.8219 14.1991 14.8771 13.8246 14.9875 13.4981C15.098 13.1716 15.2516 12.8979 15.4485 12.677C15.6501 12.4561 15.8902 12.2881 16.1687 12.1729C16.4472 12.0576 16.7569 12 17.0978 12C17.5491 12 17.938 12.0984 18.2645 12.2953C18.591 12.4874 18.8479 12.7778 19.0352 13.1668L18.1421 13.6781C18.0653 13.4813 17.9452 13.3156 17.782 13.1812C17.6187 13.0419 17.3907 12.9723 17.0978 12.9723C16.7569 12.9723 16.4856 13.0707 16.2839 13.2676C16.0823 13.4645 15.9814 13.7741 15.9814 14.1967V15.0033C15.9814 15.4211 16.0823 15.7307 16.2839 15.9324C16.4856 16.1293 16.7569 16.2277 17.0978 16.2277C17.2322 16.2277 17.3595 16.2133 17.4795 16.1845C17.5995 16.1509 17.7052 16.1029 17.7964 16.0404C17.8876 15.9732 17.9572 15.894 18.0053 15.8028C18.0581 15.7115 18.0845 15.6035 18.0845 15.4787V15.2266H17.1482V14.3119H19.1288V17.1136H18.2069V16.3141Z" fill="white"/>
</svg>
