<svg width="24" height="24" viewBox="0 0 24 24" fill="none" xmlns="http://www.w3.org/2000/svg">
<path d="M3 1.44C3 0.644623 3.64462 0 4.44 0H15L21 5.03999V22.56C21 23.3554 20.3554 24 19.56 24H4.44C3.64462 24 3 23.3554 3 22.56V1.44Z" fill="white"/>
<path d="M15 0V3.59998C15 4.39537 15.6446 5.03999 16.44 5.03999H21" fill="#8A8A8A"/>
<path d="M8.11713 12.9529V17.199H6.87176V12.9529H5.41602V12H9.63214L9.50424 12.9529H8.11713Z" fill="#00C688"/>
<path d="M9.87037 12.0005H11.2282L11.9707 13.6212H12.0007L12.7886 12.0005H14.109L12.7128 14.3866L14.2361 17.1991H12.8782L11.9857 15.2713H11.9557L11.0853 17.1991H9.75781L11.2282 14.4388L9.87037 12.0005Z" fill="#00C688"/>
<path d="M17.1172 12.9529V17.199H15.8722V12.9529H14.416V12H18.6325L18.5043 12.9529H17.1172Z" fill="#00C688"/>
</svg>
