<svg width="24" height="24" viewBox="0 0 24 24" fill="none" xmlns="http://www.w3.org/2000/svg">
<path d="M3 1.44C3 0.644623 3.64462 0 4.44 0H15L21 5.03999V22.56C21 23.3554 20.3554 24 19.56 24H4.44C3.64462 24 3 23.3554 3 22.56V1.44Z" fill="#26A69A"/>
<path d="M15 0V3.59998C15 4.39537 15.6446 5.03999 16.44 5.03999H21" fill="#00897B"/>
<path d="M5.37032 11.7439H6.7282L7.47069 13.3646H7.50067L8.28818 11.7439H9.60855L8.21318 14.13L9.73605 16.9425H8.37818L7.48568 15.0147H7.4557L6.58531 16.9425H5.25781L6.7282 14.1822L5.37032 11.7439Z" fill="white"/>
<path d="M10.4414 16.9425V11.7439H11.6868V15.9604H13.9372L13.8093 16.9425H10.4414V16.9425Z" fill="white"/>
<path d="M16.4118 17.0699C15.4664 17.0699 14.7619 16.7403 14.334 16.3199L14.964 15.6228C15.3469 15.9602 15.8122 16.1478 16.3672 16.1478C16.8768 16.1478 17.2219 15.9149 17.2219 15.517C17.2219 15.142 17.0044 14.9774 16.2843 14.7516C15.0915 14.3766 14.6344 13.9041 14.6344 13.1238C14.6344 12.1634 15.519 11.6084 16.5994 11.6084C17.3876 11.6084 18.0019 11.8559 18.4522 12.2834L17.8669 12.9588C17.5144 12.6666 17.1015 12.5238 16.6965 12.5238C16.2315 12.5238 15.9233 12.6966 15.9233 13.0262C15.9233 13.3562 16.1561 13.4837 16.9511 13.7383C17.9415 14.0608 18.519 14.4658 18.519 15.4187C18.5197 16.3945 17.7251 17.0699 16.4118 17.0699Z" fill="white"/>
</svg>
