<svg width="24" height="24" viewBox="0 0 24 24" fill="none" xmlns="http://www.w3.org/2000/svg">
<path d="M3 1.44C3 0.644623 3.64462 0 4.44 0H15L21 5.03999V22.56C21 23.3554 20.3554 24 19.56 24H4.44C3.64462 24 3 23.3554 3 22.56V1.44Z" fill="#F0B72B"/>
<path d="M15 0V3.59998C15 4.39537 15.6446 5.03999 16.44 5.03999H21" fill="#FB8C00"/>
<path d="M7.02898 15.9529H9.44436L9.31686 16.9429H5.55859V16.0129L7.98149 12.705H5.79113V11.7446H9.39938V12.6822L7.02898 15.9529Z" fill="white"/>
<path d="M10.3066 11.7441H13.6974V12.6513H12.6249V16.0274H13.6974V16.9424H10.3066V16.0274H11.3795V12.6513H10.3066V11.7441Z" fill="white"/>
<path d="M16.5168 15.2174H15.9544V16.9427H14.709V11.7441H16.3518C17.7697 11.7441 18.5797 12.2992 18.5797 13.4395C18.5794 14.6627 17.7469 15.2174 16.5168 15.2174ZM16.3672 12.6291H15.9544V14.317H16.4119C16.9744 14.317 17.2968 14.0466 17.2968 13.4391C17.2969 12.892 16.9893 12.6291 16.3672 12.6291Z" fill="white"/>
</svg>
