<svg width="154" height="24" viewBox="0 0 154 24" fill="none" xmlns="http://www.w3.org/2000/svg">
<path d="M0 11.9671C0 5.38453 5.38716 0 11.9729 0C18.5587 0 23.9459 5.38453 23.9459 11.9671C23.9459 18.6155 18.5587 23.9605 11.9729 23.9605C5.38716 23.9605 0 18.6155 0 11.9671ZM10.2079 17.5359V13.7575H13.6325C15.661 13.7575 17.5445 12.3225 17.5445 9.93966C17.5445 7.59627 15.6478 6.12178 13.6325 6.12178H7.86341V17.5359H10.2079ZM10.1816 8.30719H13.6062C14.3833 8.30719 15.2658 8.79429 15.2658 9.93966C15.2658 11.1508 14.3833 11.5985 13.6062 11.5985H10.1816V8.30719Z" fill="#58BD88"/>
<path d="M26.0005 12.0061C26.0005 5.42359 31.3876 0.0390625 37.9734 0.0390625C44.5592 0.0390625 49.9464 5.42359 49.9464 12.0061C49.9464 18.6545 44.5592 23.9996 37.9734 23.9996C31.3876 23.9996 26.0005 18.6545 26.0005 12.0061ZM42.241 17.575V15.3896H36.3401V6.17401H33.9956V17.5882H42.241V17.575Z" fill="#DA3443"/>
<path d="M51.9355 12.0061C51.9355 5.42359 57.3227 0.0390625 63.9085 0.0390625C70.4943 0.0390625 75.8814 5.42359 75.8814 12.0061C75.8814 18.6545 70.4943 23.9996 63.9085 23.9996C57.3227 23.9996 51.9355 18.6545 51.9355 12.0061ZM59.8648 17.575L60.8395 15.3633H66.9379L67.9126 17.575H70.5601L65.41 6.16084H62.3147L57.3227 17.575H59.8648ZM63.9348 8.31992L66.0554 13.2042H61.7879L63.9348 8.31992Z" fill="#DBB471"/>
<path d="M77.936 12.0061C77.936 5.42359 83.3232 0.0390625 89.909 0.0390625C96.4947 0.0390625 101.882 5.42359 101.882 12.0061C101.882 18.6545 96.4947 23.9996 89.909 23.9996C83.3232 23.9996 77.936 18.6545 77.936 12.0061ZM86.9454 17.575V8.84652L93.2018 17.5487H95.1644V6.17401H92.8857V13.2832L87.8015 6.17401H84.6667V17.5882H86.9454V17.575Z" fill="#EFE6DB"/>
<path d="M103.871 12.0061C103.871 5.42359 109.258 0.0390625 115.844 0.0390625C122.43 0.0390625 127.817 5.42359 127.817 12.0061C127.817 18.6545 122.43 23.9996 115.844 23.9996C109.258 23.9996 103.871 18.6545 103.871 12.0061ZM120.48 17.575V15.3896H113.855V12.8882H119.071V10.7028H113.855V8.34625H119.953V6.17401H111.471V17.5882H120.48V17.575Z" fill="#EAA533"/>
<path d="M129.845 12.0061C129.845 5.42359 135.232 0.0390625 141.818 0.0390625C148.404 0.0390625 153.791 5.42359 153.791 12.0061C153.791 18.6545 148.404 23.9996 141.818 23.9996C135.219 23.9996 129.845 18.6545 129.845 12.0061ZM142.99 17.575V8.34625H147.166V6.17401H136.471V8.35941H140.646V17.5882H142.99V17.575Z" fill="#3A84D9"/>
</svg>
