<svg width="24" height="24" viewBox="0 0 24 24" fill="none" xmlns="http://www.w3.org/2000/svg">
<path d="M9.28987 21.0011C8.46369 20.9972 7.64656 20.8289 6.88602 20.5061C6.12548 20.1834 5.43674 19.7126 4.85987 19.1211C4.28734 18.5785 3.82743 17.9283 3.50646 17.2077C3.18548 16.4871 3.00975 15.7103 2.98932 14.9218C2.96888 14.1332 3.10415 13.3483 3.38737 12.6121C3.67059 11.8759 4.09621 11.2027 4.63987 10.6311L11.9999 3.20113C12.3929 2.80881 12.8614 2.50021 13.377 2.29396C13.8926 2.08771 14.4447 1.9881 14.9999 2.00113C15.5946 2.00316 16.1829 2.12357 16.7306 2.35535C17.2783 2.58713 17.7744 2.92564 18.1899 3.35113C19.0169 4.14737 19.4965 5.23765 19.5245 6.38531C19.5526 7.53297 19.1269 8.6454 18.3399 9.48113L10.9399 16.9111C10.7029 17.1498 10.4208 17.3389 10.1101 17.4677C9.79939 17.5964 9.4662 17.6622 9.12987 17.6611C8.76655 17.6616 8.40681 17.5893 8.07189 17.4485C7.73698 17.3076 7.43367 17.1011 7.17987 16.8411C6.6726 16.35 6.37965 15.6785 6.36467 14.9726C6.34969 14.2667 6.61389 13.5834 7.09987 13.0711L13.9299 6.21113C14.1243 6.08204 14.3577 6.02498 14.5897 6.04985C14.8217 6.07471 15.0377 6.17994 15.2003 6.34729C15.3629 6.51465 15.4619 6.7336 15.4801 6.96624C15.4983 7.19888 15.4345 7.43054 15.2999 7.62113L8.46987 14.4811C8.35598 14.6183 8.30055 14.7948 8.31551 14.9725C8.33047 15.1502 8.41464 15.3149 8.54987 15.4311C8.69059 15.5728 8.88028 15.6551 9.07987 15.6611C9.15381 15.6622 9.22722 15.6486 9.29588 15.6211C9.36453 15.5937 9.42706 15.5529 9.47987 15.5011L16.8699 8.07113C17.2847 7.61031 17.5015 7.00476 17.4734 6.38538C17.4454 5.766 17.1747 5.18254 16.7199 4.76113C16.2975 4.32257 15.723 4.06259 15.1148 4.03469C14.5065 4.00679 13.9107 4.21309 13.4499 4.61113L6.05987 12.0011C5.70052 12.3871 5.42103 12.8403 5.2375 13.3347C5.05397 13.8291 4.97001 14.3549 4.99046 14.8819C5.0109 15.4089 5.13535 15.9266 5.35664 16.4053C5.57793 16.884 5.89169 17.3142 6.27987 17.6711C6.66915 18.0747 7.13494 18.3966 7.65004 18.6181C8.16513 18.8396 8.7192 18.9562 9.27987 18.9611C9.76329 18.9651 10.2427 18.8734 10.6906 18.6915C11.1385 18.5096 11.5461 18.241 11.8899 17.9011L19.2799 10.4711C19.3725 10.3779 19.4825 10.3038 19.6037 10.2531C19.7249 10.2024 19.8549 10.176 19.9863 10.1756C20.1177 10.1751 20.2479 10.2005 20.3695 10.2504C20.4911 10.3002 20.6016 10.3736 20.6949 10.4661C20.7881 10.5587 20.8622 10.6688 20.9129 10.79C20.9636 10.9112 20.99 11.0412 20.9904 11.1726C20.9909 11.304 20.9655 11.4342 20.9156 11.5558C20.8658 11.6773 20.7925 11.7879 20.6999 11.8811L13.3099 19.3111C12.7852 19.8451 12.1596 20.2695 11.4695 20.5596C10.7794 20.8497 10.0385 20.9998 9.28987 21.0011Z" fill="#00C688"/>
</svg>
