<svg width="481" height="541" viewBox="0 0 481 541" fill="none" xmlns="http://www.w3.org/2000/svg">
<path d="M0 90.8536C0 40.8635 40.8385 0 90.798 0C140.758 0 181.596 40.8635 181.596 90.8536C181.596 141.374 140.758 182.002 90.798 182.002C40.8385 182.002 0 141.374 0 90.8536ZM77.4402 133.189V104.455H103.45C118.808 104.455 133.167 93.5621 133.167 75.4856C133.167 57.6446 118.808 46.5161 103.45 46.5161H59.669V133.189H77.4402ZM77.2048 63.1206H103.214C109.158 63.1206 115.807 66.8301 115.807 75.4856C115.807 84.6711 109.099 88.0862 103.214 88.0862H77.2048V63.1206Z" fill="#59BD88"/>
<path d="M374.02 367.418H273.806L223.729 454.209L273.806 541H374.02L424.097 454.209L374.02 367.418Z" fill="#EAA534"/>
<path d="M266.98 182.002H90.798V358.292H266.98V182.002Z" fill="#3641D9"/>
<path d="M374.02 182.002H481L427.51 274.681L374.02 367.419L320.529 274.681L267.039 182.002H374.02Z" fill="#DA3443"/>
</svg>
