<svg width="24" height="24" viewBox="0 0 24 24" fill="none" xmlns="http://www.w3.org/2000/svg">
<path d="M20.52 15.2099L18.72 13.3999V8.93989C18.744 7.28372 18.1679 5.6748 17.0981 4.41023C16.0284 3.14566 14.5372 2.31083 12.9 2.05989C11.9498 1.93476 10.9839 2.01371 10.0666 2.29147C9.14936 2.56923 8.30188 3.03942 7.58074 3.67066C6.85959 4.30189 6.28136 5.07967 5.88462 5.95209C5.48788 6.82451 5.28176 7.7715 5.28001 8.72989V13.3999L3.48001 15.2099C3.25392 15.4398 3.1006 15.7312 3.03921 16.0477C2.97783 16.3642 3.01111 16.6918 3.13489 16.9895C3.25867 17.2872 3.46746 17.5419 3.73516 17.7216C4.00286 17.9013 4.31759 17.9981 4.64001 17.9999H8.00001V18.3399C8.04672 19.3551 8.49396 20.3104 9.24374 20.9964C9.99351 21.6825 10.9847 22.0433 12 21.9999C13.0154 22.0433 14.0065 21.6825 14.7563 20.9964C15.5061 20.3104 15.9533 19.3551 16 18.3399V17.9999H19.36C19.6824 17.9981 19.9972 17.9013 20.2649 17.7216C20.5326 17.5419 20.7414 17.2872 20.8651 16.9895C20.9889 16.6918 21.0222 16.3642 20.9608 16.0477C20.8994 15.7312 20.7461 15.4398 20.52 15.2099ZM14 18.3399C13.9446 18.8209 13.7057 19.262 13.3331 19.5712C12.9605 19.8804 12.483 20.034 12 19.9999C11.517 20.034 11.0395 19.8804 10.6669 19.5712C10.2944 19.262 10.0555 18.8209 10 18.3399V17.9999H14V18.3399ZM5.51001 15.9999L6.69001 14.8199C6.87718 14.6338 7.02567 14.4126 7.12694 14.1689C7.2282 13.9251 7.28022 13.6638 7.28001 13.3999V8.72989C7.28056 8.05529 7.4254 7.38862 7.70481 6.7746C7.98422 6.16059 8.39174 5.61345 8.90001 5.16989C9.40143 4.71558 9.99559 4.37564 10.6414 4.17363C11.2871 3.97161 11.9691 3.91233 12.64 3.99989C13.7965 4.18767 14.8462 4.78691 15.5959 5.68727C16.3456 6.58764 16.7448 7.72853 16.72 8.89989V13.3999C16.7185 13.6631 16.7689 13.924 16.8685 14.1677C16.968 14.4114 17.1146 14.633 17.3 14.8199L18.49 15.9999H5.51001Z" fill="#00C688"/>
</svg>
