<svg width="40" height="40" viewBox="0 0 40 40" fill="none" xmlns="http://www.w3.org/2000/svg">
<path d="M3.33331 5H13.3333C15.1014 5 16.7971 5.70238 18.0474 6.95262C19.2976 8.20286 20 9.89856 20 11.6667V35C20 33.6739 19.4732 32.4021 18.5355 31.4645C17.5978 30.5268 16.3261 30 15 30H3.33331V5Z" stroke="#F8EBDF" stroke-width="2" stroke-linecap="round" stroke-linejoin="round"/>
<path d="M36.6667 5H26.6667C24.8986 5 23.2029 5.70238 21.9526 6.95262C20.7024 8.20286 20 9.89856 20 11.6667V35C20 33.6739 20.5268 32.4021 21.4645 31.4645C22.4021 30.5268 23.6739 30 25 30H36.6667V5Z" stroke="#F8EBDF" stroke-width="2" stroke-linecap="round" stroke-linejoin="round"/>
</svg>
