<svg width="25" height="24" viewBox="0 0 25 24" fill="none" xmlns="http://www.w3.org/2000/svg">
<path d="M19.5 7H16.5V5.5C16.5 4.83696 16.2366 4.20107 15.7678 3.73223C15.2989 3.26339 14.663 3 14 3H11C10.337 3 9.70107 3.26339 9.23223 3.73223C8.76339 4.20107 8.5 4.83696 8.5 5.5V7H5.5C4.70435 7 3.94129 7.31607 3.37868 7.87868C2.81607 8.44129 2.5 9.20435 2.5 10V18C2.5 18.7956 2.81607 19.5587 3.37868 20.1213C3.94129 20.6839 4.70435 21 5.5 21H19.5C20.2956 21 21.0587 20.6839 21.6213 20.1213C22.1839 19.5587 22.5 18.7956 22.5 18V10C22.5 9.20435 22.1839 8.44129 21.6213 7.87868C21.0587 7.31607 20.2956 7 19.5 7ZM10.5 5.5C10.5 5.36739 10.5527 5.24021 10.6464 5.14645C10.7402 5.05268 10.8674 5 11 5H14C14.1326 5 14.2598 5.05268 14.3536 5.14645C14.4473 5.24021 14.5 5.36739 14.5 5.5V7H10.5V5.5ZM20.5 18C20.5 18.2652 20.3946 18.5196 20.2071 18.7071C20.0196 18.8946 19.7652 19 19.5 19H5.5C5.23478 19 4.98043 18.8946 4.79289 18.7071C4.60536 18.5196 4.5 18.2652 4.5 18V10C4.5 9.73478 4.60536 9.48043 4.79289 9.29289C4.98043 9.10536 5.23478 9 5.5 9H19.5C19.7652 9 20.0196 9.10536 20.2071 9.29289C20.3946 9.48043 20.5 9.73478 20.5 10V18Z" fill="#F8EBDF"/>
<path d="M12.5 10.5C11.8078 10.5 11.1311 10.7053 10.5555 11.0899C9.97993 11.4744 9.53133 12.0211 9.26642 12.6606C9.00152 13.3001 8.9322 14.0039 9.06725 14.6828C9.2023 15.3618 9.53564 15.9854 10.0251 16.4749C10.5146 16.9644 11.1383 17.2977 11.8172 17.4327C12.4961 17.5678 13.1999 17.4985 13.8394 17.2336C14.4789 16.9687 15.0256 16.5201 15.4101 15.9445C15.7947 15.3689 16 14.6922 16 14C16 13.0717 15.6313 12.1815 14.9749 11.5251C14.3185 10.8687 13.4283 10.5 12.5 10.5ZM12.5 15.5C12.2033 15.5 11.9133 15.412 11.6666 15.2472C11.42 15.0824 11.2277 14.8481 11.1142 14.574C11.0007 14.2999 10.9709 13.9983 11.0288 13.7074C11.0867 13.4164 11.2296 13.1491 11.4393 12.9393C11.6491 12.7296 11.9164 12.5867 12.2074 12.5288C12.4983 12.4709 12.7999 12.5006 13.074 12.6142C13.3481 12.7277 13.5824 12.92 13.7472 13.1666C13.912 13.4133 14 13.7033 14 14C14 14.3978 13.842 14.7794 13.5607 15.0607C13.2794 15.342 12.8978 15.5 12.5 15.5Z" fill="#F8EBDF"/>
</svg>
