<svg width="24" height="24" viewBox="0 0 24 24" fill="none" xmlns="http://www.w3.org/2000/svg">
<path d="M9.85999 18.0009C9.72288 18.0004 9.58732 17.9718 9.46173 17.9168C9.33615 17.8617 9.22323 17.7814 9.12999 17.6809L4.26999 12.5109C4.08832 12.3173 3.991 12.0594 3.99944 11.7941C4.00788 11.5287 4.12139 11.2776 4.31499 11.0959C4.5086 10.9142 4.76645 10.8169 5.03181 10.8253C5.29718 10.8338 5.54832 10.9473 5.72999 11.1409L9.84999 15.5309L18.26 6.33089C18.3453 6.22461 18.4515 6.1369 18.572 6.07315C18.6925 6.0094 18.8247 5.97095 18.9606 5.96017C19.0965 5.94938 19.2331 5.96649 19.3621 6.01044C19.4912 6.05439 19.6098 6.12425 19.7109 6.21573C19.8119 6.30722 19.8932 6.41839 19.9497 6.54243C20.0062 6.66647 20.0368 6.80075 20.0395 6.93703C20.0422 7.0733 20.0171 7.2087 19.9656 7.3349C19.9141 7.4611 19.8373 7.57543 19.74 7.67089L10.6 17.6709C10.5076 17.7732 10.3951 17.8554 10.2695 17.9122C10.1439 17.969 10.0078 17.9992 9.86999 18.0009H9.85999Z" fill="#F8EBDF"/>
</svg>
