<svg width="24" height="24" viewBox="0 0 24 24" fill="none" xmlns="http://www.w3.org/2000/svg">
<path d="M7.00001 10.5019C6.99925 10.3703 7.02447 10.2398 7.07424 10.118C7.124 9.99615 7.19733 9.88533 7.29001 9.79189C7.38297 9.69816 7.49357 9.62377 7.61543 9.573C7.73729 9.52223 7.868 9.49609 8.00001 9.49609C8.13202 9.49609 8.26273 9.52223 8.38459 9.573C8.50645 9.62377 8.61705 9.69816 8.71001 9.79189L12 13.1019L15.31 9.92189C15.4974 9.73564 15.7508 9.6311 16.015 9.6311C16.2792 9.6311 16.5326 9.73564 16.72 9.92189C16.8137 10.0149 16.8881 10.1255 16.9389 10.2473C16.9897 10.3692 17.0158 10.4999 17.0158 10.6319C17.0158 10.7639 16.9897 10.8946 16.9389 11.0165C16.8881 11.1383 16.8137 11.2489 16.72 11.3419L12.72 15.2019C12.5331 15.3851 12.2818 15.4877 12.02 15.4877C11.7583 15.4877 11.5069 15.3851 11.32 15.2019L7.32001 11.2019C7.22308 11.1121 7.14489 11.0041 7.08997 10.8839C7.03504 10.7638 7.00447 10.6339 7.00001 10.5019Z" fill="#F8EBDF"/>
</svg>
