<svg width="160" height="48" viewBox="0 0 160 48" fill="none" xmlns="http://www.w3.org/2000/svg">
<rect width="160" height="48" rx="4" fill="white"/>
<path fill-rule="evenodd" clip-rule="evenodd" d="M29.34 31.89C30.27 31.89 31.14 31.72 31.96 31.39C31.96 31.42 33.63 34.01 33.66 34.02C32.1819 34.8119 30.5266 35.2145 28.85 35.19C23.72 35.2 20 31.81 20 26.42C20 20.99 23.9 17.62 28.85 17.62C30.6 17.62 31.99 18 33.38 18.74L31.78 21.44C30.94 21.11 30.08 20.96 29.18 20.96C26.15 20.96 23.8 22.89 23.8 26.42C23.8 29.76 26.07 31.89 29.34 31.89ZM42.27 17.62C47.31 17.62 50.96 21.19 50.96 26.42C50.96 31.62 47.31 35.19 42.26 35.19C37.26 35.19 33.61 31.62 33.61 26.42C33.61 21.19 37.26 17.62 42.27 17.62ZM42.27 20.84C39.46 20.84 37.41 23.01 37.41 26.42C37.41 29.8 39.46 31.97 42.27 31.97C45.15 31.97 47.17 29.8 47.17 26.42C47.17 23.01 45.15 20.84 42.27 20.84ZM53.35 34.81V18H57.11V34.8H53.35V34.81ZM52.85 12.83C52.889 12.2319 53.1541 11.6711 53.5914 11.2613C54.0288 10.8516 54.6057 10.6235 55.205 10.6235C55.8043 10.6235 56.3812 10.8516 56.8186 11.2613C57.2559 11.6711 57.521 12.2319 57.56 12.83C57.5601 13.458 57.3142 14.0609 56.8748 14.5096C56.4355 14.9583 55.8378 15.2169 55.21 15.23C54.5822 15.2169 53.9845 14.9583 53.5452 14.5096C53.1058 14.0609 52.8599 13.458 52.86 12.83H52.85ZM60.39 19.06C62.8529 18.1343 65.459 17.6469 68.09 17.62C72.39 17.62 75.11 19.25 75.11 23.99V34.81H71.4V24.34C71.4 21.91 69.89 21.04 67.8 21.04C66.47 21.04 65.14 21.22 64.15 21.53V34.8H60.4V19.06H60.39ZM78.26 9H82.02V18.45C82.82 18.03 84.37 17.62 85.85 17.62C90.71 17.62 94.35 20.72 94.35 26.12C94.35 31.55 90.75 35.19 84.53 35.19C82.1 35.19 79.97 34.69 78.26 34.09V9ZM82.02 31.62C82.74 31.85 83.69 31.97 84.64 31.97C88.09 31.97 90.56 30.07 90.56 26.2C90.56 22.93 88.24 21 85.4 21C83.92 21 82.78 21.38 82.02 21.8V31.62ZM105.22 23.54C105.22 21.72 103.84 20.88 101.98 20.88C100.05 20.88 98.53 21.45 97.13 22.25V18.98C98.8048 18.0698 100.684 17.6018 102.59 17.62C106.27 17.62 108.89 19.14 108.89 23.35V34.47C107.29 34.89 105.02 35.15 103.12 35.15C98.76 35.15 95.57 33.83 95.57 30.03C95.57 26.61 98.49 24.94 103.35 24.94H105.21V23.54H105.22ZM105.22 27.44H103.62C101 27.44 99.29 28.21 99.29 29.92C99.29 31.66 100.89 32.34 103.16 32.34C103.73 32.34 104.53 32.27 105.21 32.16V27.45L105.22 27.44ZM111.62 30.26C113.085 31.421 114.882 32.0864 116.75 32.16C118.42 32.16 119.52 31.59 119.52 30.26C119.52 28.89 118.53 28.4 116.37 27.83C112.87 27.03 111.4 25.63 111.4 22.7C111.4 19.29 113.98 17.62 117.4 17.62C119.3 17.62 120.81 18.03 122.22 18.91V22.36C120.88 21.2904 119.224 20.6929 117.51 20.66C115.88 20.66 115.01 21.46 115.01 22.56C115.01 23.66 115.72 24.22 117.66 24.76C121.5 25.59 123.16 27.03 123.16 30.06C123.16 33.6 120.47 35.19 116.83 35.19C115.004 35.2264 113.204 34.7557 111.63 33.83V30.26H111.62ZM128.31 27.26V27.33C128.54 30.33 131.11 31.97 133.74 31.97C136.05 31.97 137.72 31.43 139.39 30.33V33.63C137.87 34.7 135.63 35.19 133.47 35.19C128.23 35.19 124.67 31.85 124.67 26.54C124.67 21.19 128.16 17.62 132.79 17.62C137.69 17.62 140 20.77 140 25.36V27.26H128.3H128.31ZM136.47 24.83C136.39 22.21 135.1 20.77 132.67 20.77C130.51 20.77 128.92 22.29 128.42 24.83H136.47Z" fill="#0667D0"/>
</svg>
