<svg width="122" height="28" viewBox="0 0 122 28" fill="none" xmlns="http://www.w3.org/2000/svg">
<path fill-rule="evenodd" clip-rule="evenodd" d="M10.34 23.89C11.27 23.89 12.14 23.72 12.96 23.39C12.96 23.42 14.63 26.01 14.66 26.02C13.1819 26.8119 11.5266 27.2145 9.85 27.19C4.72 27.2 1 23.81 1 18.42C1 12.99 4.9 9.62 9.85 9.62C11.6 9.62 12.99 10 14.38 10.74L12.78 13.44C11.94 13.11 11.08 12.96 10.18 12.96C7.15 12.96 4.8 14.89 4.8 18.42C4.8 21.76 7.07 23.89 10.34 23.89ZM23.27 9.62C28.31 9.62 31.96 13.19 31.96 18.42C31.96 23.62 28.31 27.19 23.26 27.19C18.26 27.19 14.61 23.62 14.61 18.42C14.61 13.19 18.26 9.62 23.27 9.62ZM23.27 12.84C20.46 12.84 18.41 15.01 18.41 18.42C18.41 21.8 20.46 23.97 23.27 23.97C26.15 23.97 28.17 21.8 28.17 18.42C28.17 15.01 26.15 12.84 23.27 12.84ZM34.35 26.81V10H38.11V26.8H34.35V26.81ZM33.85 4.83C33.889 4.23194 34.1541 3.67111 34.5914 3.26134C35.0288 2.85157 35.6057 2.62354 36.205 2.62354C36.8043 2.62354 37.3812 2.85157 37.8186 3.26134C38.2559 3.67111 38.521 4.23194 38.56 4.83C38.5601 5.45795 38.3142 6.06094 37.8748 6.50962C37.4355 6.9583 36.8378 7.21692 36.21 7.23C35.5822 7.21692 34.9845 6.9583 34.5452 6.50962C34.1058 6.06094 33.8599 5.45795 33.86 4.83H33.85ZM41.39 11.06C43.8529 10.1343 46.459 9.6469 49.09 9.62C53.39 9.62 56.11 11.25 56.11 15.99V26.81H52.4V16.34C52.4 13.91 50.89 13.04 48.8 13.04C47.47 13.04 46.14 13.22 45.15 13.53V26.8H41.4V11.06H41.39ZM59.26 1H63.02V10.45C63.82 10.03 65.37 9.62 66.85 9.62C71.71 9.62 75.35 12.72 75.35 18.12C75.35 23.55 71.75 27.19 65.53 27.19C63.1 27.19 60.97 26.69 59.26 26.09V1ZM63.02 23.62C63.74 23.85 64.69 23.97 65.64 23.97C69.09 23.97 71.56 22.07 71.56 18.2C71.56 14.93 69.24 13 66.4 13C64.92 13 63.78 13.38 63.02 13.8V23.62ZM86.22 15.54C86.22 13.72 84.84 12.88 82.98 12.88C81.05 12.88 79.53 13.45 78.13 14.25V10.98C79.8048 10.0698 81.684 9.60176 83.59 9.62C87.27 9.62 89.89 11.14 89.89 15.35V26.47C88.29 26.89 86.02 27.15 84.12 27.15C79.76 27.15 76.57 25.83 76.57 22.03C76.57 18.61 79.49 16.94 84.35 16.94H86.21V15.54H86.22ZM86.22 19.44H84.62C82 19.44 80.29 20.21 80.29 21.92C80.29 23.66 81.89 24.34 84.16 24.34C84.73 24.34 85.53 24.27 86.21 24.16V19.45L86.22 19.44ZM92.62 22.26C94.0854 23.421 95.8818 24.0864 97.75 24.16C99.42 24.16 100.52 23.59 100.52 22.26C100.52 20.89 99.53 20.4 97.37 19.83C93.87 19.03 92.4 17.63 92.4 14.7C92.4 11.29 94.98 9.62 98.4 9.62C100.3 9.62 101.81 10.03 103.22 10.91V14.36C101.88 13.2904 100.224 12.6929 98.51 12.66C96.88 12.66 96.01 13.46 96.01 14.56C96.01 15.66 96.72 16.22 98.66 16.76C102.5 17.59 104.16 19.03 104.16 22.06C104.16 25.6 101.47 27.19 97.83 27.19C96.0042 27.2264 94.2041 26.7557 92.63 25.83V22.26H92.62ZM109.31 19.26V19.33C109.54 22.33 112.11 23.97 114.74 23.97C117.05 23.97 118.72 23.43 120.39 22.33V25.63C118.87 26.7 116.63 27.19 114.47 27.19C109.23 27.19 105.67 23.85 105.67 18.54C105.67 13.19 109.16 9.62 113.79 9.62C118.69 9.62 121 12.77 121 17.36V19.26H109.3H109.31ZM117.47 16.83C117.39 14.21 116.1 12.77 113.67 12.77C111.51 12.77 109.92 14.29 109.42 16.83H117.47Z" fill="#0667D0"/>
</svg>
