<svg width="11" height="7" viewBox="0 0 11 7" fill="none" xmlns="http://www.w3.org/2000/svg">
<path d="M-0.000173569 1.49994C-0.000934601 1.36833 0.0242901 1.23787 0.0740547 1.11603C0.123819 0.994195 0.197146 0.883379 0.289827 0.789939C0.382791 0.696211 0.49339 0.621816 0.61525 0.571048C0.737109 0.520279 0.867815 0.494141 0.999826 0.494141C1.13184 0.494141 1.26254 0.520279 1.3844 0.571048C1.50626 0.621816 1.61686 0.696211 1.70983 0.789939L4.99983 4.09994L8.30983 0.919939C8.49719 0.733688 8.75064 0.629147 9.01483 0.629147C9.27901 0.629147 9.53246 0.733688 9.71983 0.919939C9.81356 1.0129 9.88795 1.1235 9.93872 1.24536C9.98949 1.36722 10.0156 1.49793 10.0156 1.62994C10.0156 1.76195 9.98949 1.89266 9.93872 2.01452C9.88795 2.13638 9.81356 2.24698 9.71983 2.33994L5.71983 6.19994C5.5329 6.38317 5.28158 6.4858 5.01983 6.4858C4.75807 6.4858 4.50676 6.38317 4.31983 6.19994L0.319826 2.19994C0.222894 2.11018 0.144708 2.00211 0.0897827 1.88196C0.0348577 1.76181 0.00428391 1.63197 -0.000173569 1.49994Z" fill="#F8EBDF"/>
</svg>
