<svg width="48" height="48" viewBox="0 0 48 48" fill="none" xmlns="http://www.w3.org/2000/svg">
<rect width="48" height="48" rx="4" fill="#DA3443"/>
<path d="M25.8782 23.9989L31.606 18.2836C31.8568 18.0327 31.9977 17.6925 31.9977 17.3377C31.9977 16.9829 31.8568 16.6427 31.606 16.3918C31.3552 16.1409 31.015 16 30.6602 16C30.3055 16 29.9653 16.1409 29.7145 16.3918L24 22.1204L18.2855 16.3918C18.0347 16.1409 17.6945 16 17.3398 16C16.985 16 16.6448 16.1409 16.394 16.3918C16.1432 16.6427 16.0023 16.9829 16.0023 17.3377C16.0023 17.6925 16.1432 18.0327 16.394 18.2836L22.1218 23.9989L16.394 29.7142C16.2692 29.838 16.1701 29.9853 16.1024 30.1477C16.0348 30.31 16 30.4842 16 30.66C16 30.8359 16.0348 31.01 16.1024 31.1724C16.1701 31.3347 16.2692 31.4821 16.394 31.6059C16.5178 31.7308 16.6652 31.8299 16.8275 31.8975C16.9898 31.9652 17.1639 32 17.3398 32C17.5156 32 17.6897 31.9652 17.852 31.8975C18.0144 31.8299 18.1617 31.7308 18.2855 31.6059L24 25.8773L29.7145 31.6059C29.8383 31.7308 29.9856 31.8299 30.148 31.8975C30.3103 31.9652 30.4844 32 30.6602 32C30.8361 32 31.0102 31.9652 31.1725 31.8975C31.3348 31.8299 31.4822 31.7308 31.606 31.6059C31.7308 31.4821 31.8299 31.3347 31.8976 31.1724C31.9652 31.01 32 30.8359 32 30.66C32 30.4842 31.9652 30.31 31.8976 30.1477C31.8299 29.9853 31.7308 29.838 31.606 29.7142L25.8782 23.9989Z" fill="#F8EBDF"/>
</svg>
