<svg width="24" height="24" viewBox="0 0 24 24" fill="none" xmlns="http://www.w3.org/2000/svg">
<path fill-rule="evenodd" clip-rule="evenodd" d="M24 22.6755C24 23.407 23.4068 24.0001 22.6754 24.0001H16.5595V14.706H19.6793L20.1463 11.084H16.5595V8.77134C16.5595 7.72266 16.8508 7.008 18.3547 7.008L20.2727 7.00716V3.76763C19.9408 3.72347 18.8023 3.62484 17.4778 3.62484C14.7124 3.62484 12.8192 5.31281 12.8192 8.41275V11.084H9.6915V14.706H12.8192V24.0001H1.32459C0.592875 24.0001 0 23.407 0 22.6755V1.32459C0 0.592969 0.592875 0 1.32459 0H22.6754C23.4068 0 24 0.592969 24 1.32459V22.6755Z" fill="#3B5998"/>
</svg>
