<svg width="24" height="24" viewBox="0 0 24 24" fill="none" xmlns="http://www.w3.org/2000/svg">
<path d="M13.8999 22C13.6835 22 13.473 21.9298 13.2999 21.8L9.29989 18.75C9.17753 18.6558 9.07864 18.5346 9.01098 18.3958C8.94332 18.257 8.90872 18.1044 8.90988 17.95V14.68L4.10989 5.46C4.03083 5.30741 3.99244 5.13703 3.99841 4.96529C4.00437 4.79354 4.0545 4.62623 4.14394 4.4795C4.23339 4.33276 4.35914 4.21155 4.50907 4.12757C4.659 4.04358 4.82804 3.99964 4.99988 4H18.9999C19.1734 4.00003 19.344 4.04523 19.4948 4.13114C19.6455 4.21705 19.7714 4.34072 19.8599 4.49C19.9477 4.64202 19.9939 4.81447 19.9939 4.99C19.9939 5.16554 19.9477 5.33798 19.8599 5.49L14.8599 14.7V21C14.8612 21.1864 14.8104 21.3694 14.7132 21.5284C14.616 21.6874 14.4763 21.8161 14.3099 21.9C14.1819 21.9621 14.0421 21.9962 13.8999 22ZM10.8999 17.46L12.8999 18.99V14.44C12.8993 14.2876 12.9335 14.1371 12.9999 14L17.2999 6H6.63988L10.7699 14C10.8428 14.1423 10.8805 14.3001 10.8799 14.46L10.8999 17.46Z" fill="#00C688"/>
</svg>
