<svg width="24" height="24" viewBox="0 0 24 24" fill="none" xmlns="http://www.w3.org/2000/svg">
<path fill-rule="evenodd" clip-rule="evenodd" d="M23.52 12.273C23.52 11.421 23.444 10.6037 23.3013 9.81836H12V14.4597H18.4587C18.325 15.1938 18.0439 15.8932 17.6323 16.5157C17.2207 17.1381 16.6872 17.6706 16.064 18.081V21.093H19.9413C22.2107 19.0037 23.52 15.9264 23.52 12.273Z" fill="#4285F4"/>
<path fill-rule="evenodd" clip-rule="evenodd" d="M12 24.0003C15.24 24.0003 17.956 22.9256 19.9413 21.0936L16.064 18.0816C14.9893 18.8016 13.6147 19.2283 12 19.2283C8.87467 19.2283 6.22933 17.1163 5.28533 14.2803H1.276V17.3896C2.27473 19.3775 3.80659 21.0486 5.70038 22.216C7.59418 23.3834 9.7753 24.0012 12 24.0003Z" fill="#34A853"/>
<path fill-rule="evenodd" clip-rule="evenodd" d="M5.28533 14.2797C5.03829 13.5448 4.91133 12.775 4.90933 11.9997C4.90933 11.209 5.04533 10.4397 5.28533 9.71968V6.61035H1.276C0.436075 8.28266 -0.000906213 10.1283 1.41098e-06 11.9997C1.41098e-06 13.9357 0.464001 15.769 1.276 17.389L5.28533 14.2797Z" fill="#FBBC05"/>
<path fill-rule="evenodd" clip-rule="evenodd" d="M12 4.77333C13.7613 4.77333 15.344 5.37867 16.5867 6.56667L20.0293 3.12667C17.9507 1.188 15.2347 9.4278e-07 12 9.4278e-07C9.7753 -0.000880909 7.59418 0.6169 5.70038 1.7843C3.80659 2.95171 2.27473 4.62275 1.276 6.61067L5.28533 9.72C6.22933 6.884 8.87467 4.77333 12 4.77333Z" fill="#EA4335"/>
</svg>
