<svg width="24" height="24" viewBox="0 0 24 24" fill="none" xmlns="http://www.w3.org/2000/svg">
<path d="M12.0448 20.1818H12.0444H12.0448ZM11.9552 20.1818H11.9554H11.9552ZM12.0379 20.1818C12.0377 20.1818 12.0373 20.1818 12.0369 20.1818H12.0379ZM11.9623 20.1818H11.9631C11.9627 20.1818 11.9625 20.1818 11.9623 20.1818ZM11.9773 20.1818H11.9786C11.9784 20.1818 11.9777 20.1818 11.9773 20.1818ZM12.0227 20.1818C12.0225 20.1818 12.0219 20.1818 12.0216 20.1818H12.0227ZM11.9839 20.1818H11.9863C11.9856 20.1818 11.9846 20.1818 11.9839 20.1818ZM12.0161 20.1818C12.0154 20.1818 12.0144 20.1818 12.0137 20.1818H12.0161ZM11.9912 20.1818H11.9931C11.9925 20.1818 11.9919 20.1818 11.9912 20.1818ZM12.0088 20.1818C12.0081 20.1818 12.0075 20.1818 12.0069 20.1818H12.0088ZM12 3C11.8603 3 11.7204 3.03252 11.5937 3.09777L0.450857 8.82511C0.173357 8.96768 0 9.24443 0 9.54532C0 9.84621 0.173357 10.123 0.450857 10.2655L3.42857 11.7962V17.7272C3.42857 17.9443 3.519 18.1523 3.67971 18.3057C3.79479 18.4159 6.56464 21 12 21C17.4354 21 20.2052 18.4159 20.3203 18.3057C20.481 18.1523 20.5714 17.9443 20.5714 17.7272V11.7962L22.2857 10.915V14.4545C22.2857 14.9063 22.6695 15.2727 23.1429 15.2727C23.6162 15.2727 24 14.9063 24 14.4545V9.54532C24 9.24443 23.8266 8.96768 23.5491 8.82511L12.4063 3.09777C12.2796 3.03252 12.1397 3 12 3ZM12 14.3434L2.66507 9.54532L12 4.74725L21.3347 9.54532L12 14.3434ZM12 16.0909C12.1397 16.0909 12.2796 16.0581 12.4063 15.9929L18.8571 12.6774V17.3517C18.1264 17.9019 15.8233 19.3636 12 19.3636C8.17393 19.3636 5.87036 17.8995 5.14286 17.3521V12.6774L11.5937 15.9929C11.7204 16.0581 11.8603 16.0909 12 16.0909Z" fill="#00C688"/>
</svg>
