<svg width="32" height="32" viewBox="0 0 32 32" fill="none" xmlns="http://www.w3.org/2000/svg">
<path d="M13 7H9C8.46957 7 7.96086 7.21071 7.58579 7.58579C7.21071 7.96086 7 8.46957 7 9V13C7 13.5304 7.21071 14.0391 7.58579 14.4142C7.96086 14.7893 8.46957 15 9 15H13C13.5304 15 14.0391 14.7893 14.4142 14.4142C14.7893 14.0391 15 13.5304 15 13V9C15 8.46957 14.7893 7.96086 14.4142 7.58579C14.0391 7.21071 13.5304 7 13 7ZM9 13V9H13V13H9Z" fill="#F8EBDF"/>
<path d="M23 7H19C18.4696 7 17.9609 7.21071 17.5858 7.58579C17.2107 7.96086 17 8.46957 17 9V13C17 13.5304 17.2107 14.0391 17.5858 14.4142C17.9609 14.7893 18.4696 15 19 15H23C23.5304 15 24.0391 14.7893 24.4142 14.4142C24.7893 14.0391 25 13.5304 25 13V9C25 8.46957 24.7893 7.96086 24.4142 7.58579C24.0391 7.21071 23.5304 7 23 7ZM19 13V9H23V13H19Z" fill="#F8EBDF"/>
<path d="M13 17H9C8.46957 17 7.96086 17.2107 7.58579 17.5858C7.21071 17.9609 7 18.4696 7 19V23C7 23.5304 7.21071 24.0391 7.58579 24.4142C7.96086 24.7893 8.46957 25 9 25H13C13.5304 25 14.0391 24.7893 14.4142 24.4142C14.7893 24.0391 15 23.5304 15 23V19C15 18.4696 14.7893 17.9609 14.4142 17.5858C14.0391 17.2107 13.5304 17 13 17ZM9 23V19H13V23H9Z" fill="#F8EBDF"/>
<path d="M23 17H19C18.4696 17 17.9609 17.2107 17.5858 17.5858C17.2107 17.9609 17 18.4696 17 19V23C17 23.5304 17.2107 24.0391 17.5858 24.4142C17.9609 24.7893 18.4696 25 19 25H23C23.5304 25 24.0391 24.7893 24.4142 24.4142C24.7893 24.0391 25 23.5304 25 23V19C25 18.4696 24.7893 17.9609 24.4142 17.5858C24.0391 17.2107 23.5304 17 23 17ZM19 23V19H23V23H19Z" fill="#F8EBDF"/>
<rect x="0.5" y="0.5" width="31" height="31" rx="1.5" stroke="#F8EBDF"/>
</svg>
