<svg width="33" height="40" viewBox="0 0 33 40" fill="none" xmlns="http://www.w3.org/2000/svg">
<path d="M26.5 12.0007H24.5V8.2207C24.5 6.09897 23.6571 4.06414 22.1569 2.56385C20.6566 1.06356 18.6217 0.220703 16.5 0.220703C14.3783 0.220703 12.3434 1.06356 10.8431 2.56385C9.34285 4.06414 8.5 6.09897 8.5 8.2207V12.0007H6.5C4.9087 12.0007 3.38258 12.6328 2.25736 13.7581C1.13214 14.8833 0.5 16.4094 0.5 18.0007V34.0007C0.5 35.592 1.13214 37.1181 2.25736 38.2433C3.38258 39.3686 4.9087 40.0007 6.5 40.0007H26.5C28.0913 40.0007 29.6174 39.3686 30.7426 38.2433C31.8679 37.1181 32.5 35.592 32.5 34.0007V18.0007C32.5 16.4094 31.8679 14.8833 30.7426 13.7581C29.6174 12.6328 28.0913 12.0007 26.5 12.0007ZM12.5 8.2207C12.4731 7.13129 12.8789 6.0756 13.6286 5.2847C14.3782 4.49379 15.4107 4.03211 16.5 4.0007C17.5893 4.03211 18.6218 4.49379 19.3714 5.2847C20.1211 6.0756 20.5269 7.13129 20.5 8.2207V12.0007H12.5V8.2207ZM28.5 34.0007C28.5 34.5311 28.2893 35.0398 27.9142 35.4149C27.5391 35.79 27.0304 36.0007 26.5 36.0007H6.5C5.96957 36.0007 5.46086 35.79 5.08579 35.4149C4.71071 35.0398 4.5 34.5311 4.5 34.0007V18.0007C4.5 17.4703 4.71071 16.9616 5.08579 16.5865C5.46086 16.2114 5.96957 16.0007 6.5 16.0007H26.5C27.0304 16.0007 27.5391 16.2114 27.9142 16.5865C28.2893 16.9616 28.5 17.4703 28.5 18.0007V34.0007Z" fill="white"/>
<path d="M16.5 20C15.3133 20 14.1533 20.3519 13.1666 21.0112C12.1799 21.6705 11.4109 22.6075 10.9567 23.7039C10.5026 24.8003 10.3838 26.0067 10.6153 27.1705C10.8468 28.3344 11.4182 29.4035 12.2574 30.2426C13.0965 31.0818 14.1656 31.6532 15.3295 31.8847C16.4933 32.1162 17.6997 31.9974 18.7961 31.5433C19.8925 31.0892 20.8295 30.3201 21.4888 29.3334C22.1481 28.3467 22.5 27.1867 22.5 26C22.5 24.4087 21.8679 22.8826 20.7426 21.7574C19.6174 20.6321 18.0913 20 16.5 20ZM16.5 28C16.1044 28 15.7178 27.8827 15.3889 27.6629C15.06 27.4432 14.8036 27.1308 14.6522 26.7654C14.5009 26.3999 14.4613 25.9978 14.5384 25.6098C14.6156 25.2219 14.8061 24.8655 15.0858 24.5858C15.3655 24.3061 15.7219 24.1156 16.1098 24.0384C16.4978 23.9613 16.8999 24.0009 17.2654 24.1522C17.6308 24.3036 17.9432 24.56 18.1629 24.8889C18.3827 25.2178 18.5 25.6044 18.5 26C18.5 26.5304 18.2893 27.0391 17.9142 27.4142C17.5391 27.7893 17.0304 28 16.5 28Z" fill="white"/>
</svg>
