<svg width="49" height="48" viewBox="0 0 49 48" fill="none" xmlns="http://www.w3.org/2000/svg">
<path d="M34.5 16.0007H32.5V12.2207C32.5 10.099 31.6571 8.06414 30.1569 6.56385C28.6566 5.06356 26.6217 4.2207 24.5 4.2207C22.3783 4.2207 20.3434 5.06356 18.8431 6.56385C17.3429 8.06414 16.5 10.099 16.5 12.2207V16.0007H14.5C12.9087 16.0007 11.3826 16.6328 10.2574 17.7581C9.13214 18.8833 8.5 20.4094 8.5 22.0007V38.0007C8.5 39.592 9.13214 41.1181 10.2574 42.2433C11.3826 43.3686 12.9087 44.0007 14.5 44.0007H34.5C36.0913 44.0007 37.6174 43.3686 38.7426 42.2433C39.8679 41.1181 40.5 39.592 40.5 38.0007V22.0007C40.5 20.4094 39.8679 18.8833 38.7426 17.7581C37.6174 16.6328 36.0913 16.0007 34.5 16.0007ZM20.5 12.2207C20.4731 11.1313 20.8789 10.0756 21.6286 9.2847C22.3782 8.49379 23.4107 8.03211 24.5 8.0007C25.5893 8.03211 26.6218 8.49379 27.3714 9.2847C28.1211 10.0756 28.5269 11.1313 28.5 12.2207V16.0007H20.5V12.2207ZM36.5 38.0007C36.5 38.5311 36.2893 39.0398 35.9142 39.4149C35.5391 39.79 35.0304 40.0007 34.5 40.0007H14.5C13.9696 40.0007 13.4609 39.79 13.0858 39.4149C12.7107 39.0398 12.5 38.5311 12.5 38.0007V22.0007C12.5 21.4703 12.7107 20.9616 13.0858 20.5865C13.4609 20.2114 13.9696 20.0007 14.5 20.0007H34.5C35.0304 20.0007 35.5391 20.2114 35.9142 20.5865C36.2893 20.9616 36.5 21.4703 36.5 22.0007V38.0007Z" fill="#F8EBDF"/>
<path d="M24.5 24C23.3133 24 22.1533 24.3519 21.1666 25.0112C20.1799 25.6705 19.4109 26.6075 18.9567 27.7039C18.5026 28.8003 18.3838 30.0067 18.6153 31.1705C18.8468 32.3344 19.4182 33.4035 20.2574 34.2426C21.0965 35.0818 22.1656 35.6532 23.3295 35.8847C24.4933 36.1162 25.6997 35.9974 26.7961 35.5433C27.8925 35.0892 28.8295 34.3201 29.4888 33.3334C30.1481 32.3467 30.5 31.1867 30.5 30C30.5 28.4087 29.8679 26.8826 28.7426 25.7574C27.6174 24.6321 26.0913 24 24.5 24ZM24.5 32C24.1044 32 23.7178 31.8827 23.3889 31.6629C23.06 31.4432 22.8036 31.1308 22.6522 30.7654C22.5009 30.3999 22.4613 29.9978 22.5384 29.6098C22.6156 29.2219 22.8061 28.8655 23.0858 28.5858C23.3655 28.3061 23.7219 28.1156 24.1098 28.0384C24.4978 27.9613 24.8999 28.0009 25.2654 28.1522C25.6308 28.3036 25.9432 28.56 26.1629 28.8889C26.3827 29.2178 26.5 29.6044 26.5 30C26.5 30.5304 26.2893 31.0391 25.9142 31.4142C25.5391 31.7893 25.0304 32 24.5 32Z" fill="#F8EBDF"/>
</svg>
