<svg width="257" height="40" viewBox="0 0 257 40" fill="none" xmlns="http://www.w3.org/2000/svg">
<g clip-path="url(#clip0)">
<path d="M0 19.9451C0 8.97422 8.9786 0 19.9549 0C30.9312 0 39.9098 8.97422 39.9098 19.9451C39.9098 31.0258 30.9312 39.9342 19.9549 39.9342C8.9786 39.9342 0 31.0258 0 19.9451ZM17.0132 29.2265V22.9292H22.7209C26.1016 22.9292 29.2408 20.5376 29.2408 16.5661C29.2408 12.6604 26.0797 10.203 22.7209 10.203H13.1057V29.2265H17.0132ZM16.9693 13.8453H22.677C23.9722 13.8453 25.443 14.6572 25.443 16.5661C25.443 18.5848 23.9722 19.3308 22.677 19.3308H16.9693V13.8453Z" fill="#58BD88"/>
<path d="M43.3342 20.0106C43.3342 9.03965 52.3128 0.0654297 63.2891 0.0654297C74.2654 0.0654297 83.244 9.03965 83.244 20.0106C83.244 31.0912 74.2654 39.9996 63.2891 39.9996C52.3128 39.9996 43.3342 31.0912 43.3342 20.0106ZM70.4017 29.292V25.6496H60.567V10.2903H56.6594V29.3139H70.4017V29.292Z" fill="#DA3443"/>
<path d="M86.5591 20.0106C86.5591 9.03965 95.5378 0.0654297 106.514 0.0654297C117.49 0.0654297 126.469 9.03965 126.469 20.0106C126.469 31.0912 117.49 39.9996 106.514 39.9996C95.5378 39.9996 86.5591 31.0912 86.5591 20.0106ZM99.7746 29.292L101.399 25.6057H111.563L113.188 29.292H117.6L109.017 10.2684H103.858L95.5378 29.292H99.7746ZM106.558 13.8669L110.092 22.0073H102.98L106.558 13.8669Z" fill="#DBB471"/>
<path d="M129.893 20.0106C129.893 9.03965 138.872 0.0654297 149.848 0.0654297C160.825 0.0654297 169.803 9.03965 169.803 20.0106C169.803 31.0912 160.825 39.9996 149.848 39.9996C138.872 39.9996 129.893 31.0912 129.893 20.0106ZM144.909 29.292V14.7445L155.336 29.2481H158.607V10.2903H154.81V22.1389L146.336 10.2903H141.111V29.3139H144.909V29.292Z" fill="#EFE6DB"/>
<path d="M173.118 20.0106C173.118 9.03965 182.097 0.0654297 193.073 0.0654297C204.049 0.0654297 213.028 9.03965 213.028 20.0106C213.028 31.0912 204.049 39.9996 193.073 39.9996C182.097 39.9996 173.118 31.0912 173.118 20.0106ZM200.8 29.292V25.6496H189.758V21.4807H198.451V17.8383H189.758V13.9107H199.922V10.2903H185.785V29.3139H200.8V29.292Z" fill="#EAA533"/>
<path d="M216.409 20.0106C216.409 9.03965 225.387 0.0654297 236.364 0.0654297C247.34 0.0654297 256.318 9.03965 256.318 20.0106C256.318 31.0912 247.34 39.9996 236.364 39.9996C225.365 39.9996 216.409 31.0912 216.409 20.0106ZM238.317 29.292V13.9107H245.276V10.2903H227.451V13.9327H234.41V29.3139H238.317V29.292Z" fill="#3A84D9"/>
</g>
<defs>
<clipPath id="clip0">
<rect width="256.296" height="40" fill="white"/>
</clipPath>
</defs>
</svg>
