<svg width="184" height="24" viewBox="0 0 184 24" fill="none" xmlns="http://www.w3.org/2000/svg">
<g clip-path="url(#clip0)">
<rect y="12" width="184" height="1" fill="#3A3939"/>
<rect width="29" height="36" transform="translate(110 -3) rotate(90)" fill="#191B1D"/>
<path d="M92.5455 11.6818C92.5455 7.92045 90.25 5.70454 87.1989 5.70454C84.142 5.70454 81.8523 7.92045 81.8523 11.6818C81.8523 15.4375 84.142 17.6591 87.1989 17.6591C90.25 17.6591 92.5455 15.4432 92.5455 11.6818ZM90.4261 11.6818C90.4261 14.3295 89.0966 15.767 87.1989 15.767C85.3068 15.767 83.9716 14.3295 83.9716 11.6818C83.9716 9.03409 85.3068 7.59659 87.1989 7.59659C89.0966 7.59659 90.4261 9.03409 90.4261 11.6818ZM94.5384 17.5H96.6463V13.2386H98.794L101.078 17.5H103.43L100.913 12.8864C102.283 12.3352 103.004 11.1648 103.004 9.58523C103.004 7.36364 101.572 5.86364 98.902 5.86364L94.5384 5.86364V17.5ZM96.6463 11.4886V7.625H98.5781C100.152 7.625 100.857 8.34659 100.857 9.58523C100.857 10.8239 100.152 11.4886 98.5895 11.4886H96.6463Z" fill="#8A8A8A"/>
</g>
<defs>
<clipPath id="clip0">
<rect width="184" height="24" fill="white"/>
</clipPath>
</defs>
</svg>
