<svg width="512" height="24" viewBox="0 0 512 24" fill="none" xmlns="http://www.w3.org/2000/svg">
<rect y="12" width="512" height="1" fill="#3A3939"/>
<rect width="29" height="24" transform="translate(241)" fill="#141414"/>
<path d="M249.696 18.192C248.96 18.192 248.293 18.0693 247.696 17.824C247.099 17.5787 246.587 17.2107 246.16 16.72C245.744 16.2293 245.419 15.6267 245.184 14.912C244.949 14.1973 244.832 13.3653 244.832 12.416C244.832 11.4773 244.949 10.6507 245.184 9.936C245.419 9.21067 245.744 8.60267 246.16 8.112C246.587 7.62133 247.099 7.25333 247.696 7.008C248.293 6.76267 248.96 6.64 249.696 6.64C250.432 6.64 251.099 6.76267 251.696 7.008C252.293 7.25333 252.805 7.62133 253.232 8.112C253.659 8.60267 253.984 9.21067 254.208 9.936C254.443 10.6507 254.56 11.4773 254.56 12.416C254.56 13.3653 254.443 14.1973 254.208 14.912C253.984 15.6267 253.659 16.2293 253.232 16.72C252.805 17.2107 252.293 17.5787 251.696 17.824C251.099 18.0693 250.432 18.192 249.696 18.192ZM249.696 16.32C250.496 16.32 251.131 16.0533 251.6 15.52C252.08 14.9867 252.32 14.24 252.32 13.28V11.552C252.32 10.592 252.08 9.84533 251.6 9.312C251.131 8.77867 250.496 8.512 249.696 8.512C248.896 8.512 248.256 8.77867 247.776 9.312C247.307 9.84533 247.072 10.592 247.072 11.552V13.28C247.072 14.24 247.307 14.9867 247.776 15.52C248.256 16.0533 248.896 16.32 249.696 16.32ZM258.815 18H256.703V6.832H261.743C262.255 6.832 262.713 6.912 263.119 7.072C263.524 7.232 263.865 7.46667 264.143 7.776C264.431 8.07467 264.649 8.43733 264.799 8.864C264.959 9.29067 265.039 9.76533 265.039 10.288C265.039 11.056 264.863 11.7173 264.511 12.272C264.169 12.8267 263.652 13.2213 262.959 13.456L265.247 18H262.895L260.815 13.696H258.815V18ZM261.535 11.92C261.94 11.92 262.26 11.8133 262.495 11.6C262.729 11.376 262.847 11.0613 262.847 10.656V9.92C262.847 9.51467 262.729 9.20533 262.495 8.992C262.26 8.77867 261.94 8.672 261.535 8.672H258.815V11.92H261.535Z" fill="#8A8A8A"/>
</svg>
