<svg width="24" height="24" viewBox="0 0 24 24" fill="none" xmlns="http://www.w3.org/2000/svg">
<path d="M0 11.5277C0 5.18683 5.39934 0 12 0C18.6007 0 24 5.18683 24 11.5277C24 17.932 18.6007 23.0808 12 23.0808C5.39934 23.0808 0 17.932 0 11.5277ZM10.231 16.8921V13.2524H13.6634C15.6964 13.2524 17.5842 11.8701 17.5842 9.57471C17.5842 7.31736 15.6832 5.89701 13.6634 5.89701H7.88119V16.8921H10.231ZM10.2046 8.00218H13.637C14.4158 8.00218 15.3003 8.4714 15.3003 9.57471C15.3003 10.7414 14.4158 11.1726 13.637 11.1726H10.2046V8.00218Z" fill="#00C688"/>
</svg>
