<svg width="25" height="24" viewBox="0 0 25 24" fill="none" xmlns="http://www.w3.org/2000/svg">
<path d="M0 11.9671C0 5.38453 5.60514 0 12.4574 0C19.3096 0 24.9148 5.38453 24.9148 11.9671C24.9148 18.6155 19.3096 23.9605 12.4574 23.9605C5.60514 23.9605 0 18.6155 0 11.9671ZM10.621 17.5359V13.7575H14.1842C16.2946 13.7575 18.2544 12.3225 18.2544 9.93966C18.2544 7.59627 16.2809 6.12178 14.1842 6.12178H8.18158V17.5359H10.621ZM10.5936 8.30719H14.1567C14.9653 8.30719 15.8835 8.79429 15.8835 9.93966C15.8835 11.1508 14.9653 11.5985 14.1567 11.5985H10.5936V8.30719Z" fill="#58BD88"/>
</svg>
