<svg width="160" height="48" viewBox="0 0 160 48" fill="none" xmlns="http://www.w3.org/2000/svg">
<rect width="160" height="48" rx="4" fill="white"/>
<path d="M64.211 14.5445H57.372C57.1456 14.5443 56.9266 14.6226 56.7544 14.7652C56.5822 14.9078 56.4683 15.1053 56.433 15.3222L53.667 32.3278C53.6543 32.4067 53.6593 32.4873 53.6819 32.5641C53.7044 32.641 53.7438 32.7122 53.7974 32.7728C53.851 32.8334 53.9175 32.8821 53.9924 32.9154C54.0672 32.9487 54.1486 32.9659 54.231 32.9658H57.496C57.7225 32.9659 57.9417 32.8875 58.1139 32.7447C58.286 32.6019 58.3999 32.4042 58.435 32.1871L59.181 27.6005C59.216 27.3836 59.3298 27.186 59.5017 27.0432C59.6737 26.9005 59.8926 26.8219 60.119 26.8218H62.284C66.789 26.8218 69.389 24.7079 70.068 20.5188C70.374 18.6861 70.081 17.2461 69.196 16.2376C68.224 15.1302 66.5 14.5445 64.211 14.5445ZM65 20.7554C64.626 23.135 62.751 23.135 60.938 23.135H59.906L60.63 18.6909C60.6512 18.5609 60.7195 18.4425 60.8227 18.357C60.926 18.2715 61.0572 18.2245 61.193 18.2245H61.666C62.901 18.2245 64.066 18.2245 64.668 18.9071C65.027 19.3144 65.137 19.9195 65 20.7554ZM84.654 20.6788H81.379C81.2432 20.6788 81.112 20.7258 81.0087 20.8113C80.9055 20.8968 80.8372 21.0152 80.816 21.1452L80.671 22.0334L80.442 21.7115C79.733 20.7137 78.152 20.3801 76.574 20.3801C72.955 20.3801 69.864 23.0381 69.262 26.7665C68.949 28.6264 69.394 30.4048 70.482 31.6451C71.48 32.7854 72.908 33.2606 74.607 33.2606C77.523 33.2606 79.14 31.4424 79.14 31.4424L78.994 32.3248C78.981 32.4037 78.9858 32.4844 79.008 32.5614C79.0303 32.6383 79.0694 32.7096 79.1229 32.7705C79.1763 32.8313 79.2427 32.8802 79.3174 32.9137C79.3922 32.9473 79.4736 32.9647 79.556 32.9648H82.506C82.7325 32.9649 82.9517 32.8865 83.1239 32.7437C83.296 32.601 83.4099 32.4032 83.445 32.1862L85.215 21.3168C85.228 21.2381 85.2233 21.1576 85.2011 21.0808C85.1789 21.0041 85.1397 20.9329 85.0864 20.8722C85.0331 20.8116 84.9668 20.7628 84.8921 20.7294C84.8175 20.696 84.7362 20.6788 84.654 20.6788ZM80.089 26.8596C79.773 28.6739 78.288 29.8919 76.394 29.8919C75.443 29.8919 74.683 29.5961 74.195 29.0356C73.711 28.479 73.527 27.6868 73.681 26.8044C73.976 25.0056 75.486 23.7479 77.351 23.7479C78.281 23.7479 79.037 24.0475 79.535 24.6128C80.034 25.184 80.232 25.9811 80.089 26.8596ZM102.096 20.6788H98.805C98.6498 20.679 98.497 20.716 98.3598 20.7864C98.2227 20.8569 98.1054 20.9588 98.018 21.0831L93.479 27.5665L91.555 21.3362C91.4959 21.1462 91.3754 20.9797 91.2111 20.8613C91.0469 20.7429 90.8477 20.6789 90.643 20.6788H87.409C87.3182 20.6785 87.2287 20.6993 87.1479 20.7394C87.0671 20.7795 86.9973 20.8378 86.9444 20.9093C86.8914 20.9808 86.8569 21.0636 86.8436 21.1506C86.8303 21.2377 86.8387 21.3266 86.868 21.4099L90.493 31.7256L87.085 36.3908C87.0244 36.4735 86.9885 36.5708 86.9812 36.672C86.9738 36.7732 86.9953 36.8744 87.0433 36.9645C87.0914 37.0546 87.164 37.1302 87.2534 37.1829C87.3428 37.2357 87.4454 37.2636 87.55 37.2635H90.837C90.9905 37.2637 91.1417 37.2278 91.2777 37.1589C91.4137 37.09 91.5305 36.9901 91.618 36.8679L102.564 21.5467C102.623 21.4638 102.658 21.3667 102.665 21.266C102.671 21.1653 102.649 21.0648 102.601 20.9754C102.553 20.886 102.48 20.8111 102.391 20.7588C102.302 20.7065 102.2 20.6788 102.096 20.6788Z" fill="#253B80"/>
<path d="M112.992 14.5445H106.152C105.926 14.5446 105.707 14.623 105.535 14.7655C105.363 14.9081 105.249 15.1055 105.214 15.3222L102.448 32.3278C102.435 32.4065 102.44 32.4871 102.462 32.5638C102.485 32.6406 102.524 32.7118 102.577 32.7724C102.631 32.8331 102.697 32.8818 102.772 32.9151C102.846 32.9485 102.928 32.9658 103.01 32.9658H106.52C106.678 32.9656 106.831 32.9106 106.952 32.8107C107.072 32.7108 107.151 32.5726 107.176 32.4209L107.961 27.6005C107.996 27.3836 108.11 27.186 108.282 27.0432C108.454 26.9005 108.673 26.822 108.899 26.8218H111.063C115.569 26.8218 118.168 24.7079 118.848 20.5188C119.155 18.6861 118.86 17.2461 117.975 16.2376C117.004 15.1302 115.281 14.5445 112.992 14.5445ZM113.781 20.7554C113.408 23.135 111.533 23.135 109.719 23.135H108.688L109.413 18.6909C109.434 18.5609 109.502 18.4424 109.605 18.3568C109.708 18.2713 109.839 18.2243 109.975 18.2245H110.448C111.682 18.2245 112.848 18.2245 113.45 18.9072C113.809 19.3144 113.918 19.9195 113.781 20.7554ZM133.434 20.6788H130.161C130.025 20.6784 129.894 20.7253 129.791 20.8109C129.688 20.8965 129.62 21.0151 129.599 21.1452L129.454 22.0335L129.224 21.7115C128.515 20.7137 126.935 20.3801 125.357 20.3801C121.738 20.3801 118.648 23.0381 118.046 26.7666C117.734 28.6264 118.177 30.4049 119.265 31.6451C120.265 32.7855 121.691 33.2606 123.39 33.2606C126.306 33.2606 127.923 31.4424 127.923 31.4424L127.777 32.3249C127.764 32.4039 127.769 32.4848 127.791 32.5618C127.813 32.6389 127.853 32.7103 127.906 32.7712C127.96 32.8321 128.027 32.8809 128.102 32.9143C128.177 32.9478 128.258 32.965 128.341 32.9649H131.29C131.516 32.9647 131.735 32.8862 131.907 32.7434C132.079 32.6007 132.193 32.4031 132.228 32.1862L133.999 21.3169C134.012 21.2379 134.006 21.1572 133.984 21.0804C133.961 21.0036 133.922 20.9324 133.868 20.8718C133.814 20.8112 133.748 20.7625 133.673 20.7292C133.598 20.6959 133.516 20.6787 133.434 20.6788ZM128.869 26.8596C128.555 28.6739 127.068 29.8919 125.174 29.8919C124.225 29.8919 123.463 29.5961 122.975 29.0356C122.491 28.479 122.309 27.6868 122.461 26.8044C122.758 25.0056 124.266 23.7479 126.131 23.7479C127.061 23.7479 127.817 24.0475 128.315 24.6129C128.816 25.184 129.014 25.9811 128.869 26.8596ZM137.295 15.0109L134.488 32.3278C134.475 32.4065 134.48 32.4871 134.502 32.5638C134.525 32.6406 134.564 32.7118 134.617 32.7724C134.671 32.8331 134.737 32.8818 134.812 32.9151C134.886 32.9485 134.968 32.9658 135.05 32.9658H137.872C138.341 32.9658 138.739 32.6361 138.811 32.1872L141.579 15.1825C141.592 15.1037 141.587 15.0231 141.565 14.9463C141.542 14.8695 141.503 14.7983 141.45 14.7376C141.396 14.6769 141.33 14.6281 141.255 14.5946C141.181 14.5611 141.099 14.5437 141.017 14.5435H137.857C137.721 14.544 137.59 14.5913 137.487 14.6769C137.384 14.7626 137.316 14.881 137.295 15.0109Z" fill="#179BD7"/>
<path d="M25.266 36.2705L25.789 33.0492L24.624 33.023H19.061L22.927 9.25285C22.9385 9.18022 22.9766 9.11402 23.0342 9.06632C23.0918 9.01861 23.1652 8.99258 23.241 8.99297H32.621C35.735 8.99297 37.884 9.62133 39.006 10.8616C39.532 11.4434 39.867 12.0514 40.029 12.7205C40.199 13.4225 40.202 14.2613 40.036 15.2844L40.024 15.359V16.0145L40.55 16.3035C40.9516 16.5008 41.3125 16.7677 41.615 17.0909C42.065 17.5884 42.356 18.2206 42.479 18.9702C42.606 19.7411 42.564 20.6584 42.356 21.697C42.116 22.8916 41.728 23.9321 41.204 24.7835C40.7417 25.5462 40.12 26.2068 39.379 26.7229C38.683 27.2019 37.856 27.5656 36.921 27.7983C36.015 28.0272 34.982 28.1425 33.849 28.1425H33.119C32.597 28.1425 32.09 28.3249 31.692 28.6516C31.2946 28.9819 31.0309 29.4383 30.948 29.9394L30.893 30.2293L29.969 35.9069L29.927 36.1154C29.916 36.1813 29.897 36.2143 29.869 36.2366C29.8419 36.2581 29.808 36.2701 29.773 36.2705H25.266Z" fill="#253B80"/>
<path d="M41.048 15.4347C41.02 15.6082 40.988 15.7857 40.952 15.968C39.715 22.1265 35.483 24.2541 30.078 24.2541H27.326C26.665 24.2541 26.108 24.7195 26.005 25.3518L24.596 34.017L24.197 36.4732C24.1811 36.5706 24.1872 36.6703 24.2148 36.7652C24.2424 36.8601 24.2909 36.9481 24.357 37.0232C24.423 37.0982 24.505 37.1584 24.5974 37.1997C24.6898 37.2411 24.7903 37.2625 24.892 37.2625H29.773C30.351 37.2625 30.842 36.8553 30.933 36.3025L30.981 36.0621L31.9 30.4068L31.959 30.0965C32.049 29.5418 32.541 29.1345 33.119 29.1345H33.849C38.578 29.1345 42.28 27.2727 43.362 21.8851C43.814 19.6344 43.58 17.7551 42.384 16.4334C42.0049 16.0246 41.5522 15.6861 41.048 15.4347Z" fill="#179BD7"/>
<path d="M39.754 14.9343C39.359 14.8235 38.9572 14.737 38.551 14.6754C37.7483 14.5558 36.9371 14.4984 36.125 14.5038H28.773C28.4932 14.5036 28.2226 14.6004 28.01 14.7768C27.7974 14.9533 27.657 15.1976 27.614 15.4657L26.05 25.0715L26.005 25.3518C26.0537 25.046 26.2137 24.7672 26.456 24.5658C26.6983 24.3645 27.0069 24.2539 27.326 24.2541H30.078C35.483 24.2541 39.715 22.1256 40.952 15.968C40.989 15.7857 41.02 15.6082 41.048 15.4347C40.7216 15.2687 40.3814 15.1295 40.031 15.0187C39.9391 14.9891 39.8468 14.961 39.754 14.9343Z" fill="#222D65"/>
<path d="M27.614 15.4657C27.6566 15.1975 27.797 14.9531 28.0097 14.7767C28.2223 14.6004 28.4932 14.5039 28.773 14.5047H36.125C36.996 14.5047 37.809 14.56 38.551 14.6764C39.0531 14.7529 39.5483 14.8673 40.032 15.0187C40.397 15.136 40.736 15.2747 41.049 15.4347C41.417 13.1588 41.046 11.6092 39.777 10.2061C38.378 8.66133 35.853 8 32.622 8H23.242C22.582 8 22.019 8.46545 21.917 9.09867L18.01 33.1132C17.9918 33.2247 17.9987 33.3387 18.0303 33.4474C18.0619 33.556 18.1173 33.6567 18.1929 33.7426C18.2684 33.8285 18.3623 33.8975 18.4679 33.9449C18.5736 33.9922 18.6886 34.0168 18.805 34.017H24.596L26.05 25.0715L27.614 15.4657Z" fill="#253B80"/>
</svg>
