<svg width="124" height="32" viewBox="0 0 124 32" fill="none" xmlns="http://www.w3.org/2000/svg">
<path d="M46.211 6.54492H39.372C39.1456 6.54478 38.9266 6.62306 38.7544 6.76565C38.5822 6.90823 38.4683 7.10575 38.433 7.32262L35.667 24.3282C35.6543 24.4071 35.6593 24.4878 35.6819 24.5646C35.7044 24.6414 35.7438 24.7126 35.7974 24.7732C35.851 24.8339 35.9175 24.8825 35.9924 24.9159C36.0672 24.9492 36.1486 24.9664 36.231 24.9663H39.496C39.7225 24.9664 39.9417 24.8879 40.1139 24.7452C40.286 24.6024 40.3999 24.4046 40.435 24.1876L41.181 19.6009C41.216 19.384 41.3298 19.1864 41.5017 19.0437C41.6737 18.9009 41.8926 18.8224 42.119 18.8223H44.284C48.789 18.8223 51.389 16.7083 52.068 12.5192C52.374 10.6865 52.081 9.2465 51.196 8.23801C50.224 7.13062 48.5 6.54492 46.211 6.54492ZM47 12.7558C46.626 15.1355 44.751 15.1355 42.938 15.1355H41.906L42.63 10.6913C42.6512 10.5613 42.7195 10.4429 42.8227 10.3574C42.926 10.2719 43.0572 10.2249 43.193 10.2249H43.666C44.901 10.2249 46.066 10.2249 46.668 10.9076C47.027 11.3149 47.137 11.92 47 12.7558ZM66.654 12.6792H63.379C63.2432 12.6792 63.112 12.7262 63.0087 12.8117C62.9055 12.8972 62.8372 13.0156 62.816 13.1456L62.671 14.0339L62.442 13.712C61.733 12.7141 60.152 12.3806 58.574 12.3806C54.955 12.3806 51.864 15.0385 51.262 18.767C50.949 20.6269 51.394 22.4053 52.482 23.6455C53.48 24.7859 54.908 25.261 56.607 25.261C59.523 25.261 61.14 23.4429 61.14 23.4429L60.994 24.3253C60.981 24.4042 60.9858 24.4849 61.008 24.5618C61.0303 24.6387 61.0694 24.7101 61.1229 24.7709C61.1763 24.8317 61.2427 24.8806 61.3174 24.9142C61.3922 24.9477 61.4736 24.9652 61.556 24.9653H64.506C64.7325 24.9654 64.9517 24.887 65.1239 24.7442C65.296 24.6014 65.4099 24.4037 65.445 24.1866L67.215 13.3173C67.228 13.2386 67.2233 13.158 67.2011 13.0813C67.1789 13.0045 67.1397 12.9333 67.0864 12.8727C67.0331 12.812 66.9668 12.7633 66.8921 12.7299C66.8175 12.6965 66.7362 12.6792 66.654 12.6792ZM62.089 18.8601C61.773 20.6744 60.288 21.8923 58.394 21.8923C57.443 21.8923 56.683 21.5966 56.195 21.0361C55.711 20.4795 55.527 19.6872 55.681 18.8048C55.976 17.006 57.486 15.7483 59.351 15.7483C60.281 15.7483 61.037 16.048 61.535 16.6133C62.034 17.1844 62.232 17.9815 62.089 18.8601ZM84.096 12.6792H80.805C80.6498 12.6795 80.497 12.7164 80.3598 12.7869C80.2227 12.8573 80.1054 12.9592 80.018 13.0836L75.479 19.567L73.555 13.3367C73.4959 13.1467 73.3754 12.9801 73.2111 12.8617C73.0469 12.7433 72.8477 12.6793 72.643 12.6792H69.409C69.3182 12.679 69.2287 12.6998 69.1479 12.7399C69.0671 12.78 68.9973 12.8382 68.9444 12.9097C68.8914 12.9813 68.8569 13.064 68.8436 13.1511C68.8303 13.2382 68.8387 13.3271 68.868 13.4104L72.493 23.726L69.085 28.3912C69.0244 28.4739 68.9885 28.5712 68.9812 28.6724C68.9738 28.7736 68.9953 28.8748 69.0433 28.9649C69.0914 29.0551 69.164 29.1306 69.2534 29.1834C69.3428 29.2361 69.4454 29.264 69.55 29.264H72.837C72.9905 29.2642 73.1417 29.2283 73.2777 29.1594C73.4137 29.0905 73.5305 28.9906 73.618 28.8683L84.564 13.5471C84.6233 13.4642 84.6581 13.3672 84.6646 13.2665C84.6711 13.1657 84.649 13.0652 84.6008 12.9758C84.5526 12.8864 84.4801 12.8115 84.3911 12.7592C84.3021 12.7069 84.2 12.6793 84.096 12.6792Z" fill="#253B80"/>
<path d="M94.9919 6.54394H88.1519C87.9257 6.54403 87.7069 6.62241 87.535 6.76498C87.363 6.90754 87.2492 7.10493 87.2139 7.32164L84.4479 24.3272C84.4351 24.406 84.44 24.4865 84.4623 24.5633C84.4846 24.6401 84.5238 24.7112 84.5773 24.7719C84.6307 24.8325 84.697 24.8812 84.7717 24.9146C84.8464 24.948 84.9277 24.9653 85.0099 24.9653H88.5199C88.6783 24.965 88.8313 24.91 88.9516 24.8101C89.0719 24.7102 89.1514 24.572 89.1759 24.4203L89.9609 19.5999C89.996 19.3831 90.1097 19.1854 90.2817 19.0427C90.4536 18.8999 90.6725 18.8214 90.8989 18.8213H93.0629C97.5689 18.8213 100.168 16.7073 100.848 12.5182C101.155 10.6855 100.86 9.24551 99.9749 8.23703C99.0039 7.12964 97.2809 6.54394 94.9919 6.54394ZM95.7809 12.7548C95.4079 15.1345 93.5329 15.1345 91.7189 15.1345H90.6879L91.4129 10.6904C91.4337 10.5603 91.5018 10.4418 91.6049 10.3563C91.708 10.2707 91.8392 10.2238 91.9749 10.2239H92.4479C93.6819 10.2239 94.8479 10.2239 95.4499 10.9066C95.8089 11.3139 95.9179 11.919 95.7809 12.7548ZM115.434 12.6782H112.161C112.025 12.6779 111.894 12.7248 111.791 12.8103C111.688 12.8959 111.62 13.0146 111.599 13.1447L111.454 14.0329L111.224 13.711C110.515 12.7132 108.935 12.3796 107.357 12.3796C103.738 12.3796 100.648 15.0375 100.046 18.766C99.7339 20.6259 100.177 22.4043 101.265 23.6445C102.265 24.7849 103.691 25.2601 105.39 25.2601C108.306 25.2601 109.923 23.4419 109.923 23.4419L109.777 24.3243C109.764 24.4034 109.769 24.4842 109.791 24.5613C109.813 24.6384 109.853 24.7098 109.906 24.7707C109.96 24.8315 110.027 24.8804 110.102 24.9138C110.177 24.9472 110.258 24.9645 110.341 24.9643H113.29C113.516 24.9642 113.735 24.8857 113.907 24.7429C114.079 24.6001 114.193 24.4025 114.228 24.1856L115.999 13.3163C116.011 13.2373 116.006 13.1567 115.984 13.0798C115.961 13.003 115.921 12.9318 115.868 12.8712C115.814 12.8106 115.748 12.762 115.673 12.7287C115.598 12.6953 115.516 12.6781 115.434 12.6782ZM110.869 18.8591C110.555 20.6734 109.068 21.8913 107.174 21.8913C106.225 21.8913 105.463 21.5956 104.975 21.0351C104.491 20.4785 104.309 19.6862 104.461 18.8038C104.758 17.005 106.266 15.7473 108.131 15.7473C109.061 15.7473 109.817 16.047 110.315 16.6123C110.816 17.1835 111.014 17.9805 110.869 18.8591ZM119.295 7.01036L116.488 24.3272C116.475 24.406 116.48 24.4865 116.502 24.5633C116.525 24.6401 116.564 24.7112 116.617 24.7719C116.671 24.8325 116.737 24.8812 116.812 24.9146C116.886 24.948 116.968 24.9653 117.05 24.9653H119.872C120.341 24.9653 120.739 24.6356 120.811 24.1866L123.579 7.182C123.592 7.10318 123.587 7.02259 123.565 6.94578C123.542 6.86897 123.503 6.79776 123.45 6.73704C123.396 6.67632 123.33 6.62753 123.255 6.59403C123.181 6.56053 123.099 6.54311 123.017 6.54297H119.857C119.721 6.54343 119.59 6.59073 119.487 6.67637C119.384 6.76201 119.316 6.88042 119.295 7.01036Z" fill="#179BD7"/>
<path d="M7.26604 28.2698L7.78904 25.0484L6.62404 25.0223H1.06104L4.92704 1.25207C4.93854 1.17944 4.97659 1.11324 5.03422 1.06554C5.09186 1.01783 5.16526 0.991804 5.24104 0.992192H14.621C17.735 0.992192 19.884 1.62056 21.006 2.8608C21.532 3.44262 21.867 4.05062 22.029 4.71971C22.199 5.42177 22.202 6.26056 22.036 7.28359L22.024 7.35825V8.01377L22.55 8.30274C22.9516 8.50001 23.3125 8.76687 23.615 9.09013C24.065 9.58759 24.356 10.2198 24.479 10.9694C24.606 11.7403 24.564 12.6576 24.356 13.6962C24.116 14.8909 23.728 15.9313 23.204 16.7827C22.7417 17.5454 22.1201 18.206 21.379 18.7221C20.683 19.2012 19.856 19.5648 18.921 19.7975C18.015 20.0264 16.982 20.1418 15.849 20.1418H15.119C14.597 20.1418 14.09 20.3241 13.692 20.6509C13.2946 20.9811 13.0309 21.4375 12.948 21.9386L12.893 22.2286L11.969 27.9061L11.927 28.1146C11.916 28.1806 11.897 28.2135 11.869 28.2358C11.8419 28.2573 11.8081 28.2693 11.773 28.2698H7.26604Z" fill="#253B80"/>
<path d="M23.0481 7.43555C23.0201 7.60912 22.9881 7.78658 22.9521 7.96888C21.7151 14.1274 17.4831 16.2549 12.0781 16.2549H9.32612C8.66512 16.2549 8.10812 16.7204 8.00512 17.3526L6.59612 26.0179L6.19712 28.4741C6.18123 28.5715 6.1873 28.6711 6.21491 28.7661C6.24252 28.861 6.29103 28.949 6.35708 29.024C6.42313 29.0991 6.50516 29.1593 6.59753 29.2006C6.6899 29.242 6.7904 29.2634 6.89212 29.2634H11.7731C12.3511 29.2634 12.8421 28.8562 12.9331 28.3034L12.9811 28.0629L13.9001 22.4077L13.9591 22.0974C14.0491 21.5427 14.5411 21.1354 15.1191 21.1354H15.8491C20.5781 21.1354 24.2801 19.2736 25.3621 13.886C25.8141 11.6353 25.5801 9.75603 24.3841 8.43433C24.0051 8.02547 23.5523 7.68702 23.0481 7.43555Z" fill="#179BD7"/>
<path d="M21.7539 6.9348C21.3589 6.824 20.9571 6.73753 20.5509 6.67589C19.7482 6.55627 18.937 6.49887 18.1249 6.50425H10.7729C10.4931 6.50404 10.2224 6.6009 10.0099 6.77733C9.79732 6.95375 9.65685 7.19809 9.61388 7.46619L8.04988 17.072L8.00488 17.3523C8.05361 17.0465 8.21359 16.7677 8.45588 16.5663C8.69818 16.365 9.00679 16.2544 9.32588 16.2546H12.0779C17.4829 16.2546 21.7149 14.1261 22.9519 7.96849C22.9889 7.78619 23.0199 7.60874 23.0479 7.43516C22.7215 7.26918 22.3813 7.13002 22.0309 7.01916C21.939 6.9896 21.8467 6.96148 21.7539 6.9348Z" fill="#222D65"/>
<path d="M9.61391 7.4657C9.65652 7.19752 9.79691 6.95307 10.0096 6.77673C10.2222 6.6004 10.4931 6.50388 10.7729 6.50473H18.1249C18.9959 6.50473 19.8089 6.56 20.5509 6.67636C21.053 6.75288 21.5482 6.86733 22.0319 7.01867C22.3969 7.136 22.7359 7.27467 23.0489 7.43467C23.4169 5.15879 23.0459 3.60921 21.7769 2.20606C20.3779 0.661333 17.8529 0 14.6219 0H5.24191C4.58191 0 4.01891 0.465455 3.91691 1.09867L0.00990971 25.1132C-0.00828844 25.2247 -0.00136467 25.3387 0.0302048 25.4474C0.0617742 25.556 0.11724 25.6567 0.192787 25.7426C0.268334 25.8285 0.362169 25.8975 0.467837 25.9449C0.573506 25.9922 0.6885 26.0168 0.80491 26.017H6.59591L8.04991 17.0715L9.61391 7.4657Z" fill="#253B80"/>
</svg>
