<svg width="24" height="24" viewBox="0 0 24 24" fill="none" xmlns="http://www.w3.org/2000/svg">
<path d="M2.99999 0H15.7447L22.5 6.72902V22.5C22.5 23.3287 21.828 24 21 24H2.99999C2.17196 24 1.5 23.3287 1.5 22.5V1.49999C1.5 0.671265 2.17204 0 2.99999 0Z" fill="#E2574C"/>
<path d="M22.4783 6.75062H17.25C16.422 6.75062 15.75 6.07866 15.75 5.25064V0.015625L22.4783 6.75062Z" fill="#B53629"/>
<path d="M16.8738 11.373C17.1251 11.373 17.2481 11.154 17.2481 10.9418C17.2481 10.722 17.1198 10.5098 16.8738 10.5098H15.4428C15.1631 10.5098 15.0071 10.7415 15.0071 10.9973V14.514C15.0071 14.8275 15.1856 15.0015 15.4271 15.0015C15.6671 15.0015 15.8463 14.8275 15.8463 14.514V13.5488H16.7119C16.9804 13.5488 17.1146 13.329 17.1146 13.1108C17.1146 12.8971 16.9804 12.6847 16.7119 12.6847H15.8463V11.373H16.8738ZM12.0371 10.5098H10.99C10.7058 10.5098 10.504 10.7048 10.504 10.9942V14.517C10.504 14.8762 10.7942 14.9888 11.002 14.9888H12.1008C13.4012 14.9888 14.26 14.133 14.26 12.8122C14.2593 11.4158 13.4508 10.5098 12.0371 10.5098ZM12.0873 14.1203H11.4491V11.3783H12.0243C12.8951 11.3783 13.2738 11.9626 13.2738 12.7688C13.2738 13.5233 12.9018 14.1203 12.0873 14.1203ZM8.25182 10.5098H7.21458C6.92132 10.5098 6.75781 10.7032 6.75781 10.9973V14.514C6.75781 14.8275 6.9453 15.0015 7.19728 15.0015C7.44925 15.0015 7.63674 14.8275 7.63674 14.514V13.4872H8.28698C9.08947 13.4872 9.75173 12.9187 9.75173 12.0045C9.75181 11.1098 9.11283 10.5098 8.25182 10.5098ZM8.23459 12.6623H7.63682V11.3355H8.23459C8.6036 11.3355 8.83834 11.6235 8.83834 11.9993C8.83757 12.3743 8.6036 12.6623 8.23459 12.6623Z" fill="white"/>
</svg>
