<svg width="24" height="24" viewBox="0 0 24 24" fill="none" xmlns="http://www.w3.org/2000/svg">
<path d="M13 2C12.7348 2 12.4804 2.10536 12.2929 2.29289C12.1054 2.48043 12 2.73478 12 3V11C12 11.2652 12.1054 11.5196 12.2929 11.7071C12.4804 11.8946 12.7348 12 13 12H21C21.2652 12 21.5196 11.8946 21.7071 11.7071C21.8946 11.5196 22 11.2652 22 11C22 8.61305 21.0518 6.32387 19.364 4.63604C17.6761 2.94821 15.3869 2 13 2ZM14 10V4.07C15.4962 4.28561 16.8824 4.97978 17.9513 6.04868C19.0202 7.11759 19.7144 8.50379 19.93 10H14Z" fill="#F8EBDF"/>
<path d="M20.8198 14.0596C20.6958 14.0153 20.5642 13.9959 20.4326 14.0026C20.301 14.0092 20.172 14.0419 20.053 14.0986C19.9341 14.1552 19.8275 14.2349 19.7395 14.3329C19.6514 14.4309 19.5835 14.5453 19.5398 14.6696C19.0892 15.9436 18.3232 17.0826 17.3133 17.9804C16.3034 18.8782 15.0826 19.5056 13.7647 19.8041C12.4468 20.1025 11.0747 20.0623 9.7766 19.6871C8.47845 19.3119 7.29649 18.614 6.34099 17.6585C5.38549 16.703 4.68759 15.521 4.3124 14.2229C3.93721 12.9247 3.89695 11.5527 4.19539 10.2348C4.49383 8.91687 5.12124 7.69603 6.01908 6.68616C6.91691 5.67628 8.05593 4.91029 9.32985 4.45963C9.58047 4.37211 9.78607 4.18861 9.90141 3.94951C10.0167 3.7104 10.0324 3.43526 9.94485 3.18463C9.85732 2.934 9.67383 2.72841 9.43472 2.61307C9.19561 2.49774 8.92048 2.48211 8.66985 2.56963C7.07689 3.13241 5.65248 4.0896 4.52956 5.35185C3.40664 6.61411 2.62183 8.14029 2.24837 9.78794C1.8749 11.4356 1.92497 13.151 2.39389 14.7741C2.8628 16.3971 3.73529 17.875 4.92991 19.0696C6.12453 20.2642 7.60234 21.1367 9.22541 21.6056C10.8485 22.0745 12.5639 22.1246 14.2115 21.7511C15.8592 21.3777 17.3854 20.5928 18.6476 19.4699C19.9099 18.347 20.8671 16.9226 21.4298 15.3296C21.5163 15.0803 21.5007 14.8069 21.3865 14.569C21.2722 14.3311 21.0685 14.148 20.8198 14.0596Z" fill="#F8EBDF"/>
</svg>
