<svg width="80" height="80" viewBox="0 0 80 80" fill="none" xmlns="http://www.w3.org/2000/svg">
<g filter="url(#filter0_d)">
<rect x="16" y="8" width="48" height="48" rx="24" fill="#00C688"/>
<path d="M33 33H44.86L41.23 37.36C41.146 37.4611 41.0826 37.5778 41.0437 37.7034C41.0047 37.829 40.9909 37.961 41.003 38.0919C41.0274 38.3564 41.1558 38.6003 41.36 38.77C41.5642 38.9397 41.8275 39.0214 42.0919 38.997C42.3563 38.9726 42.6003 38.8442 42.77 38.64L47.77 32.64C47.8036 32.5923 47.8337 32.5421 47.86 32.49C47.86 32.44 47.91 32.41 47.93 32.36C47.9753 32.2453 47.9991 32.1233 48 32C47.9991 31.8767 47.9753 31.7547 47.93 31.64C47.93 31.59 47.88 31.56 47.86 31.51C47.8337 31.4579 47.8036 31.4077 47.77 31.36L42.77 25.36C42.676 25.2471 42.5582 25.1563 42.4252 25.0941C42.2921 25.0319 42.1469 24.9998 42 25C41.7663 24.9995 41.5399 25.0809 41.36 25.23C41.2587 25.314 41.175 25.4171 41.1137 25.5334C41.0523 25.6497 41.0145 25.7771 41.0025 25.908C40.9904 26.039 41.0043 26.1711 41.0433 26.2967C41.0824 26.4223 41.1458 26.539 41.23 26.64L44.86 31H33C32.7348 31 32.4804 31.1054 32.2929 31.2929C32.1054 31.4804 32 31.7348 32 32C32 32.2652 32.1054 32.5196 32.2929 32.7071C32.4804 32.8946 32.7348 33 33 33Z" fill="#2B2B2C"/>
</g>
<defs>
<filter id="filter0_d" x="0" y="0" width="80" height="80" filterUnits="userSpaceOnUse" color-interpolation-filters="sRGB">
<feFlood flood-opacity="0" result="BackgroundImageFix"/>
<feColorMatrix in="SourceAlpha" type="matrix" values="0 0 0 0 0 0 0 0 0 0 0 0 0 0 0 0 0 0 127 0"/>
<feOffset dy="8"/>
<feGaussianBlur stdDeviation="8"/>
<feColorMatrix type="matrix" values="0 0 0 0 0 0 0 0 0 0 0 0 0 0 0 0 0 0 0.5 0"/>
<feBlend mode="normal" in2="BackgroundImageFix" result="effect1_dropShadow"/>
<feBlend mode="normal" in="SourceGraphic" in2="effect1_dropShadow" result="shape"/>
</filter>
</defs>
</svg>
