<svg width="24" height="24" viewBox="0 0 24 24" fill="none" xmlns="http://www.w3.org/2000/svg">
<g clip-path="url(#clip0)">
<path d="M22.4109 13.8218C22.4692 13.75 22.5197 13.6723 22.5616 13.5899L22.6258 13.5268C22.6717 13.4147 22.6967 13.2951 22.6998 13.174C22.6973 13.0575 22.6745 12.9425 22.6323 12.8339L22.5693 12.7697C22.555 12.6546 22.5175 12.5436 22.4592 12.4434L22.4242 12.4077C22.3653 12.3261 22.2945 12.254 22.2141 12.1936L5.32409 3.54899C5.13702 3.45225 4.92419 3.41704 4.71593 3.44838C4.50768 3.47972 4.31464 3.57601 4.16433 3.72352C4.01402 3.87103 3.91412 4.06223 3.87886 4.26985C3.84361 4.47748 3.8748 4.69094 3.968 4.87979L7.91562 12.9571L3.81673 20.9587C3.71999 21.1458 3.68478 21.3586 3.71612 21.5668C3.74747 21.7751 3.84375 21.9681 3.99126 22.1184C4.13877 22.2688 4.32997 22.3687 4.53759 22.4039C4.74522 22.4392 4.95868 22.408 5.14753 22.3148L22.1972 13.9895C22.2757 13.9436 22.3476 13.8872 22.4109 13.8218ZM17.4845 12.0713L9.60764 11.9972L7.03382 6.71891L17.4845 12.0713ZM6.91621 19.22L9.58888 13.9911L17.4657 14.0652L6.91621 19.22Z" fill="#8A8A8A"/>
</g>
<defs>
<clipPath id="clip0">
<rect width="24" height="24" fill="white"/>
</clipPath>
</defs>
</svg>
