<svg width="160" height="48" viewBox="0 0 160 48" fill="none" xmlns="http://www.w3.org/2000/svg">
<rect width="160" height="48" rx="4" fill="white"/>
<path fill-rule="evenodd" clip-rule="evenodd" d="M113.846 24.3865C113.846 19.7842 111.514 16.1528 107.058 16.1528C102.583 16.1528 99.8751 19.7842 99.8751 24.3505C99.8751 29.7617 103.072 32.4943 107.66 32.4943C109.897 32.4943 111.59 32.0089 112.868 31.3258V27.7303C111.59 28.3415 110.123 28.7191 108.261 28.7191C106.438 28.7191 104.82 28.1078 104.614 25.9865H113.808C113.808 25.7528 113.846 24.8179 113.846 24.3865ZM104.557 22.6786C104.557 20.6471 105.855 19.8022 107.039 19.8022C108.186 19.8022 109.408 20.6471 109.408 22.6786H104.557Z" fill="#635BFF"/>
<path fill-rule="evenodd" clip-rule="evenodd" d="M92.6169 16.1528C90.7742 16.1528 89.5895 16.9797 88.9314 17.555L88.687 16.4404H84.5502V37.4022L89.2511 36.4494L89.2699 31.3617C89.9468 31.8292 90.9434 32.4943 92.5981 32.4943C95.9639 32.4943 99.0289 29.9056 99.0289 24.2067C99.0101 18.9932 95.9075 16.1528 92.6169 16.1528ZM91.4887 28.5393C90.3793 28.5393 89.7212 28.1617 89.2699 27.6943L89.2511 21.0247C89.74 20.5033 90.4169 20.1438 91.4887 20.1438C93.1998 20.1438 94.3844 21.9775 94.3844 24.3325C94.3844 26.7415 93.2186 28.5393 91.4887 28.5393Z" fill="#635BFF"/>
<path fill-rule="evenodd" clip-rule="evenodd" d="M78.082 15.0921L82.8016 14.1213V10.4719L78.082 11.4247V15.0921Z" fill="#635BFF"/>
<path d="M82.8016 16.4584H78.082V32.1887H82.8016V16.4584Z" fill="#635BFF"/>
<path fill-rule="evenodd" clip-rule="evenodd" d="M73.0238 17.7887L72.723 16.4583H68.6614V32.1887H73.3623V21.528C74.4717 20.1437 76.352 20.3954 76.935 20.5932V16.4583C76.3332 16.2426 74.1332 15.8471 73.0238 17.7887Z" fill="#635BFF"/>
<path fill-rule="evenodd" clip-rule="evenodd" d="M63.6223 12.5573L59.0342 13.4921L59.0154 27.8921C59.0154 30.5528 61.1026 32.5123 63.8855 32.5123C65.4274 32.5123 66.5556 32.2426 67.1761 31.9191V28.2696C66.5744 28.5033 63.6035 29.3303 63.6035 26.6696V20.2876H67.1761V16.4584H63.6035L63.6223 12.5573Z" fill="#635BFF"/>
<path fill-rule="evenodd" clip-rule="evenodd" d="M50.9111 21.0247C50.9111 20.3235 51.5128 20.0539 52.5094 20.0539C53.9384 20.0539 55.7436 20.4674 57.1726 21.2044V16.9797C55.6119 16.3865 54.07 16.1528 52.5094 16.1528C48.6923 16.1528 46.1538 18.0584 46.1538 21.2404C46.1538 26.2022 53.2991 25.4112 53.2991 27.5505C53.2991 28.3775 52.547 28.6471 51.494 28.6471C49.9333 28.6471 47.9401 28.0359 46.3606 27.2089V31.4876C48.1094 32.2067 49.8769 32.5123 51.494 32.5123C55.4051 32.5123 58.094 30.6606 58.094 27.4426C58.0752 22.0853 50.9111 23.0382 50.9111 21.0247Z" fill="#635BFF"/>
</svg>
