<svg width="68" height="28" viewBox="0 0 68 28" fill="none" xmlns="http://www.w3.org/2000/svg">
<path fill-rule="evenodd" clip-rule="evenodd" d="M67.8459 14.388C67.8459 9.78576 65.5143 6.1543 61.0579 6.1543C56.5827 6.1543 53.875 9.78576 53.875 14.3521C53.875 19.7633 57.0716 22.4959 61.6596 22.4959C63.8972 22.4959 65.5895 22.0105 66.8682 21.3273V17.7318C65.5895 18.3431 64.1229 18.7206 62.2613 18.7206C60.4374 18.7206 58.8203 18.1094 58.6135 15.988H67.8083C67.8083 15.7543 67.8459 14.8195 67.8459 14.388ZM58.5571 12.6801C58.5571 10.6487 59.8545 9.80374 61.0391 9.80374C62.1861 9.80374 63.4083 10.6487 63.4083 12.6801H58.5571Z" fill="#635BFF"/>
<path fill-rule="evenodd" clip-rule="evenodd" d="M46.617 6.1543C44.7742 6.1543 43.5896 6.98126 42.9315 7.55654L42.687 6.44194H38.5503V27.4037L43.2511 26.4509L43.2699 21.3633C43.9469 21.8307 44.9435 22.4959 46.5982 22.4959C49.964 22.4959 53.0289 19.9071 53.0289 14.2082C53.0101 8.99475 49.9076 6.1543 46.617 6.1543ZM45.4888 18.5408C44.3794 18.5408 43.7212 18.1633 43.2699 17.6959L43.2511 11.0262C43.74 10.5049 44.417 10.1453 45.4888 10.1453C47.1999 10.1453 48.3845 11.979 48.3845 14.3341C48.3845 16.7431 47.2187 18.5408 45.4888 18.5408Z" fill="#635BFF"/>
<path fill-rule="evenodd" clip-rule="evenodd" d="M32.082 5.09288L36.8017 4.12209V0.472656L32.082 1.42546V5.09288Z" fill="#635BFF"/>
<path d="M36.8017 6.45898H32.082V22.1893H36.8017V6.45898Z" fill="#635BFF"/>
<path fill-rule="evenodd" clip-rule="evenodd" d="M27.024 7.7896L26.7232 6.45926H22.6616V22.1896H27.3625V11.5289C28.4719 10.1447 30.3522 10.3963 30.9351 10.5941V6.45926C30.3334 6.24353 28.1334 5.84803 27.024 7.7896Z" fill="#635BFF"/>
<path fill-rule="evenodd" clip-rule="evenodd" d="M17.6225 2.55859L13.0344 3.49343L13.0156 17.8934C13.0156 20.5541 15.1028 22.5137 17.8857 22.5137C19.4276 22.5137 20.5558 22.244 21.1763 21.9204V18.271C20.5746 18.5047 17.6037 19.3316 17.6037 16.671V10.2889H21.1763V6.45972H17.6037L17.6225 2.55859Z" fill="#635BFF"/>
<path fill-rule="evenodd" clip-rule="evenodd" d="M4.91107 11.0262C4.91107 10.3251 5.51278 10.0554 6.50937 10.0554C7.93843 10.0554 9.74355 10.4689 11.1726 11.206V6.98126C9.61193 6.388 8.07005 6.1543 6.50937 6.1543C2.69227 6.1543 0.153809 8.05992 0.153809 11.2419C0.153809 16.2037 7.29911 15.4127 7.29911 17.5521C7.29911 18.379 6.54697 18.6487 5.49398 18.6487C3.9333 18.6487 1.94013 18.0374 0.360646 17.2105V21.4891C2.10936 22.2082 3.87689 22.5139 5.49398 22.5139C9.40509 22.5139 12.094 20.6622 12.094 17.4442C12.0752 12.0869 4.91107 13.0397 4.91107 11.0262Z" fill="#635BFF"/>
</svg>
