<svg width="18" height="18" viewBox="0 0 18 18" fill="none" xmlns="http://www.w3.org/2000/svg">
<path fill-rule="evenodd" clip-rule="evenodd" d="M3 0H15C15.7956 0 16.5587 0.316071 17.1213 0.87868C17.6839 1.44129 18 2.20435 18 3V15C18 15.7956 17.6839 16.5587 17.1213 17.1213C16.5587 17.6839 15.7956 18 15 18H3C2.20435 18 1.44129 17.6839 0.87868 17.1213C0.316071 16.5587 0 15.7956 0 15V3C0 2.20435 0.316071 1.44129 0.87868 0.87868C1.44129 0.316071 2.20435 0 3 0ZM7.92001 10.3899L11.7 5.38993H11.69C11.8518 5.17776 12.0912 5.03854 12.3557 5.00291C12.6201 4.96728 12.8878 5.03815 13.1 5.19993C13.3122 5.36171 13.4514 5.60116 13.487 5.86558C13.5227 6.13001 13.4518 6.39776 13.29 6.60993L8.72001 12.6099C8.62685 12.7309 8.50721 12.829 8.37027 12.8966C8.23333 12.9642 8.08272 12.9996 7.93001 12.9999C7.77811 13.0008 7.62803 12.967 7.49115 12.9011C7.35426 12.8353 7.23418 12.7391 7.14001 12.6199L4.71001 9.50993C4.5469 9.30041 4.4737 9.03468 4.50652 8.77119C4.53934 8.5077 4.67549 8.26804 4.88501 8.10493C5.09453 7.94182 5.36026 7.86863 5.62375 7.90145C5.88724 7.93427 6.1269 8.07041 6.29001 8.27993L7.92001 10.3899Z" fill="#00C688"/>
</svg>
