<svg width="24" height="24" viewBox="0 0 24 24" fill="none" xmlns="http://www.w3.org/2000/svg">
<path d="M21 6.00138H16V4.33138C15.9765 3.6912 15.7002 3.08644 15.2316 2.64967C14.7629 2.2129 14.1402 1.97977 13.5 2.00138H10.5C9.85975 1.97977 9.23706 2.2129 8.76843 2.64967C8.2998 3.08644 8.02346 3.6912 8 4.33138V6.00138H3C2.73478 6.00138 2.48043 6.10674 2.29289 6.29427C2.10536 6.48181 2 6.73616 2 7.00138C2 7.26659 2.10536 7.52095 2.29289 7.70849C2.48043 7.89602 2.73478 8.00138 3 8.00138H4V19.0014C4 19.797 4.31607 20.5601 4.87868 21.1227C5.44129 21.6853 6.20435 22.0014 7 22.0014H17C17.7956 22.0014 18.5587 21.6853 19.1213 21.1227C19.6839 20.5601 20 19.797 20 19.0014V8.00138H21C21.2652 8.00138 21.5196 7.89602 21.7071 7.70849C21.8946 7.52095 22 7.26659 22 7.00138C22 6.73616 21.8946 6.48181 21.7071 6.29427C21.5196 6.10674 21.2652 6.00138 21 6.00138ZM10 4.33138C10 4.17138 10.21 4.00138 10.5 4.00138H13.5C13.79 4.00138 14 4.17138 14 4.33138V6.00138H10V4.33138ZM18 19.0014C18 19.2666 17.8946 19.521 17.7071 19.7085C17.5196 19.896 17.2652 20.0014 17 20.0014H7C6.73478 20.0014 6.48043 19.896 6.29289 19.7085C6.10536 19.521 6 19.2666 6 19.0014V8.00138H18V19.0014Z" fill="white"/>
</svg>
