<svg width="18" height="14" viewBox="0 0 18 14" fill="none" xmlns="http://www.w3.org/2000/svg">
<path d="M17.1 1.96216C16.5038 2.22718 15.864 2.40692 15.1918 2.48716C15.8782 2.07488 16.4036 1.42093 16.6526 0.644094C16.0087 1.0259 15.2981 1.30314 14.5409 1.45343C13.9345 0.804554 13.072 0.400391 12.1154 0.400391C10.2801 0.400391 8.79195 1.89312 8.79195 3.73314C8.79195 3.9941 8.82131 4.24898 8.87801 4.49271C6.11643 4.35357 3.66766 3.02638 2.02873 1.00965C1.74224 1.50115 1.57926 2.07384 1.57926 2.68517C1.57926 3.84179 2.16641 4.86233 3.05725 5.4594C2.51262 5.44113 2.00038 5.29084 1.55194 5.04103V5.08267C1.55194 6.69725 2.69788 8.04476 4.21735 8.35145C3.93896 8.42659 3.6454 8.46823 3.3417 8.46823C3.1271 8.46823 2.91957 8.4469 2.71609 8.40628C3.13923 9.73146 4.36617 10.6951 5.81986 10.7215C4.68302 11.6152 3.24958 12.1462 1.69266 12.1462C1.42441 12.1462 1.16018 12.13 0.900024 12.1005C2.37092 13.048 4.11716 13.6004 5.99398 13.6004C12.1073 13.6004 15.449 8.52104 15.449 4.11598L15.4378 3.68441C16.0908 3.21727 16.6556 2.63034 17.1 1.96216Z" fill="#F8EBDF"/>
</svg>
