<svg width="40" height="40" viewBox="0 0 40 40" fill="none" xmlns="http://www.w3.org/2000/svg">
<path d="M28.3334 35V31.6667C28.3334 29.8986 27.631 28.2029 26.3807 26.9526C25.1305 25.7024 23.4348 25 21.6667 25H8.33335C6.56524 25 4.86955 25.7024 3.61931 26.9526C2.36907 28.2029 1.66669 29.8986 1.66669 31.6667V35" stroke="white" stroke-width="2" stroke-linecap="round" stroke-linejoin="round"/>
<path d="M15 18.3333C18.6819 18.3333 21.6666 15.3486 21.6666 11.6667C21.6666 7.98477 18.6819 5 15 5C11.3181 5 8.33331 7.98477 8.33331 11.6667C8.33331 15.3486 11.3181 18.3333 15 18.3333Z" stroke="white" stroke-width="2" stroke-linecap="round" stroke-linejoin="round"/>
<path d="M38.3333 35.0001V31.6668C38.3322 30.1897 37.8406 28.7548 36.9356 27.5873C36.0306 26.4199 34.7635 25.5861 33.3333 25.2168" stroke="white" stroke-width="2" stroke-linecap="round" stroke-linejoin="round"/>
<path d="M26.6667 5.2168C28.1007 5.58397 29.3717 6.41797 30.2794 7.58731C31.1871 8.75666 31.6798 10.1948 31.6798 11.6751C31.6798 13.1554 31.1871 14.5936 30.2794 15.7629C29.3717 16.9323 28.1007 17.7663 26.6667 18.1335" stroke="white" stroke-width="2" stroke-linecap="round" stroke-linejoin="round"/>
</svg>
