<svg width="24" height="24" viewBox="0 0 24 24" fill="none" xmlns="http://www.w3.org/2000/svg">
<path d="M18 19V17.3333C18 16.4493 17.6839 15.6014 17.1213 14.9763C16.5587 14.3512 15.7956 14 15 14H9C8.20435 14 7.44129 14.3512 6.87868 14.9763C6.31607 15.6014 6 16.4493 6 17.3333V19" stroke="#2B2B2C" stroke-width="2" stroke-linecap="round" stroke-linejoin="round"/>
<path d="M12 11C13.6569 11 15 9.65685 15 8C15 6.34315 13.6569 5 12 5C10.3431 5 9 6.34315 9 8C9 9.65685 10.3431 11 12 11Z" stroke="#2B2B2C" stroke-width="2" stroke-linecap="round" stroke-linejoin="round"/>
<path d="M22 19V17.2964C21.9996 16.5415 21.8029 15.8082 21.4409 15.2115C21.0789 14.6149 20.5721 14.1887 20 14" stroke="#2B2B2C" stroke-width="2" stroke-linecap="round" stroke-linejoin="round"/>
<path d="M2 19V17.2964C2.00044 16.5415 2.1971 15.8082 2.55909 15.2115C2.92108 14.6149 3.42791 14.1887 4 14" stroke="#2B2B2C" stroke-width="2" stroke-linecap="round" stroke-linejoin="round"/>
<path d="M17 5C17.5721 5.17056 18.0792 5.55796 18.4413 6.10114C18.8034 6.64432 19 7.31238 19 8C19 8.68762 18.8034 9.35567 18.4413 9.89886C18.0792 10.442 17.5721 10.8294 17 11" stroke="#2B2B2C" stroke-width="2" stroke-linecap="round" stroke-linejoin="round"/>
<path d="M7 5C6.42789 5.17056 5.9208 5.55796 5.55868 6.10114C5.19655 6.64432 5 7.31238 5 8C5 8.68762 5.19655 9.35567 5.55868 9.89886C5.9208 10.442 6.42789 10.8294 7 11" stroke="#2B2B2C" stroke-width="2" stroke-linecap="round" stroke-linejoin="round"/>
</svg>
