<svg width="20" height="20" viewBox="0 0 20 20" fill="none" xmlns="http://www.w3.org/2000/svg">
<path d="M2.71 1.29019C2.61676 1.19695 2.50607 1.12299 2.38425 1.07253C2.26243 1.02207 2.13186 0.996094 2 0.996094C1.86814 0.996094 1.73758 1.02207 1.61575 1.07253C1.49393 1.12299 1.38324 1.19695 1.29 1.29019C1.1017 1.47849 0.995911 1.73388 0.995911 2.00019C0.995911 2.26649 1.1017 2.52188 1.29 2.71019L6.92 8.34019C6.56381 9.0028 6.43059 9.76256 6.54009 10.5068C6.64959 11.2511 6.99599 11.9403 7.52794 12.4722C8.05989 13.0042 8.74908 13.3506 9.49335 13.4601C10.2376 13.5696 10.9974 13.4364 11.66 13.0802L17.29 18.7102C17.383 18.8039 17.4936 18.8783 17.6154 18.9291C17.7373 18.9798 17.868 19.006 18 19.006C18.132 19.006 18.2627 18.9798 18.3846 18.9291C18.5064 18.8783 18.617 18.8039 18.71 18.7102C18.8037 18.6172 18.8781 18.5066 18.9289 18.3848C18.9797 18.2629 19.0058 18.1322 19.0058 18.0002C19.0058 17.8682 18.9797 17.7375 18.9289 17.6156C18.8781 17.4937 18.8037 17.3831 18.71 17.2902L2.71 1.29019ZM10 11.5002C9.60218 11.5002 9.22065 11.3422 8.93934 11.0608C8.65804 10.7795 8.5 10.398 8.5 10.0002V9.93019L10.06 11.4902L10 11.5002Z" fill="#00C688"/>
</svg>
