<svg width="40" height="40" viewBox="0 0 40 40" fill="none" xmlns="http://www.w3.org/2000/svg">
<path d="M0 19.9451C0 8.97422 8.9786 0 19.9549 0C30.9312 0 39.9098 8.97422 39.9098 19.9451C39.9098 31.0258 30.9312 39.9342 19.9549 39.9342C8.9786 39.9342 0 31.0258 0 19.9451ZM17.0132 29.2265V22.9292H22.7209C26.1016 22.9292 29.2408 20.5376 29.2408 16.5661C29.2408 12.6604 26.0797 10.203 22.7209 10.203H13.1057V29.2265H17.0132ZM16.9693 13.8453H22.677C23.9722 13.8453 25.443 14.6572 25.443 16.5661C25.443 18.5848 23.9722 19.3308 22.677 19.3308H16.9693V13.8453Z" fill="#58BD88"/>
</svg>
