<svg width="6" height="6" viewBox="0 0 6 6" fill="none" xmlns="http://www.w3.org/2000/svg">
<path d="M3 0C2.40666 0 1.82664 0.175947 1.33329 0.505591C0.839943 0.835236 0.455426 1.30377 0.228363 1.85195C0.00129986 2.40013 -0.0581102 3.00333 0.0576455 3.58527C0.173401 4.16721 0.459123 4.70176 0.878681 5.12132C1.29824 5.54088 1.83279 5.8266 2.41473 5.94236C2.99667 6.05811 3.59987 5.9987 4.14805 5.77164C4.69623 5.54458 5.16477 5.16006 5.49441 4.66671C5.82405 4.17336 6 3.59334 6 3C6 2.20435 5.68393 1.44129 5.12132 0.878679C4.55871 0.31607 3.79565 0 3 0ZM3 4C2.80222 4 2.60888 3.94135 2.44443 3.83147C2.27998 3.72159 2.15181 3.56541 2.07612 3.38268C2.00043 3.19996 1.98063 2.99889 2.01922 2.80491C2.0578 2.61093 2.15304 2.43275 2.2929 2.29289C2.43275 2.15304 2.61093 2.0578 2.80491 2.01921C2.99889 1.98063 3.19996 2.00043 3.38269 2.07612C3.56541 2.15181 3.72159 2.27998 3.83147 2.44443C3.94135 2.60888 4 2.80222 4 3C4 3.26522 3.89464 3.51957 3.70711 3.70711C3.51957 3.89464 3.26522 4 3 4Z" fill="#00C688"/>
</svg>
