<svg width="8" height="8" viewBox="0 0 8 8" fill="none" xmlns="http://www.w3.org/2000/svg">
<path d="M4 8C4.79113 8 5.56448 7.76541 6.22228 7.32588C6.88008 6.88635 7.39277 6.26164 7.69552 5.53074C7.99827 4.79983 8.07748 3.99556 7.92314 3.21964C7.7688 2.44372 7.38784 1.73098 6.82843 1.17157C6.26902 0.612164 5.55629 0.231202 4.78036 0.0768607C4.00444 -0.0774802 3.20017 0.00173312 2.46927 0.304484C1.73836 0.607234 1.11365 1.11992 0.674122 1.77772C0.234596 2.43552 0 3.20888 0 4C0 5.06087 0.421427 6.07828 1.17157 6.82843C1.92172 7.57857 2.93913 8 4 8ZM4 2C4.39556 2 4.78224 2.1173 5.11114 2.33706C5.44004 2.55683 5.69638 2.86918 5.84776 3.23463C5.99913 3.60009 6.03874 4.00222 5.96157 4.39018C5.8844 4.77814 5.69392 5.13451 5.41421 5.41422C5.13451 5.69392 4.77814 5.8844 4.39018 5.96157C4.00222 6.03874 3.60009 5.99914 3.23463 5.84776C2.86918 5.69639 2.55682 5.44004 2.33706 5.11114C2.1173 4.78224 2 4.39556 2 4C2 3.46957 2.21071 2.96086 2.58579 2.58579C2.96086 2.21072 3.46957 2 4 2Z" fill="#8A8A8A"/>
</svg>
