<svg width="16" height="20" viewBox="0 0 16 20" fill="none" xmlns="http://www.w3.org/2000/svg">
<path d="M13 6.00035H12V4.11035C12 3.04949 11.5786 2.03207 10.8284 1.28192C10.0783 0.531779 9.06087 0.110352 8 0.110352C6.93913 0.110352 5.92172 0.531779 5.17157 1.28192C4.42143 2.03207 4 3.04949 4 4.11035V6.00035H3C2.20435 6.00035 1.44129 6.31642 0.87868 6.87903C0.316071 7.44164 0 8.2047 0 9.00035V17.0004C0 17.796 0.316071 18.5591 0.87868 19.1217C1.44129 19.6843 2.20435 20.0004 3 20.0004H13C13.7956 20.0004 14.5587 19.6843 15.1213 19.1217C15.6839 18.5591 16 17.796 16 17.0004V9.00035C16 8.2047 15.6839 7.44164 15.1213 6.87903C14.5587 6.31642 13.7956 6.00035 13 6.00035ZM6 4.11035C5.98655 3.56565 6.18945 3.0378 6.56428 2.64235C6.93912 2.2469 7.45536 2.01606 8 2.00035C8.54464 2.01606 9.06088 2.2469 9.43572 2.64235C9.81055 3.0378 10.0135 3.56565 10 4.11035V6.00035H6V4.11035ZM14 17.0004C14 17.2656 13.8946 17.5199 13.7071 17.7075C13.5196 17.895 13.2652 18.0004 13 18.0004H3C2.73478 18.0004 2.48043 17.895 2.29289 17.7075C2.10536 17.5199 2 17.2656 2 17.0004V9.00035C2 8.73514 2.10536 8.48078 2.29289 8.29325C2.48043 8.10571 2.73478 8.00035 3 8.00035H13C13.2652 8.00035 13.5196 8.10571 13.7071 8.29325C13.8946 8.48078 14 8.73514 14 9.00035V17.0004Z" fill="#00C688"/>
</svg>
