<svg width="40" height="40" viewBox="0 0 40 40" fill="none" xmlns="http://www.w3.org/2000/svg">
<rect width="40" height="40" rx="20" fill="#2B2B2C"/>
<path d="M20 0C8.97133 0 0 8.97219 0 20C0 31.0278 8.97133 40 20 40C31.0287 40 40 31.0278 40 20C40 8.97219 31.0287 0 20 0ZM27.9509 20.7007L16.2842 28.2007C16.1475 28.2894 15.9896 28.3334 15.8334 28.3334C15.6966 28.3334 15.5583 28.2991 15.4346 28.2316C15.166 28.0852 15 27.8052 15 27.5V12.5C15 12.1948 15.166 11.9148 15.4346 11.7684C15.6983 11.6235 16.0287 11.6324 16.2842 11.7993L27.9509 19.2993C28.1885 19.4523 28.3334 19.7168 28.3334 20C28.3334 20.2832 28.1885 20.5477 27.9509 20.7007Z" fill="#00C688"/>
</svg>
