<svg width="25" height="24" viewBox="0 0 25 24" fill="none" xmlns="http://www.w3.org/2000/svg">
<path d="M21.5 7.15C21.1962 7.0132 20.8588 6.9687 20.5299 7.02204C20.201 7.07537 19.895 7.22419 19.65 7.45L17.5 9.45V8C17.5 7.20435 17.1839 6.44129 16.6213 5.87868C16.0587 5.31607 15.2956 5 14.5 5H5.5C4.70435 5 3.94129 5.31607 3.37868 5.87868C2.81607 6.44129 2.5 7.20435 2.5 8V16C2.5 16.7956 2.81607 17.5587 3.37868 18.1213C3.94129 18.6839 4.70435 19 5.5 19H14.5C15.2956 19 16.0587 18.6839 16.6213 18.1213C17.1839 17.5587 17.5 16.7956 17.5 16V14.55L19.66 16.55C19.978 16.8378 20.3911 16.9981 20.82 17C21.058 16.9994 21.2932 16.9483 21.51 16.85C21.8049 16.7307 22.0576 16.5262 22.2357 16.2625C22.4139 15.9989 22.5094 15.6882 22.51 15.37V8.63C22.5086 8.31069 22.4116 7.99911 22.2316 7.73536C22.0516 7.47161 21.7968 7.26774 21.5 7.15ZM15.5 16C15.5 16.2652 15.3946 16.5196 15.2071 16.7071C15.0196 16.8946 14.7652 17 14.5 17H5.5C5.23478 17 4.98043 16.8946 4.79289 16.7071C4.60536 16.5196 4.5 16.2652 4.5 16V8C4.5 7.73478 4.60536 7.48043 4.79289 7.29289C4.98043 7.10536 5.23478 7 5.5 7H14.5C14.7652 7 15.0196 7.10536 15.2071 7.29289C15.3946 7.48043 15.5 7.73478 15.5 8V16ZM20.5 14.6L17.69 12L20.5 9.4V14.6Z" fill="#F8EBDF"/>
</svg>
